<?xml version="1.0" standalone="no"?>
<!DOCTYPE svg PUBLIC "-//W3C//DTD SVG 20010904//EN"
 "http://www.w3.org/TR/2001/REC-SVG-20010904/DTD/svg10.dtd">
<svg version="1.0" xmlns="http://www.w3.org/2000/svg"
 width="1400.000000pt" height="1400.000000pt" viewBox="0 0 1400.000000 1400.000000"
 preserveAspectRatio="xMidYMid meet">
<metadata>
Created by potrace 1.11, written by Peter Selinger 2001-2013
</metadata>
<g transform="translate(0.000000,1400.000000) scale(0.100000,-0.100000)"
fill="#000000" stroke="none">
<path d="M0 7000 l0 -7000 7000 0 7000 0 0 7000 0 7000 -7000 0 -7000 0 0
-7000z m8930 2620 c0 -5 -4 -10 -10 -10 -5 0 -10 5 -10 10 0 6 5 10 10 10 6 0
10 -4 10 -10z m-330 -90 c0 -5 -4 -10 -10 -10 -5 0 -10 5 -10 10 0 6 5 10 10
10 6 0 10 -4 10 -10z m70 -10 c0 -5 -4 -10 -10 -10 -5 0 -10 5 -10 10 0 6 5
10 10 10 6 0 10 -4 10 -10z m-170 -160 c0 -13 -7 -20 -20 -20 -11 0 -20 2 -20
4 0 2 -3 11 -6 20 -5 12 0 16 20 16 19 0 26 -5 26 -20z m310 0 c0 -5 -4 -10
-10 -10 -5 0 -10 5 -10 10 0 6 5 10 10 10 6 0 10 -4 10 -10z m-235 -40 c-3 -5
-10 -10 -16 -10 -5 0 -9 5 -9 10 0 6 7 10 16 10 8 0 12 -4 9 -10z m-110 -59
c3 -5 1 -12 -5 -16 -5 -3 -10 1 -10 9 0 18 6 21 15 7z m-111 -42 c-3 -5 -10
-7 -15 -3 -5 3 -7 10 -3 15 3 5 10 7 15 3 5 -3 7 -10 3 -15z m-1176 -9 c2 -6
17 -10 33 -10 18 0 28 -4 24 -10 -3 -5 3 -10 14 -10 10 0 21 -4 23 -10 2 -5
18 -11 36 -13 17 -2 35 -7 39 -10 3 -4 17 -7 30 -7 13 0 26 -7 29 -15 4 -8 15
-15 25 -15 10 0 24 -9 31 -20 7 -11 23 -20 35 -20 24 0 50 -18 92 -62 115
-119 141 -154 141 -183 0 -9 7 -18 15 -21 8 -4 15 -12 15 -19 0 -6 8 -27 17
-46 13 -25 18 -30 21 -16 3 12 13 17 41 17 41 0 74 -28 106 -89 8 -17 20 -31
25 -31 6 0 10 -7 10 -15 0 -8 9 -30 20 -50 11 -20 20 -46 20 -59 0 -13 7 -26
15 -30 8 -3 15 -16 15 -30 0 -14 5 -28 11 -31 6 -4 7 -19 4 -36 -5 -21 -2 -31
9 -35 11 -4 16 -19 16 -44 0 -22 5 -42 10 -45 6 -3 10 -19 10 -35 0 -16 5 -32
10 -35 6 -3 10 -24 10 -46 0 -21 4 -39 9 -39 5 0 12 -30 15 -67 18 -218 16
-206 49 -235 18 -17 42 -28 59 -28 15 0 28 -4 28 -10 0 -5 14 -10 30 -10 17 0
30 -4 30 -10 0 -5 15 -10 34 -10 20 0 36 -6 39 -14 3 -8 16 -13 31 -12 14 2
27 -3 30 -10 3 -8 19 -14 36 -14 16 0 30 -4 30 -10 0 -5 19 -10 43 -10 32 -1
50 -8 77 -30 19 -17 44 -30 56 -30 12 0 24 -6 27 -12 2 -7 25 -19 51 -27 25
-7 46 -17 46 -22 0 -5 7 -9 15 -9 8 0 29 -9 47 -20 18 -11 43 -20 54 -20 12 0
24 -7 28 -15 3 -8 14 -15 25 -15 11 0 22 -4 26 -10 3 -5 12 -7 19 -4 7 3 19
-2 26 -11 7 -8 23 -15 36 -15 13 0 24 -4 24 -10 0 -5 9 -10 19 -10 11 0 23 -5
27 -11 4 -7 21 -9 41 -6 30 5 36 3 51 -23 11 -19 25 -30 40 -30 12 0 22 -4 22
-10 0 -5 9 -10 21 -10 11 0 27 -7 35 -15 9 -8 24 -15 35 -15 10 0 19 -4 19
-10 0 -5 11 -10 25 -10 14 0 25 -4 25 -10 0 -5 11 -10 25 -10 14 0 25 -4 25
-10 0 -5 11 -10 24 -10 14 0 28 -4 31 -10 3 -5 15 -10 26 -10 10 0 19 -4 19
-8 0 -9 70 -42 88 -42 7 0 12 -4 12 -10 0 -5 11 -10 25 -10 14 0 25 -4 25 -10
0 -5 7 -10 15 -10 14 0 33 -8 75 -32 8 -4 32 -16 53 -25 20 -10 37 -21 37 -25
0 -5 9 -8 20 -8 11 0 20 -4 20 -10 0 -5 6 -10 13 -10 7 0 32 -18 55 -39 l42
-39 0 -106 c0 -64 -4 -106 -10 -106 -5 0 -10 -11 -10 -25 0 -14 -4 -25 -10
-25 -5 0 -10 -7 -10 -15 0 -18 -44 -65 -60 -65 -6 0 -13 -7 -16 -15 -4 -8 -12
-15 -18 -15 -7 0 -22 -9 -34 -20 -19 -18 -35 -20 -152 -20 -80 0 -130 4 -130
10 0 6 -28 10 -65 10 -37 0 -65 4 -65 10 0 6 -24 10 -54 10 -39 0 -55 4 -60
15 -4 10 -20 15 -50 15 -25 0 -48 5 -51 10 -3 6 -26 10 -51 10 -24 0 -44 5
-44 10 0 6 -20 10 -44 10 -25 0 -48 5 -51 10 -3 6 -26 10 -51 10 -24 0 -44 5
-44 10 0 6 -40 10 -99 10 -79 0 -100 3 -105 15 -4 10 -20 15 -51 15 -25 0 -45
5 -45 10 0 6 -28 10 -63 10 -36 0 -68 5 -75 12 -9 9 -15 8 -27 -8 -17 -23 -19
-34 -5 -34 6 0 10 -18 10 -39 0 -22 5 -43 10 -46 6 -3 10 -21 10 -40 0 -19 5
-37 10 -40 6 -3 10 -19 10 -34 0 -15 9 -37 20 -49 11 -12 20 -26 20 -31 0 -6
11 -21 25 -35 14 -14 25 -32 25 -41 0 -8 4 -15 9 -15 5 0 14 -15 21 -32 6 -18
16 -41 21 -50 5 -10 9 -24 9 -32 0 -8 7 -16 15 -20 8 -3 15 -17 15 -31 0 -14
5 -25 10 -25 6 0 10 -11 10 -25 0 -14 5 -25 10 -25 6 0 10 -11 10 -25 0 -14 5
-25 10 -25 6 0 10 -9 10 -19 0 -11 7 -26 15 -35 8 -8 15 -24 15 -35 0 -12 5
-21 10 -21 6 0 10 -9 10 -20 0 -11 5 -20 10 -20 6 0 10 -9 10 -19 0 -11 5 -23
10 -26 6 -3 10 -15 10 -26 0 -10 5 -19 10 -19 6 0 10 -9 10 -20 0 -11 4 -20
10 -20 5 0 12 -11 16 -25 3 -14 10 -25 15 -25 5 0 9 -9 9 -20 0 -11 5 -20 10
-20 6 0 10 -20 10 -45 0 -25 5 -45 10 -45 6 0 10 -15 10 -33 0 -18 6 -41 13
-52 7 -11 14 -36 16 -55 2 -19 7 -36 12 -38 5 -2 9 -21 9 -43 0 -21 5 -39 10
-39 6 0 10 -15 10 -34 0 -19 5 -38 10 -41 6 -3 10 -21 10 -39 0 -21 9 -43 24
-59 14 -15 26 -41 28 -59 2 -18 9 -38 17 -44 8 -6 12 -20 8 -33 -3 -11 0 -21
5 -21 18 0 37 -33 38 -62 0 -16 5 -28 10 -28 6 0 10 -18 8 -42 -1 -26 3 -43
10 -46 7 -2 12 -15 12 -28 0 -13 5 -24 10 -24 6 0 10 -7 10 -15 0 -9 9 -25 20
-37 11 -12 20 -32 20 -44 0 -12 7 -27 15 -34 9 -7 14 -19 11 -27 -3 -8 1 -16
9 -19 9 -4 15 -19 15 -35 0 -16 5 -29 10 -29 6 0 10 -11 10 -25 0 -14 5 -25
10 -25 6 0 10 -13 10 -29 0 -16 7 -34 15 -41 8 -7 15 -19 15 -26 0 -8 5 -14
10 -14 6 0 10 -11 10 -24 0 -14 5 -28 10 -31 6 -3 10 -17 10 -31 0 -13 5 -24
10 -24 6 0 10 -7 10 -16 0 -8 7 -23 16 -31 10 -10 13 -25 10 -39 -4 -14 -2
-24 4 -24 5 0 10 -9 10 -19 0 -11 7 -26 15 -35 8 -8 15 -24 15 -35 0 -12 5
-21 10 -21 6 0 10 -9 10 -19 0 -11 5 -23 10 -26 6 -3 10 -15 10 -25 0 -10 5
-20 11 -22 6 -2 12 -16 12 -31 0 -15 3 -27 8 -27 5 0 9 -8 9 -19 0 -10 7 -24
15 -31 8 -7 15 -23 15 -36 0 -12 5 -26 10 -29 6 -3 10 -15 10 -26 0 -10 5 -19
10 -19 6 0 10 -8 10 -19 0 -10 6 -24 14 -30 8 -7 18 -37 22 -67 4 -33 12 -58
20 -61 8 -3 14 -11 14 -19 0 -7 9 -29 20 -49 11 -20 20 -42 20 -49 0 -8 7 -17
16 -20 12 -4 14 -13 10 -31 -5 -18 -2 -27 9 -31 8 -4 15 -17 15 -29 0 -13 5
-27 10 -30 6 -3 10 -15 10 -26 0 -11 10 -31 23 -44 35 -38 48 -55 42 -55 -3 0
6 -20 20 -45 26 -47 36 -145 15 -145 -5 0 -10 -8 -10 -18 0 -18 -32 -52 -50
-52 -5 0 -14 -9 -20 -20 -6 -11 -17 -20 -26 -20 -8 0 -17 -7 -20 -15 -4 -8
-14 -15 -24 -15 -11 0 -22 -5 -25 -10 -3 -5 -15 -10 -26 -10 -10 0 -19 -4 -19
-10 0 -5 -11 -10 -25 -10 -14 0 -25 -4 -25 -10 0 -5 -6 -10 -13 -10 -8 0 -24
-11 -37 -25 -13 -14 -32 -25 -42 -25 -10 0 -18 -4 -18 -10 0 -5 -9 -10 -20
-10 -11 0 -20 -4 -20 -10 0 -5 -11 -10 -25 -10 -14 0 -25 -4 -25 -10 0 -5 -11
-10 -24 -10 -14 0 -28 -4 -31 -10 -8 -13 -112 -13 -120 0 -3 5 -21 10 -40 10
-25 0 -35 5 -40 21 -4 11 -20 33 -36 50 -16 16 -29 36 -29 44 0 8 -4 15 -10
15 -5 0 -10 9 -10 20 0 11 -4 20 -9 20 -5 0 -12 11 -15 25 -4 14 -11 25 -17
25 -6 0 -8 8 -4 19 3 12 0 21 -10 24 -8 4 -12 13 -9 22 4 8 -1 17 -10 21 -9 3
-16 13 -16 20 0 8 -9 24 -20 36 -11 12 -20 29 -20 39 0 9 -7 20 -16 23 -9 4
-14 13 -10 21 3 8 1 15 -4 15 -10 0 -40 57 -40 77 0 7 -4 13 -10 13 -5 0 -10
9 -10 20 0 22 -15 27 -24 8 -3 -7 -3 3 0 23 4 27 2 38 -10 42 -9 4 -16 18 -16
32 0 14 -4 25 -10 25 -5 0 -10 11 -10 25 0 14 -4 25 -10 25 -5 0 -10 9 -10 19
0 10 -7 21 -15 25 -8 3 -12 12 -9 20 3 8 1 17 -5 21 -6 3 -11 14 -11 25 0 10
-7 20 -15 24 -8 3 -15 15 -15 26 0 11 -4 20 -10 20 -5 0 -10 -5 -10 -12 0 -9
-3 -9 -12 0 -9 9 -9 15 0 24 15 15 16 48 2 48 -5 0 -10 11 -10 25 0 14 -4 25
-10 25 -5 0 -10 7 -10 16 0 8 -6 22 -12 29 -30 33 -38 45 -38 55 0 5 -4 10
-10 10 -5 0 -10 9 -10 20 0 11 -4 20 -10 20 -5 0 -10 9 -10 20 0 11 -4 20 -9
20 -5 0 -13 10 -17 23 -4 12 -15 29 -25 38 -11 9 -19 24 -19 33 0 9 -4 16 -10
16 -5 0 -10 9 -10 20 0 12 -11 32 -25 46 -14 14 -25 31 -25 39 0 8 -5 15 -11
15 -6 0 -9 9 -6 20 3 11 0 20 -5 20 -15 0 -37 31 -38 53 0 9 -4 17 -10 17 -5
0 -10 9 -10 19 0 10 -7 22 -16 25 -9 3 -14 12 -11 20 3 8 -5 22 -19 32 -13 11
-24 27 -24 36 0 10 -4 18 -10 18 -5 0 -10 9 -10 19 0 11 -4 23 -10 26 -5 3
-10 13 -10 22 0 9 -16 29 -35 46 -19 16 -35 37 -35 46 0 9 -9 23 -20 31 -11 8
-20 25 -20 37 0 14 -6 23 -15 23 -8 0 -15 9 -15 20 0 11 -9 25 -20 32 -11 7
-20 21 -20 31 0 11 -11 28 -25 39 -14 11 -24 25 -22 31 2 7 -7 23 -20 37 -13
14 -23 28 -23 32 0 16 -44 58 -61 58 -9 0 -20 7 -23 16 -4 10 -16 14 -38 12
-29 -3 -33 -6 -30 -30 2 -16 -3 -35 -12 -44 -23 -22 -23 -249 -1 -258 11 -4
15 -23 15 -81 0 -55 3 -74 13 -72 9 1 11 -14 9 -56 -2 -38 2 -64 10 -74 7 -9
16 -46 19 -82 4 -36 10 -77 14 -90 7 -20 5 -23 -8 -18 -14 5 -17 0 -17 -27 0
-19 6 -36 13 -39 8 -3 12 -30 12 -88 0 -80 1 -84 23 -87 22 -3 30 -17 13 -24
-4 -1 -11 -24 -15 -51 -6 -42 -5 -47 11 -47 16 0 18 -6 15 -37 -2 -26 0 -34 6
-24 17 24 25 -7 17 -74 -4 -41 -3 -65 4 -70 6 -3 11 -19 11 -35 0 -15 6 -30
12 -32 8 -3 14 -27 15 -63 0 -33 6 -61 13 -65 9 -6 11 -27 6 -77 -5 -53 -3
-73 8 -88 9 -11 16 -37 16 -57 0 -21 4 -38 9 -38 9 0 16 -48 27 -182 l6 -68
-32 0 c-38 0 -60 20 -60 54 0 14 -4 28 -10 31 -5 3 -10 24 -10 45 0 21 -4 42
-10 45 -5 3 -10 17 -10 31 0 37 -26 59 -53 46 -12 -6 -37 -11 -56 -11 -18 0
-39 -5 -44 -10 -6 -6 -19 -11 -29 -11 -10 0 -21 -7 -24 -15 -4 -9 -19 -15 -35
-15 -16 0 -29 -4 -29 -9 0 -11 95 10 130 29 28 15 98 14 116 -1 7 -5 14 -22
17 -37 8 -44 49 -176 57 -187 5 -5 11 -32 15 -60 11 -75 24 -90 25 -27 0 51 1
52 29 52 32 0 81 -53 81 -89 0 -12 5 -21 10 -21 6 0 10 -20 10 -45 0 -25 5
-45 10 -45 6 0 10 -18 10 -39 0 -25 5 -41 15 -45 11 -4 15 -22 15 -76 0 -54
-4 -72 -15 -76 -10 -4 -15 -20 -15 -50 0 -32 -4 -44 -15 -44 -8 0 -30 -9 -50
-20 -20 -11 -42 -20 -49 -20 -8 0 -16 -7 -20 -15 -3 -9 -18 -15 -36 -15 -16 0
-30 -4 -30 -10 0 -5 -11 -10 -25 -10 -14 0 -25 -4 -25 -10 0 -5 -24 -10 -54
-10 -35 0 -56 -5 -58 -12 -4 -10 -54 -14 -194 -16 -182 -3 -191 -2 -214 19
-14 11 -24 25 -22 30 1 6 -9 20 -23 33 -14 13 -25 30 -25 39 0 8 -7 18 -16 21
-12 4 -14 14 -9 36 4 19 3 30 -4 30 -6 0 -11 9 -11 19 0 10 -7 22 -16 25 -12
5 -15 16 -12 46 2 26 -1 41 -9 44 -7 3 -13 19 -13 36 0 16 -4 30 -10 30 -5 0
-10 20 -10 45 0 25 -4 45 -10 45 -5 0 -10 18 -10 40 0 22 -4 40 -10 40 -5 0
-10 20 -10 44 0 30 -5 46 -15 50 -8 3 -15 15 -15 26 0 11 -4 20 -10 20 -5 0
-10 15 -10 34 0 19 -4 38 -10 41 -5 3 -10 26 -10 50 0 24 -4 47 -10 50 -5 3
-10 24 -10 46 0 21 -4 39 -9 39 -5 0 -12 16 -15 35 -4 19 -11 35 -16 35 -6 0
-10 13 -10 29 0 17 -4 33 -10 36 -5 3 -10 19 -10 36 0 16 -4 29 -10 29 -5 0
-10 25 -10 55 0 30 -4 55 -10 55 -5 0 -10 25 -10 55 0 30 -4 55 -10 55 -5 0
-10 20 -10 45 0 35 -4 45 -16 45 -12 0 -15 7 -12 31 3 20 0 33 -9 36 -9 3 -13
23 -13 59 0 30 -4 54 -10 54 -5 0 -10 14 -10 30 0 19 -6 33 -16 37 -9 3 -13
12 -9 21 3 8 0 19 -7 23 -7 5 -12 26 -10 53 1 29 -4 50 -13 60 -11 11 -12 17
-3 22 8 5 4 10 -10 15 -20 7 -22 16 -22 74 0 37 -4 65 -10 65 -5 0 -10 17 -10
38 0 21 -5 43 -10 48 -6 6 -11 27 -12 47 -1 20 -5 37 -10 37 -4 0 -8 20 -8 44
0 30 -5 46 -15 50 -9 3 -15 18 -15 40 0 20 -9 51 -20 71 -11 20 -20 46 -20 59
0 13 -6 26 -14 29 -11 4 -14 21 -12 66 2 34 0 61 -5 61 -5 0 -9 9 -9 20 0 11
-7 23 -15 26 -11 5 -15 21 -15 60 0 30 -4 54 -10 54 -5 0 -10 14 -10 31 0 21
-8 37 -25 51 -14 11 -25 30 -25 43 0 13 -5 27 -11 31 -6 3 -9 17 -6 31 3 15
-1 27 -9 30 -10 4 -14 24 -14 69 0 36 -4 64 -10 64 -5 0 -10 11 -10 25 0 14
-4 25 -10 25 -5 0 -10 14 -10 30 0 18 -6 33 -15 36 -10 4 -15 20 -15 44 0 22
-4 42 -10 45 -5 3 -10 19 -10 36 0 16 -4 29 -10 29 -5 0 -10 15 -10 34 0 19
-4 38 -10 41 -5 3 -10 17 -10 31 0 13 -4 24 -10 24 -5 0 -10 14 -10 30 0 18
-6 33 -15 36 -8 4 -15 19 -15 34 0 16 -4 32 -10 35 -5 3 -10 15 -10 26 0 10
-4 19 -10 19 -5 0 -10 20 -10 45 0 25 -4 45 -10 45 -5 0 -10 9 -10 20 0 11 -4
20 -10 20 -5 0 -10 16 -10 35 0 24 -5 35 -15 35 -8 0 -15 9 -15 20 0 11 -7 20
-16 20 -10 0 -13 -6 -9 -19 6 -20 -8 -35 -42 -45 -19 -6 -22 -4 -16 10 4 12 2
15 -8 12 -8 -3 -13 -11 -11 -17 1 -6 -8 -11 -21 -11 -12 0 -29 -9 -37 -20 -8
-11 -20 -20 -27 -20 -7 0 -13 -4 -13 -9 0 -5 -16 -16 -35 -25 -19 -9 -35 -21
-35 -26 0 -6 -8 -10 -17 -10 -10 0 -29 -9 -43 -20 -14 -11 -30 -20 -36 -20 -7
0 -14 -7 -18 -15 -3 -8 -12 -12 -20 -9 -8 3 -17 1 -21 -5 -3 -6 -17 -11 -31
-11 -14 0 -27 -7 -30 -15 -4 -8 -12 -15 -19 -15 -7 0 -15 -5 -17 -11 -5 -15
-251 -13 -256 1 -2 6 -22 10 -44 10 -22 0 -46 7 -54 15 -9 9 -34 15 -59 15
-24 0 -47 5 -51 11 -4 8 -27 10 -65 6 -47 -4 -59 -2 -59 9 0 10 -14 14 -55 14
-30 0 -55 5 -55 10 0 6 -11 10 -25 10 -14 0 -25 5 -25 10 0 6 -11 10 -24 10
-13 0 -26 7 -30 15 -3 10 -19 15 -46 15 -22 0 -40 5 -40 10 0 6 -22 10 -49 10
-28 0 -53 5 -56 10 -3 6 -19 10 -35 10 -15 0 -30 5 -32 11 -2 5 -11 11 -20 13
-10 1 -21 5 -24 9 -4 4 -20 7 -35 7 -15 0 -29 7 -33 15 -3 8 -15 15 -26 15
-11 0 -20 5 -20 10 0 6 -9 10 -20 10 -11 0 -20 5 -20 10 0 6 -11 10 -25 10
-14 0 -25 5 -25 10 0 6 -8 10 -18 10 -10 0 -29 11 -42 25 -23 24 -23 26 -16
197 3 98 11 174 16 176 6 2 10 30 10 63 0 48 4 61 18 66 9 4 21 12 25 20 4 7
14 13 22 13 7 0 15 4 17 8 2 4 28 20 58 34 48 23 68 26 149 26 62 0 99 -5 107
-13 9 -9 63 -13 186 -14 95 -1 177 -6 183 -12 5 -5 62 -9 126 -9 68 0 120 -4
124 -10 3 -5 34 -10 68 -10 60 0 63 1 82 33 10 17 27 39 37 48 10 9 18 23 18
30 0 8 9 21 20 29 11 8 20 19 20 25 0 6 16 28 35 48 19 20 35 40 35 45 0 4 25
34 55 67 30 33 61 72 67 88 7 15 16 27 20 27 5 0 8 9 8 20 0 11 4 20 10 20 5
0 12 11 16 25 3 14 10 25 15 25 11 0 12 57 2 62 -19 8 -43 73 -43 114 0 24 -4
44 -10 44 -5 0 -10 16 -10 35 0 19 -4 35 -10 35 -5 0 -10 18 -10 39 0 22 -4
43 -10 46 -5 3 -10 17 -10 29 0 13 -7 41 -16 62 -10 25 -14 55 -11 87 3 33 0
53 -9 62 -9 8 -14 36 -14 74 0 34 -4 61 -10 61 -5 0 -10 -4 -10 -10 0 -5 -4
-10 -10 -10 -5 0 -10 12 -10 26 0 14 4 23 10 19 6 -4 10 21 10 69 0 41 5 78
10 81 6 3 10 15 10 26 0 16 7 19 45 19 25 0 45 5 45 10 0 6 -4 10 -10 10 -6 0
-10 65 -10 174 0 106 4 177 10 181 6 3 10 26 10 51 0 24 5 44 10 44 6 0 10 6
10 14 0 7 7 19 15 26 8 7 15 21 15 31 0 11 5 19 10 19 6 0 10 7 10 15 0 14 36
85 49 95 8 7 29 40 40 65 14 30 147 155 165 155 9 0 16 5 16 10 0 6 9 10 20
10 11 0 20 5 20 10 0 6 11 10 24 10 13 0 26 6 29 14 4 9 28 17 62 21 33 5 59
13 62 21 3 9 20 14 44 14 21 0 39 5 39 10 0 6 20 10 45 10 25 0 45 4 45 9 0
15 79 19 290 15 114 -3 196 -9 198 -14z m3732 -120 c0 -5 8 -10 18 -10 10 0
30 -13 45 -28 24 -25 27 -36 27 -95 0 -59 -3 -71 -27 -97 -25 -29 -30 -30
-108 -30 -78 0 -83 1 -108 30 -15 16 -27 37 -27 45 0 8 -4 15 -10 15 -5 0 -10
23 -10 52 0 43 5 57 27 80 22 23 35 28 75 28 26 0 48 5 48 10 0 6 11 10 25 10
14 0 25 -4 25 -10z m-2270 -140 c0 -5 -2 -10 -4 -10 -3 0 -8 5 -11 10 -3 6 -1
10 4 10 6 0 11 -4 11 -10z m-270 -100 c0 -5 -4 -10 -10 -10 -5 0 -10 5 -10 10
0 6 5 10 10 10 6 0 10 -4 10 -10z m450 -10 c0 -5 -4 -10 -10 -10 -5 0 -10 5
-10 10 0 6 5 10 10 10 6 0 10 -4 10 -10z m90 -16 c0 -8 -5 -12 -10 -9 -6 4 -8
11 -5 16 9 14 15 11 15 -7z m-463 -40 c-9 -9 -28 6 -21 18 4 6 10 6 17 -1 6
-6 8 -13 4 -17z m-6117 6 c0 -5 -4 -10 -10 -10 -5 0 -10 5 -10 10 0 6 5 10 10
10 6 0 10 -4 10 -10z m1110 -19 c0 -13 -31 -43 -38 -37 -3 3 3 15 13 26 20 22
25 24 25 11z m60 -1 c0 -5 -2 -10 -4 -10 -3 0 -8 5 -11 10 -3 6 -1 10 4 10 6
0 11 -4 11 -10z m-1780 -20 c0 -5 -7 -10 -15 -10 -8 0 -15 5 -15 10 0 6 7 10
15 10 8 0 15 -4 15 -10z m1950 -10 c0 -5 -4 -10 -10 -10 -5 0 -10 5 -10 10 0
6 5 10 10 10 6 0 10 -4 10 -10z m-292 -32 c-2 -6 -10 -14 -16 -16 -7 -2 -10 2
-6 12 7 18 28 22 22 4z m5133 -11 c-13 -13 -26 -3 -16 12 3 6 11 8 17 5 6 -4
6 -10 -1 -17z m-6501 -23 c0 -8 -4 -12 -10 -9 -5 3 -10 10 -10 16 0 5 5 9 10
9 6 0 10 -7 10 -16z m1230 6 c0 -5 -4 -10 -10 -10 -5 0 -10 5 -10 10 0 6 5 10
10 10 6 0 10 -4 10 -10z m640 0 c0 -5 -4 -10 -10 -10 -5 0 -10 5 -10 10 0 6 5
10 10 10 6 0 10 -4 10 -10z m-1786 -14 c-10 -8 -21 -12 -24 -10 -5 6 21 24 34
24 6 0 1 -6 -10 -14z m1241 -16 c-10 -11 -20 -18 -23 -15 -7 6 18 35 31 35 5
0 2 -9 -8 -20z m-790 -30 c3 -5 1 -10 -4 -10 -6 0 -11 5 -11 10 0 6 2 10 4 10
3 0 8 -4 11 -10z m739 -15 c-9 -14 -20 -25 -25 -25 -5 0 -6 -7 -3 -15 7 -16
-11 -21 -21 -5 -3 5 9 23 27 39 40 37 43 38 22 6z m626 15 c0 -5 -5 -10 -11
-10 -5 0 -7 5 -4 10 3 6 8 10 11 10 2 0 4 -4 4 -10z m-1752 -54 c9 3 6 -1 -8
-8 -14 -7 -28 -16 -31 -21 -7 -10 -21 18 -25 51 l-3 24 25 -26 c15 -14 33 -23
42 -20z m912 34 c0 -5 -4 -10 -9 -10 -6 0 -13 5 -16 10 -3 6 1 10 9 10 9 0 16
-4 16 -10z m-594 -57 c-10 -10 -19 5 -10 18 6 11 8 11 12 0 2 -7 1 -15 -2 -18z
m234 6 c0 -5 -4 -9 -10 -9 -5 0 -10 7 -10 16 0 8 5 12 10 9 6 -3 10 -10 10
-16z m-1199 1 c41 -22 11 -78 -36 -66 -19 5 -25 13 -25 35 0 42 20 52 61 31z
m699 -40 c0 -5 -4 -10 -9 -10 -6 0 -13 5 -16 10 -3 6 1 10 9 10 9 0 16 -4 16
-10z m950 0 c0 -5 -2 -10 -4 -10 -3 0 -8 5 -11 10 -3 6 -1 10 4 10 6 0 11 -4
11 -10z m80 -3 c0 -7 -14 -26 -30 -42 -26 -25 -28 -30 -14 -38 10 -6 21 -4 33
7 23 21 32 20 24 0 -5 -14 -2 -16 23 -10 23 5 25 4 12 -4 -9 -6 -15 -17 -12
-25 4 -9 0 -15 -9 -15 -8 0 -17 6 -20 14 -7 17 -56 12 -97 -9 -33 -17 -41 -7
-10 13 11 7 20 17 20 23 0 6 14 27 30 46 17 18 30 38 30 43 0 6 5 10 10 10 6
0 10 -6 10 -13z m-657 -28 c-7 -25 -43 -25 -43 -1 0 25 7 31 29 25 13 -3 17
-11 14 -24z m719 9 c-7 -7 -12 -8 -12 -2 0 14 12 26 19 19 2 -3 -1 -11 -7 -17z
m1258 6 c0 -8 -5 -12 -10 -9 -6 4 -8 11 -5 16 9 14 15 11 15 -7z m-1145 -13
c-3 -6 -11 -11 -17 -11 -6 0 -6 6 2 15 14 17 26 13 15 -4z m-225 -1 c0 -5 -4
-10 -10 -10 -5 0 -10 5 -10 10 0 6 5 10 10 10 6 0 10 -4 10 -10z m-920 -10 c0
-5 -5 -10 -11 -10 -5 0 -7 5 -4 10 3 6 8 10 11 10 2 0 4 -4 4 -10z m1553 -20
c3 -11 1 -20 -4 -20 -5 0 -9 2 -9 4 0 2 -3 11 -6 20 -3 9 -2 16 4 16 5 0 12
-9 15 -20z m397 5 c0 -8 -4 -15 -10 -15 -5 0 -10 7 -10 15 0 8 5 15 10 15 6 0
10 -7 10 -15z m4890 5 c0 -5 -4 -10 -10 -10 -5 0 -10 5 -10 10 0 6 5 10 10 10
6 0 10 -4 10 -10z m-5440 -20 c0 -5 -4 -10 -10 -10 -5 0 -10 5 -10 10 0 6 5
10 10 10 6 0 10 -4 10 -10z m-107 -12 c-4 -7 -8 -20 -9 -28 -1 -8 -2 -25 -3
-37 -1 -27 -34 -31 -57 -8 -14 13 -12 17 15 33 17 9 34 25 37 35 3 9 10 17 15
17 6 0 7 -5 2 -12z m-2058 -18 c3 -5 1 -10 -4 -10 -6 0 -11 5 -11 10 0 6 2 10
4 10 3 0 8 -4 11 -10z m575 6 c0 -3 -4 -8 -10 -11 -5 -3 -10 -1 -10 4 0 6 5
11 10 11 6 0 10 -2 10 -4z m1880 -16 c0 -5 -4 -10 -10 -10 -5 0 -10 5 -10 10
0 6 5 10 10 10 6 0 10 -4 10 -10z m-1710 -30 c0 -5 -4 -10 -10 -10 -5 0 -10 5
-10 10 0 6 5 10 10 10 6 0 10 -4 10 -10z m790 -15 c0 -8 -4 -15 -10 -15 -5 0
-10 7 -10 15 0 8 5 15 10 15 6 0 10 -7 10 -15z m6180 -10 c0 -8 -7 -15 -15
-15 -8 0 -15 7 -15 15 0 8 7 15 15 15 8 0 15 -7 15 -15z m-4480 -5 c0 -5 -4
-10 -10 -10 -5 0 -10 5 -10 10 0 6 5 10 10 10 6 0 10 -4 10 -10z m-2300 -20
c0 -5 -4 -10 -10 -10 -5 0 -10 5 -10 10 0 6 5 10 10 10 6 0 10 -4 10 -10z
m697 -17 c3 -7 0 -20 -7 -28 -13 -16 -35 -21 -26 -6 4 5 -3 7 -14 4 -15 -4
-20 0 -20 14 0 10 5 24 11 30 13 13 49 5 56 -14z m296 10 c-3 -7 -11 -13 -19
-13 -8 0 -14 6 -14 13 0 7 8 13 19 13 11 0 17 -5 14 -13z m455 -15 c-6 -18
-28 -21 -28 -4 0 9 7 16 16 16 9 0 14 -5 12 -12z m-1438 -8 c0 -5 -4 -10 -10
-10 -5 0 -10 5 -10 10 0 6 5 10 10 10 6 0 10 -4 10 -10z m-780 -9 c0 -6 -4
-13 -10 -16 -5 -3 -10 1 -10 9 0 9 5 16 10 16 6 0 10 -4 10 -9z m3660 -1 c0
-5 -4 -10 -10 -10 -5 0 -10 5 -10 10 0 6 5 10 10 10 6 0 10 -4 10 -10z m-1877
-15 c27 -12 20 -22 -13 -17 -16 2 -30 10 -30 17 0 14 12 14 43 0z m577 -5 c0
-5 -4 -10 -10 -10 -5 0 -10 5 -10 10 0 6 5 10 10 10 6 0 10 -4 10 -10z m-2170
-10 c0 -5 -7 -10 -16 -10 -8 0 -12 5 -9 10 3 6 10 10 16 10 5 0 9 -4 9 -10z
m6690 -16 c0 -8 -5 -12 -10 -9 -6 4 -8 11 -5 16 9 14 15 11 15 -7z m-6140 -4
c0 -5 -2 -10 -4 -10 -3 0 -8 5 -11 10 -3 6 -1 10 4 10 6 0 11 -4 11 -10z
m1870 -10 c0 -5 -4 -10 -10 -10 -5 0 -10 5 -10 10 0 6 5 10 10 10 6 0 10 -4
10 -10z m-804 -11 c7 -13 -15 -59 -29 -59 -5 0 -6 8 -2 18 4 9 7 25 7 35 -1
19 13 23 24 6z m5294 -29 c0 -5 -5 -10 -11 -10 -5 0 -7 5 -4 10 3 6 8 10 11
10 2 0 4 -4 4 -10z m370 -10 c0 -5 -2 -10 -4 -10 -3 0 -8 5 -11 10 -3 6 -1 10
4 10 6 0 11 -4 11 -10z m-6180 -10 c0 -5 -4 -10 -10 -10 -5 0 -10 5 -10 10 0
6 5 10 10 10 6 0 10 -4 10 -10z m6 -26 c-17 -12 -18 -14 -3 -14 18 0 23 -15 8
-25 -6 -3 -14 3 -20 12 -7 13 -5 23 6 36 9 9 19 14 22 11 3 -3 -3 -12 -13 -20z
m468 -8 c-7 -19 -34 -29 -34 -12 0 16 10 26 26 26 8 0 11 -6 8 -14z m526 4 c0
-5 -4 -10 -10 -10 -5 0 -10 5 -10 10 0 6 5 10 10 10 6 0 10 -4 10 -10z m1270
-13 c0 -14 -39 -41 -47 -33 -3 3 2 8 11 12 9 3 16 12 16 20 0 8 5 14 10 14 6
0 10 -6 10 -13z m3360 -7 c0 -5 -5 -10 -11 -10 -5 0 -7 5 -4 10 3 6 8 10 11
10 2 0 4 -4 4 -10z m-6440 -50 c0 -5 -4 -10 -10 -10 -5 0 -10 5 -10 10 0 6 5
10 10 10 6 0 10 -4 10 -10z m190 -40 c0 -5 -4 -10 -10 -10 -5 0 -10 5 -10 10
0 6 5 10 10 10 6 0 10 -4 10 -10z m1930 0 c0 -5 -4 -10 -10 -10 -5 0 -10 5
-10 10 0 6 5 10 10 10 6 0 10 -4 10 -10z m-2770 -10 c0 -5 -7 -10 -15 -10 -8
0 -15 5 -15 10 0 6 7 10 15 10 8 0 15 -4 15 -10z m365 0 c3 -5 1 -10 -4 -10
-6 0 -11 5 -11 10 0 6 2 10 4 10 3 0 8 -4 11 -10z m2345 -20 c0 -13 -7 -20
-20 -20 -22 0 -28 25 -7 33 22 10 27 7 27 -13z m-2160 -65 c0 -8 -7 -15 -15
-15 -8 0 -15 7 -15 15 0 8 7 15 15 15 8 0 15 -7 15 -15z m3484 -51 c9 -33 -9
-54 -44 -54 -36 0 -56 40 -32 64 9 9 28 16 43 16 21 0 28 -6 33 -26z m-2054 6
c0 -5 -4 -10 -10 -10 -5 0 -10 5 -10 10 0 6 5 10 10 10 6 0 10 -4 10 -10z
m-1080 -10 c0 -5 -4 -10 -10 -10 -5 0 -10 5 -10 10 0 6 5 10 10 10 6 0 10 -4
10 -10z m1120 0 c0 -5 -4 -10 -10 -10 -5 0 -10 5 -10 10 0 6 5 10 10 10 6 0
10 -4 10 -10z m888 -1 c-2 -6 -8 -10 -13 -10 -5 0 -11 4 -13 10 -2 6 4 11 13
11 9 0 15 -5 13 -11z m-1783 -19 c-3 -5 -10 -10 -16 -10 -5 0 -9 5 -9 10 0 6
7 10 16 10 8 0 12 -4 9 -10z m-225 -20 c0 -5 -5 -10 -11 -10 -5 0 -7 5 -4 10
3 6 8 10 11 10 2 0 4 -4 4 -10z m2010 -20 c0 -5 -4 -10 -10 -10 -5 0 -10 5
-10 10 0 6 5 10 10 10 6 0 10 -4 10 -10z m-282 -22 c28 -28 1 -75 -38 -63 -25
8 -27 50 -2 64 22 13 26 13 40 -1z m432 -23 c0 -8 -4 -15 -9 -15 -13 0 -22 16
-14 24 11 11 23 6 23 -9z m-230 -20 c0 -8 -4 -15 -9 -15 -13 0 -22 16 -14 24
11 11 23 6 23 -9z m765 -5 c3 -5 1 -10 -4 -10 -6 0 -11 5 -11 10 0 6 2 10 4
10 3 0 8 -4 11 -10z m-1621 -15 c-22 -17 -34 -19 -34 -6 0 5 8 12 18 14 32 9
36 7 16 -8z m1986 -45 c0 -13 -5 -18 -15 -14 -8 4 -15 12 -15 20 0 8 7 14 15
14 8 0 15 -9 15 -20z m-2480 -15 c0 -8 -4 -15 -10 -15 -5 0 -10 7 -10 15 0 8
5 15 10 15 6 0 10 -7 10 -15z m1715 5 c3 -5 1 -10 -4 -10 -6 0 -11 5 -11 10 0
6 2 10 4 10 3 0 8 -4 11 -10z m-825 -65 c0 -8 -4 -15 -10 -15 -5 0 -10 7 -10
15 0 8 5 15 10 15 6 0 10 -7 10 -15z m-2460 -25 c0 -5 -4 -10 -10 -10 -5 0
-10 5 -10 10 0 6 5 10 10 10 6 0 10 -4 10 -10z m2410 0 c0 -5 -5 -10 -11 -10
-5 0 -7 5 -4 10 3 6 8 10 11 10 2 0 4 -4 4 -10z m-283 -36 c-9 -9 -28 6 -21
18 4 6 10 6 17 -1 6 -6 8 -13 4 -17z m-1257 -4 c0 -5 -4 -10 -10 -10 -5 0 -10
5 -10 10 0 6 5 10 10 10 6 0 10 -4 10 -10z m410 0 c0 -5 -4 -10 -10 -10 -5 0
-10 5 -10 10 0 6 5 10 10 10 6 0 10 -4 10 -10z m606 2 c6 -4 13 -17 16 -29 4
-16 0 -22 -18 -26 -28 -5 -34 0 -34 28 0 32 14 42 36 27z m-1946 -17 c0 -8 -4
-15 -10 -15 -5 0 -10 7 -10 15 0 8 5 15 10 15 6 0 10 -7 10 -15z m830 8 c-1
-19 -19 -35 -34 -30 -26 10 -19 37 9 37 14 0 25 -3 25 -7z m540 -3 c0 -5 -2
-10 -4 -10 -3 0 -8 5 -11 10 -3 6 -1 10 4 10 6 0 11 -4 11 -10z m240 -6 c0 -8
-5 -12 -10 -9 -6 4 -8 11 -5 16 9 14 15 11 15 -7z m-905 -4 c3 -5 1 -10 -4
-10 -6 0 -11 5 -11 10 0 6 2 10 4 10 3 0 8 -4 11 -10z m8765 0 c0 -5 9 -10 19
-10 11 0 28 -11 39 -25 11 -14 27 -25 35 -25 18 0 34 -19 64 -77 17 -35 23
-63 23 -114 0 -61 -3 -70 -26 -88 -14 -11 -23 -24 -20 -29 6 -10 -45 -59 -81
-79 -28 -16 -273 -18 -273 -3 0 6 -7 10 -16 10 -20 0 -94 74 -94 94 0 7 -7 19
-15 26 -8 7 -12 16 -9 21 3 5 -2 12 -10 15 -23 9 -23 109 0 118 12 5 15 14 10
40 -5 24 -2 37 9 46 8 7 15 17 15 22 0 5 10 23 23 38 l22 29 143 0 c88 1 142
-3 142 -9z m-7200 -22 c8 -13 13 -27 11 -33 -2 -5 -4 -21 -6 -34 -3 -27 -47
-71 -70 -71 -9 0 -19 -10 -24 -22 -6 -16 -10 -18 -16 -8 -5 8 -2 16 9 22 30
17 76 67 76 83 0 9 -7 18 -15 21 -17 7 -21 34 -5 34 6 0 9 3 9 8 -2 13 1 22 9
22 4 0 14 -10 22 -22z m-1070 -4 c0 -8 -5 -12 -10 -9 -6 4 -8 11 -5 16 9 14
15 11 15 -7z m1130 6 c0 -5 -4 -10 -10 -10 -5 0 -10 5 -10 10 0 6 5 10 10 10
6 0 10 -4 10 -10z m-1720 -10 c0 -5 -4 -10 -10 -10 -5 0 -10 5 -10 10 0 6 5
10 10 10 6 0 10 -4 10 -10z m3190 -10 c0 -5 -5 -10 -11 -10 -5 0 -7 5 -4 10 3
6 8 10 11 10 2 0 4 -4 4 -10z m-3520 -14 c0 -3 -4 -8 -10 -11 -5 -3 -10 -1
-10 4 0 6 5 11 10 11 6 0 10 -2 10 -4z m1150 -26 c0 -5 -5 -10 -11 -10 -5 0
-7 5 -4 10 3 6 8 10 11 10 2 0 4 -4 4 -10z m530 -5 c0 -8 -4 -15 -10 -15 -5 0
-7 -7 -4 -15 11 -28 -5 -82 -26 -88 -11 -3 -20 -12 -20 -21 0 -23 -15 -20 -32
6 -13 19 -18 21 -30 10 -13 -10 -17 -10 -21 2 -4 9 -2 18 2 20 9 6 7 49 -4 66
-9 14 62 43 92 37 13 -2 23 0 23 4 0 5 7 9 15 9 8 0 15 -7 15 -15z m7140 -9
c0 -3 -4 -8 -10 -11 -5 -3 -10 -1 -10 4 0 6 5 11 10 11 6 0 10 -2 10 -4z
m-8690 -16 c0 -5 -4 -10 -10 -10 -5 0 -10 5 -10 10 0 6 5 10 10 10 6 0 10 -4
10 -10z m163 -54 c4 -10 1 -13 -9 -9 -15 6 -19 23 -5 23 5 0 11 -7 14 -14z
m2257 4 c0 -5 -2 -10 -4 -10 -3 0 -8 5 -11 10 -3 6 -1 10 4 10 6 0 11 -4 11
-10z m6250 1 c0 -6 -4 -13 -10 -16 -5 -3 -10 1 -10 9 0 9 5 16 10 16 6 0 10
-4 10 -9z m-6990 -21 c0 -5 -7 -10 -15 -10 -8 0 -15 5 -15 10 0 6 7 10 15 10
8 0 15 -4 15 -10z m730 -14 c0 -21 -20 -30 -33 -17 -9 9 -8 14 3 21 21 14 30
12 30 -4z m1310 10 c0 -3 -4 -8 -10 -11 -5 -3 -10 -1 -10 4 0 6 5 11 10 11 6
0 10 -2 10 -4z m-3684 -33 c-10 -10 -19 5 -10 18 6 11 8 11 12 0 2 -7 1 -15
-2 -18z m1354 17 c0 -5 -5 -10 -11 -10 -5 0 -7 5 -4 10 3 6 8 10 11 10 2 0 4
-4 4 -10z m-1810 -40 c0 -11 -7 -20 -15 -20 -8 0 -15 2 -15 4 0 2 -3 11 -6 20
-4 12 0 16 15 16 14 0 21 -6 21 -20z m3400 10 c0 -5 -7 -10 -15 -10 -8 0 -15
5 -15 10 0 6 7 10 15 10 8 0 15 -4 15 -10z m-3037 -6 c9 -10 -4 -34 -19 -34
-8 0 -14 9 -14 20 0 19 19 27 33 14z m289 -37 c-18 -17 -22 -18 -16 -4 3 9 11
17 16 17 6 0 7 8 3 18 -5 14 -4 15 7 4 10 -10 8 -17 -10 -35z m2358 33 c0 -5
-4 -10 -10 -10 -5 0 -10 5 -10 10 0 6 5 10 10 10 6 0 10 -4 10 -10z m-2720
-20 c0 -5 -5 -10 -11 -10 -5 0 -7 5 -4 10 3 6 8 10 11 10 2 0 4 -4 4 -10z
m1870 -10 c0 -4 -11 -7 -25 -7 -20 0 -23 2 -14 13 10 13 39 9 39 -6z m-1030
-14 c0 -8 6 -16 13 -19 10 -4 10 -7 0 -18 -11 -11 -13 -10 -13 4 0 9 -4 17
-10 17 -5 0 -10 7 -10 15 0 8 5 15 10 15 6 0 10 -6 10 -14z m3220 4 c0 -5 -4
-10 -10 -10 -5 0 -10 5 -10 10 0 6 5 10 10 10 6 0 10 -4 10 -10z m-3505 -10
c3 -5 1 -10 -4 -10 -6 0 -11 5 -11 10 0 6 2 10 4 10 3 0 8 -4 11 -10z m865
-40 c0 -5 -5 -10 -11 -10 -5 0 -7 5 -4 10 3 6 8 10 11 10 2 0 4 -4 4 -10z
m2380 -5 c0 -8 -4 -15 -10 -15 -5 0 -10 7 -10 15 0 8 5 15 10 15 6 0 10 -7 10
-15z m-220 -15 c0 -5 -4 -10 -10 -10 -5 0 -10 5 -10 10 0 6 5 10 10 10 6 0 10
-4 10 -10z m-3520 -48 c0 -13 -12 -22 -22 -16 -10 6 -1 24 13 24 5 0 9 -4 9
-8z m1620 -1 c0 -12 -20 -25 -27 -18 -7 7 6 27 18 27 5 0 9 -4 9 -9z m-1350
-181 c0 -5 -4 -10 -10 -10 -5 0 -10 5 -10 10 0 6 5 10 10 10 6 0 10 -4 10 -10z
m130 -42 c0 -7 -11 -13 -25 -13 -23 0 -24 1 -8 13 9 6 20 12 25 12 4 0 8 -6 8
-12z m-390 -8 c0 -5 -5 -10 -11 -10 -5 0 -7 5 -4 10 3 6 8 10 11 10 2 0 4 -4
4 -10z m260 -20 c0 -5 -9 -10 -20 -10 -11 0 -20 5 -20 10 0 6 9 10 20 10 11 0
20 -4 20 -10z m57 -6 c-3 -3 -12 -4 -19 -1 -8 3 -5 6 6 6 11 1 17 -2 13 -5z
m8523 -1239 c-7 -9 -10 -18 -6 -22 10 -10 61 12 59 25 -2 7 9 12 25 12 15 0
22 -4 16 -8 -6 -4 -19 -22 -28 -39 -19 -38 -23 -39 -56 -13 -14 11 -35 20 -46
20 -12 0 -27 6 -34 14 -6 8 -21 17 -33 19 -12 2 9 5 47 6 60 1 67 -1 56 -14z
m-6269 -11 c8 -10 21 -13 36 -9 16 4 25 1 30 -10 3 -9 11 -14 18 -11 15 5 58
-37 48 -47 -3 -4 2 -13 12 -21 10 -7 15 -18 11 -24 -3 -6 0 -14 8 -19 18 -10
25 -118 8 -135 -7 -7 -12 -16 -12 -22 0 -17 -32 -46 -52 -46 -10 0 -18 -4 -18
-10 0 -5 -13 -10 -29 -10 -16 0 -34 -7 -41 -15 -9 -11 -32 -15 -80 -15 -51 0
-69 4 -74 15 -3 8 -12 15 -21 15 -26 0 -95 75 -95 104 0 14 -4 26 -10 26 -6 0
-10 32 -10 75 l0 74 43 40 c31 30 48 39 64 34 15 -3 25 0 29 11 9 22 116 23
135 0z m6079 -9 c0 -18 -5 -25 -20 -25 -20 0 -28 28 -13 43 15 16 33 6 33 -18z
m512 -12 c-1 -11 4 -26 13 -33 8 -7 15 -23 15 -36 0 -13 9 -39 20 -59 11 -20
20 -45 20 -57 0 -11 8 -26 17 -33 15 -11 15 -14 -5 -31 l-21 -18 29 -13 c22
-9 30 -19 30 -37 0 -14 5 -28 10 -31 6 -3 10 -15 10 -26 0 -10 5 -19 10 -19 6
0 10 -13 10 -29 0 -16 6 -34 14 -41 8 -6 12 -18 9 -26 -3 -8 2 -23 12 -34 10
-12 15 -28 12 -40 -3 -13 0 -23 9 -27 8 -3 14 -13 14 -23 0 -11 5 -22 10 -25
6 -3 10 -19 10 -36 0 -16 5 -29 10 -29 6 0 10 -13 10 -29 0 -16 7 -34 15 -41
8 -7 15 -23 15 -36 0 -12 5 -26 10 -29 6 -3 10 -15 10 -26 0 -10 5 -19 10 -19
6 0 10 -13 10 -29 0 -17 5 -33 10 -36 6 -3 10 -17 10 -29 0 -13 7 -29 15 -36
9 -7 13 -21 10 -30 -3 -10 1 -25 10 -33 8 -9 15 -23 15 -31 0 -9 5 -16 10 -16
6 0 10 -13 10 -29 0 -17 5 -33 10 -36 6 -3 10 -19 10 -36 0 -16 5 -29 10 -29
6 0 10 -15 10 -34 0 -21 6 -36 16 -40 8 -3 13 -10 10 -15 -3 -5 1 -14 9 -21 8
-7 15 -25 15 -41 0 -16 5 -29 10 -29 6 0 10 -19 10 -42 -1 -39 -2 -41 -15 -24
-7 10 -19 15 -24 11 -6 -3 -14 1 -17 10 -4 10 -13 13 -24 10 -10 -3 -22 0 -27
7 -12 19 -49 38 -75 39 -13 0 -36 9 -53 19 -52 32 -128 70 -142 70 -7 0 -13 5
-13 10 0 6 -9 10 -19 10 -11 0 -21 4 -23 8 -1 5 -39 26 -83 47 -44 21 -88 45
-97 53 -10 8 -27 12 -38 9 -13 -3 -23 0 -27 9 -3 8 -11 14 -19 14 -10 0 -11 6
-4 25 6 17 5 34 -5 57 -14 33 -20 29 -27 -17 -5 -31 -50 -31 -100 2 -24 15
-45 28 -48 28 -37 9 -60 19 -60 26 0 5 -9 9 -20 9 -12 0 -20 7 -20 16 0 11 -6
15 -20 11 -11 -3 -23 -1 -26 4 -3 5 4 9 14 9 11 0 22 7 26 15 4 11 -1 15 -19
15 -14 0 -25 -4 -25 -10 0 -5 -13 -10 -29 -10 -17 0 -33 5 -36 10 -3 6 -15 10
-25 10 -10 0 -20 5 -22 12 -7 19 -38 0 -38 -23 0 -12 11 -30 25 -41 14 -11 25
-26 25 -34 0 -9 14 -27 30 -41 17 -13 30 -32 30 -41 0 -10 16 -30 35 -45 21
-17 35 -37 35 -50 0 -12 9 -28 20 -35 11 -7 20 -19 20 -28 0 -9 16 -30 35 -47
19 -17 35 -39 35 -49 0 -10 5 -18 10 -18 6 0 10 -9 10 -20 0 -27 -15 -25 -56
6 l-34 27 -23 -25 c-13 -14 -30 -27 -38 -30 -11 -4 -12 -9 -2 -29 6 -13 14
-32 17 -41 3 -12 11 -15 22 -11 11 4 22 -1 30 -12 20 -27 17 -38 -6 -32 -11 3
-20 1 -20 -3 0 -5 -3 -15 -6 -23 -4 -12 3 -15 36 -13 53 3 69 -14 45 -50 -9
-14 -14 -29 -10 -32 4 -4 11 1 16 11 12 21 39 23 39 2 0 -20 29 -19 37 1 3 8
1 20 -6 27 -6 6 -11 20 -12 31 0 12 -3 15 -6 9 -2 -7 -11 -13 -19 -13 -17 0
-19 37 -1 43 9 3 9 9 1 24 -18 29 -10 85 12 94 28 11 36 10 29 -2 -4 -5 1 -19
11 -30 18 -20 18 -20 -10 -10 -35 14 -36 14 -36 -1 0 -22 14 -35 43 -42 21 -5
27 -3 27 10 0 13 3 14 15 4 8 -7 15 -18 15 -25 0 -7 11 -21 25 -31 14 -10 25
-26 25 -34 0 -9 5 -21 12 -28 13 -13 -5 -42 -27 -42 -7 0 -18 -7 -25 -15 -7
-8 -21 -15 -31 -15 -11 0 -19 -4 -19 -10 0 -5 -9 -10 -20 -10 -11 0 -20 -4
-20 -8 0 -10 -77 -52 -95 -52 -7 0 -16 -7 -19 -16 -3 -9 -13 -14 -21 -10 -8 3
-18 -2 -23 -10 -8 -14 -12 -14 -31 -3 -19 12 -24 12 -34 -2 -7 -9 -16 -17 -22
-18 -5 0 -10 -7 -10 -14 0 -6 -4 -18 -9 -26 -7 -11 -10 -11 -18 3 -8 14 -13
15 -24 5 -8 -6 -17 -9 -21 -5 -3 3 -15 -1 -25 -10 -14 -14 -20 -14 -33 -4 -19
16 -12 26 33 49 20 11 46 33 57 50 11 17 27 31 35 31 9 0 23 8 32 18 24 24 40
37 61 45 18 7 24 37 6 37 -6 0 -8 9 -4 20 5 14 2 20 -9 20 -18 0 -22 25 -6 35
13 8 13 45 -1 45 -5 0 -8 4 -5 9 3 5 -5 16 -18 25 -14 8 -27 25 -31 37 -5 16
-12 19 -32 14 -19 -4 -26 -1 -30 15 -6 24 -26 26 -43 5 -7 -9 -20 -15 -29 -13
-18 3 -108 -19 -133 -33 -11 -5 -28 -5 -44 1 l-27 10 29 25 c35 30 44 31 44 5
0 -24 28 -27 37 -4 3 8 12 13 19 10 24 -9 25 13 2 25 -13 7 -29 20 -36 31 -17
23 -42 23 -42 0 0 -11 -11 -24 -25 -30 -24 -11 -36 0 -15 13 6 3 10 15 10 26
0 10 5 19 10 19 17 0 11 17 -9 23 -36 9 -28 87 9 87 4 0 11 7 14 16 4 10 -5
26 -25 45 -17 16 -33 29 -34 29 -2 0 -5 -10 -7 -22 -2 -17 -10 -23 -27 -23
-32 0 -37 19 -11 43 17 15 19 25 12 39 -19 36 9 59 33 26 11 -15 13 -15 23 3
5 10 13 33 16 49 6 26 3 33 -24 48 -36 22 -44 55 -8 36 26 -14 95 -22 109 -13
6 3 -1 16 -16 29 -32 31 -33 55 0 55 34 0 22 29 -16 37 -37 7 -38 33 -1 34 15
0 21 3 15 6 -7 2 -13 13 -13 22 0 14 6 17 24 14 13 -3 27 0 30 6 4 6 16 11 26
11 13 0 20 8 22 27 2 22 9 28 32 30 16 1 35 -4 43 -12 12 -12 9 -18 -18 -45
-18 -16 -30 -32 -27 -35 9 -9 87 35 103 57 13 20 17 21 26 8 8 -11 12 -12 16
-2 2 6 10 12 16 12 6 0 28 16 49 36 l37 37 -30 28 c-40 37 -38 51 9 43 34 -5
39 -3 50 21 7 14 10 30 7 34 -2 4 5 17 15 29 22 23 29 55 8 34 -7 -7 -21 -12
-33 -12 -12 0 -26 -5 -33 -12 -9 -9 -12 -8 -12 4 0 8 9 22 19 29 11 8 22 25
26 38 6 20 4 23 -10 18 -9 -4 -21 -7 -26 -7 -6 0 -7 -5 -3 -11 9 -16 -18 -30
-33 -17 -18 14 -16 38 2 38 25 0 17 27 -10 34 -24 6 -36 36 -15 36 6 0 10 5
10 11 0 8 -4 8 -15 -1 -18 -15 -55 -4 -55 16 0 8 4 13 9 10 4 -3 8 11 7 31 -1
45 19 55 27 13 4 -19 15 -34 29 -39 13 -5 38 -23 57 -40 29 -26 36 -28 45 -16
6 8 27 21 46 30 19 8 43 20 53 25 9 6 25 14 35 19 9 5 16 16 16 25 -2 23 10
20 21 -6 14 -33 37 -28 47 8 8 33 41 60 126 105 12 7 22 16 22 21 0 17 -37 6
-70 -22 -19 -17 -40 -30 -46 -30 -7 0 -14 -6 -17 -12 -4 -10 -7 -10 -18 -1 -9
9 -16 9 -25 2 -10 -8 -20 -4 -39 17 -22 24 -33 54 -20 54 3 0 17 -7 30 -16 14
-9 30 -12 37 -8 9 6 5 10 -12 14 -35 8 -40 47 -7 59 19 8 23 15 20 35 -6 29
-13 32 -31 14 -6 -6 -14 -9 -18 -6 -8 9 33 48 51 48 8 0 15 -4 15 -9 0 -5 16
-12 36 -15 30 -6 34 -10 28 -28 -7 -25 14 -21 30 5 8 13 7 20 -4 27 -22 14 3
28 44 25 24 -2 30 -7 28 -22z m-712 -3 c0 -5 -2 -10 -4 -10 -3 0 -8 5 -11 10
-3 6 -1 10 4 10 6 0 11 -4 11 -10z m90 -58 c0 -5 18 -16 40 -26 22 -10 40 -22
40 -27 0 -5 5 -9 12 -9 6 0 19 -7 28 -15 16 -14 18 -13 23 15 5 24 12 30 31
30 17 0 24 4 20 13 -6 17 31 51 46 42 8 -5 8 -11 -1 -21 -6 -8 -9 -23 -6 -34
4 -17 2 -20 -14 -15 -15 5 -19 1 -19 -14 0 -25 33 -61 56 -61 27 0 13 -53 -16
-60 l-25 -6 23 -13 c22 -12 22 -14 8 -30 -9 -10 -14 -25 -10 -35 8 -21 -19
-22 -36 -1 -10 12 -10 18 -1 29 9 11 9 20 2 35 -7 13 -8 22 -1 26 5 3 10 13
10 21 0 11 -6 13 -20 9 -15 -5 -23 0 -31 19 -10 20 -17 24 -36 20 -17 -5 -28
-1 -38 12 -13 18 -14 18 -30 -1 -16 -20 -16 -20 -12 2 3 15 1 20 -8 17 -7 -3
-21 9 -32 26 -15 26 -23 31 -45 26 -32 -6 -34 -4 -12 29 13 20 20 23 35 14 10
-5 19 -13 19 -17z m65 -132 c3 -5 1 -10 -4 -10 -6 0 -11 5 -11 10 0 6 2 10 4
10 3 0 8 -4 11 -10z m260 -31 c8 -11 -25 -40 -37 -33 -8 5 13 44 24 44 4 0 10
-5 13 -11z m-147 -58 c2 -11 0 -21 -4 -21 -13 0 -44 33 -44 46 0 22 45 -1 48
-25z m-983 -141 c3 -5 1 -10 -4 -10 -6 0 -11 5 -11 10 0 6 2 10 4 10 3 0 8 -4
11 -10z m97 -7 c22 -20 24 -53 3 -53 -8 0 -15 7 -15 16 0 11 -6 14 -20 9 -23
-7 -28 13 -8 33 15 15 18 15 40 -5z m516 -112 c3 -8 -1 -12 -9 -9 -7 2 -15 10
-17 17 -3 8 1 12 9 9 7 -2 15 -10 17 -17z m37 -50 c7 -12 -12 -24 -25 -16 -11
7 -4 25 10 25 5 0 11 -4 15 -9z m264 -52 c-19 -12 -24 -2 -8 17 9 11 14 13 17
4 3 -7 -2 -16 -9 -21z m-267 -4 c0 -5 -5 -11 -11 -13 -6 -2 -11 4 -11 13 0 9
5 15 11 13 6 -2 11 -8 11 -13z m88 -19 c0 -8 -4 -17 -9 -21 -12 -7 -24 12 -16
25 9 15 25 12 25 -4z m230 4 c0 -5 -4 -10 -10 -10 -5 0 -10 5 -10 10 0 6 5 10
10 10 6 0 10 -4 10 -10z m-512 -22 c-6 -18 -28 -21 -28 -4 0 9 7 16 16 16 9 0
14 -5 12 -12z m477 3 c3 -5 -2 -17 -11 -26 -15 -15 -18 -15 -35 1 -15 14 -17
19 -7 26 17 11 46 10 53 -1z m-255 -56 c-7 -8 -19 -15 -27 -15 -13 0 -13 3 -3
15 7 8 19 15 27 15 13 0 13 -3 3 -15z m-104 -92 c-10 -10 -19 5 -10 18 6 11 8
11 12 0 2 -7 1 -15 -2 -18z m-4422 -94 c-8 -13 -24 -1 -24 18 0 13 3 13 15 3
8 -7 12 -16 9 -21z m4148 -4 c11 -24 12 -37 5 -42 -6 -4 -13 -1 -15 5 -2 7 -9
12 -15 12 -28 1 -39 17 -28 39 17 31 35 26 53 -14z m-4996 0 c4 -9 14 -13 28
-10 15 4 33 -6 64 -35 42 -40 42 -41 42 -112 0 -77 -12 -97 -58 -98 -13 0 -30
-7 -38 -15 -20 -20 -80 -20 -88 0 -3 8 -9 15 -13 14 -22 -4 -33 3 -33 21 0 11
-4 20 -10 20 -5 0 -10 24 -10 54 0 49 3 56 35 83 19 17 35 35 35 42 0 15 23
51 33 51 4 0 10 -7 13 -15z m647 -15 c16 0 44 -12 63 -27 26 -20 38 -23 46
-15 7 7 20 12 29 12 10 0 19 6 22 13 2 6 8 9 12 5 10 -10 -24 -48 -42 -48 -9
0 -13 -7 -11 -17 2 -10 9 -17 15 -16 17 4 26 -36 12 -53 -6 -8 -8 -18 -4 -22
4 -4 10 -1 12 6 9 25 23 11 23 -23 0 -24 5 -35 15 -35 8 0 15 -4 15 -10 0 -5
-6 -10 -14 -10 -8 0 -18 5 -21 10 -8 14 -41 13 -65 -2 -15 -10 -22 -10 -32 0
-9 9 -6 12 15 12 17 0 27 5 27 15 0 23 -24 18 -55 -11 -24 -23 -58 -27 -54 -7
1 4 -1 16 -6 26 -6 14 -10 15 -21 6 -18 -15 -18 -38 1 -45 8 -4 15 -16 15 -29
0 -13 7 -25 15 -29 8 -3 15 -15 15 -26 0 -11 7 -23 15 -26 10 -4 13 -13 10
-25 -5 -14 -1 -19 14 -19 26 0 34 -15 21 -40 -9 -16 -8 -20 5 -20 9 0 18 7 21
15 9 23 24 18 24 -7 1 -21 2 -22 14 -6 11 15 18 16 49 6 29 -9 42 -8 62 2 19
10 28 11 36 3 9 -9 4 -18 -16 -37 -34 -31 -40 -32 -62 -6 -19 21 -48 26 -58
10 -3 -5 5 -15 19 -22 14 -6 26 -15 26 -19 0 -15 -22 -21 -33 -10 -19 19 -38
12 -73 -25 -19 -19 -34 -38 -34 -41 0 -3 16 -2 35 1 28 6 35 4 35 -9 0 -8 12
-29 27 -45 26 -30 47 -38 57 -21 7 10 -29 82 -46 93 -8 5 -1 8 19 8 17 0 35 5
38 10 3 6 15 10 27 10 17 0 18 -2 8 -15 -7 -8 -19 -15 -26 -15 -8 0 -14 -4
-14 -10 0 -15 36 -12 50 5 10 12 16 13 26 4 12 -10 10 -16 -11 -36 -26 -27
-25 -46 2 -36 12 5 11 1 -4 -14 -11 -11 -23 -27 -26 -34 -4 -11 -8 -10 -19 5
-10 13 -17 15 -22 8 -4 -6 -13 -9 -20 -6 -7 3 -25 -11 -40 -31 -15 -19 -35
-35 -46 -35 -29 0 -50 -11 -50 -26 0 -17 12 -18 28 -2 19 19 15 -22 -5 -44
-15 -17 -15 -18 8 -18 14 0 30 5 37 12 6 6 15 9 19 5 11 -12 -28 -34 -53 -29
-20 4 -24 0 -24 -22 0 -21 -5 -26 -25 -26 -25 0 -33 -14 -15 -25 13 -8 1 -35
-16 -35 -15 0 -36 -33 -33 -53 1 -6 0 -23 -1 -37 -2 -18 -4 -20 -7 -7 -2 9 -8
17 -13 17 -5 0 -7 -7 -4 -15 3 -7 -6 -30 -21 -50 -27 -35 -50 -45 -57 -24 -2
7 -11 7 -28 0 -15 -6 -18 -10 -9 -10 17 -1 43 -47 34 -62 -4 -5 -12 -9 -18 -9
-7 0 -13 -9 -14 -20 -2 -24 10 -26 27 -5 9 11 16 13 24 5 7 -7 6 -14 -2 -22
-7 -7 -12 -20 -12 -29 0 -9 -7 -19 -15 -23 -8 -3 -15 -12 -15 -20 0 -20 -30
-29 -37 -11 -5 13 -7 13 -19 -2 -10 -14 -15 -16 -25 -5 -19 18 -36 15 -43 -10
-5 -22 -6 -22 -19 -4 -11 14 -16 16 -22 6 -4 -7 2 -22 18 -38 25 -24 27 -25
45 -9 23 21 52 22 52 2 0 -8 -6 -15 -14 -15 -8 0 -16 -7 -20 -15 -3 -8 -17
-15 -31 -15 -16 0 -25 6 -25 15 0 8 -8 15 -18 15 -10 0 -24 6 -31 13 -11 10
-14 10 -18 0 -3 -7 -16 -13 -29 -13 -15 0 -24 -6 -24 -15 0 -18 23 -19 50 -3
22 14 25 12 34 -19 5 -17 3 -23 -8 -23 -8 0 -19 -7 -24 -16 -6 -11 -11 -13
-16 -5 -10 16 -26 14 -26 -4 0 -17 -4 -18 -38 -8 -17 4 -22 11 -19 24 4 16 1
18 -20 13 -28 -7 -77 31 -69 53 3 7 1 13 -4 13 -6 0 -10 -6 -10 -14 0 -12 -4
-12 -27 -1 -16 8 -35 23 -43 35 -8 11 -22 20 -31 20 -22 0 -79 29 -79 41 0 5
7 12 15 15 17 7 75 59 75 68 0 12 -29 6 -37 -8 -10 -17 -69 -31 -77 -17 -4 5
3 13 15 16 27 9 61 43 54 54 -2 5 2 11 10 15 19 7 19 26 0 26 -17 0 -20 26 -5
35 6 4 8 15 5 24 -3 10 1 24 10 31 8 7 13 16 10 20 -3 4 2 13 10 20 8 7 15 18
15 25 0 8 12 23 26 34 14 11 23 25 19 31 -3 5 1 13 10 16 9 4 14 13 11 20 -5
14 19 70 35 79 5 4 7 10 4 15 -3 5 -1 11 5 15 5 3 19 26 30 51 11 24 29 50 40
57 11 6 20 17 20 24 0 7 9 28 20 48 11 20 20 42 20 51 0 8 7 17 15 20 8 4 15
15 15 25 0 10 5 19 10 19 6 0 10 6 10 13 0 17 28 75 40 82 14 9 110 199 110
219 0 6 9 17 19 23 20 13 51 67 51 90 0 7 5 13 10 13 6 0 18 18 27 39 16 37
18 38 37 25 11 -8 33 -14 49 -14z m4322 -40 c-3 -5 -10 -10 -16 -10 -5 0 -9 5
-9 10 0 6 7 10 16 10 8 0 12 -4 9 -10z m-4115 -30 c0 -5 -2 -10 -4 -10 -3 0
-8 5 -11 10 -3 6 -1 10 4 10 6 0 11 -4 11 -10z m1086 -17 c-7 -7 -26 7 -26 19
0 6 6 6 15 -2 9 -7 13 -15 11 -17z m-1030 7 c19 0 18 -26 -2 -34 -19 -7 -44
10 -44 31 0 10 6 13 16 9 9 -3 22 -6 30 -6z m24 -79 c-6 -12 -20 -21 -30 -21
-27 0 -25 7 8 35 29 25 40 19 22 -14z m-773 -33 c-3 -8 -6 -5 -6 6 -1 11 2 17
5 13 3 -3 4 -12 1 -19z m1773 7 c0 -8 -4 -15 -10 -15 -5 0 -10 7 -10 15 0 8 5
15 10 15 6 0 10 -7 10 -15z m-1018 -27 c-9 -9 -15 -9 -24 0 -9 9 -7 12 12 12
19 0 21 -3 12 -12z m78 -12 c0 -14 -34 -28 -44 -18 -5 4 21 23 42 31 1 1 2 -5
2 -13z m3950 -46 c-20 -12 -33 -1 -19 16 9 11 15 12 23 4 8 -8 7 -13 -4 -20z
m-3910 -12 c0 -5 -7 -3 -15 6 -8 8 -15 18 -15 22 0 3 7 1 15 -6 8 -7 15 -17
15 -22z m4111 9 c-13 -13 -26 -3 -16 12 3 6 11 8 17 5 6 -4 6 -10 -1 -17z
m-4241 4 c0 -11 -28 -41 -39 -41 -17 0 -18 13 -3 31 17 20 42 26 42 10z m50
-27 c13 -33 5 -47 -19 -34 -13 6 -17 17 -14 35 7 32 21 32 33 -1z m4050 -4 c0
-5 -2 -10 -4 -10 -3 0 -8 5 -11 10 -3 6 -1 10 4 10 6 0 11 -4 11 -10z m-3335
-10 c3 -5 1 -10 -4 -10 -6 0 -11 5 -11 10 0 6 2 10 4 10 3 0 8 -4 11 -10z
m3395 -20 c0 -12 -7 -20 -18 -20 -18 0 -45 -34 -35 -44 4 -3 19 -6 35 -6 15 0
28 -4 28 -10 0 -5 -5 -10 -11 -10 -8 0 -7 -5 2 -16 11 -13 8 -20 -22 -45 -33
-28 -34 -28 -43 -9 -7 15 -5 24 9 34 10 7 15 18 11 25 -6 9 -13 8 -27 -5 -18
-17 -19 -16 -19 19 0 28 6 40 25 53 14 9 25 25 25 35 0 12 7 19 20 19 13 0 20
-7 20 -20z m80 16 c0 -3 -4 -8 -10 -11 -5 -3 -10 -1 -10 4 0 6 5 11 10 11 6 0
10 -2 10 -4z m-4391 -27 c17 -6 31 -15 31 -20 0 -5 -2 -9 -3 -9 -8 0 -67 32
-67 36 0 6 3 5 39 -7z m131 -11 c0 -16 -3 -19 -11 -11 -6 6 -8 16 -5 22 11 17
16 13 16 -11z m4288 -22 c4 -21 -14 -37 -35 -29 -14 5 -18 35 -6 47 12 12 38
1 41 -18z m56 11 c17 -13 17 -14 1 -30 -20 -21 -36 -22 -29 -3 3 8 1 17 -5 21
-15 9 -14 25 2 25 7 0 21 -6 31 -13z m-3344 -17 c0 -5 -4 -10 -10 -10 -5 0
-10 5 -10 10 0 6 5 10 10 10 6 0 10 -4 10 -10z m150 -27 c0 -7 -9 -13 -20 -13
-15 0 -20 7 -20 25 0 23 2 24 20 13 11 -7 20 -18 20 -25z m-340 23 c0 -3 -4
-8 -10 -11 -5 -3 -10 -1 -10 4 0 6 5 11 10 11 6 0 10 -2 10 -4z m-785 -16 c4
-6 1 -18 -6 -26 -10 -13 -14 -12 -31 3 -18 17 -19 18 -1 24 26 11 31 10 38 -1z
m695 -21 c0 -6 7 -9 15 -6 18 7 30 -9 13 -17 -10 -5 -10 -7 0 -12 24 -11 12
-26 -15 -19 -26 6 -72 43 -73 58 0 4 14 7 30 7 17 0 30 -5 30 -11z m368 -11
c-6 -18 -28 -21 -28 -4 0 9 7 16 16 16 9 0 14 -5 12 -12z m3212 -3 c0 -8 -4
-15 -9 -15 -13 0 -22 16 -14 24 11 11 23 6 23 -9z m-3503 -27 c-3 -8 -6 -5 -6
6 -1 11 2 17 5 13 3 -3 4 -12 1 -19z m3556 -16 c-3 -12 -12 -22 -19 -22 -20 0
-17 27 3 39 22 12 24 10 16 -17z m-3503 8 c0 -5 -7 -10 -16 -10 -8 0 -12 5 -9
10 3 6 10 10 16 10 5 0 9 -4 9 -10z m-161 -48 c14 -10 13 -11 -4 -5 -24 8 -36
24 -28 37 4 6 9 4 11 -4 3 -8 12 -21 21 -28z m114 31 c9 -9 -22 -43 -40 -43
-17 0 -17 10 4 32 17 19 26 22 36 11z m167 -13 c0 -5 -9 -10 -20 -10 -11 0
-20 5 -20 10 0 6 9 10 20 10 11 0 20 -4 20 -10z m160 -2 c0 -6 7 -20 17 -30
21 -24 9 -36 -15 -15 -10 10 -24 17 -30 17 -7 0 -12 9 -12 20 0 13 7 20 20 20
11 0 20 -5 20 -12z m3080 -2 c0 -14 -29 -31 -38 -21 -6 6 18 35 29 35 5 0 9
-6 9 -14z m625 4 c3 -5 1 -10 -4 -10 -6 0 -11 5 -11 10 0 6 2 10 4 10 3 0 8
-4 11 -10z m-4672 -21 c10 -11 16 -23 13 -27 -9 -9 -56 20 -56 35 0 20 23 16
43 -8z m867 11 c0 -5 -2 -10 -4 -10 -3 0 -8 5 -11 10 -3 6 -1 10 4 10 6 0 11
-4 11 -10z m-36 -41 c-9 -16 -34 -119 -34 -145 0 -21 -3 -24 -26 -18 -22 6
-25 4 -22 -12 2 -11 12 -19 22 -19 26 0 31 -19 9 -40 -16 -17 -18 -16 -26 9
-5 14 -15 26 -23 26 -23 0 -16 24 17 58 21 22 29 37 24 51 -3 11 -1 22 5 26 5
3 10 15 10 25 0 10 5 31 10 45 9 23 13 25 25 15 8 -7 12 -16 9 -21z m-434 11
c0 -5 -4 -10 -10 -10 -5 0 -10 5 -10 10 0 6 5 10 10 10 6 0 10 -4 10 -10z
m3720 4 c0 -4 -11 -17 -25 -30 -28 -26 -33 -19 -9 14 14 21 34 30 34 16z
m-3183 -20 c2 -6 -5 -14 -17 -17 -27 -7 -25 -21 6 -36 17 -7 24 -17 20 -27 -3
-8 3 -25 15 -37 18 -20 19 -22 3 -26 -9 -1 -21 4 -26 13 -5 9 -18 16 -28 16
-13 0 -20 7 -20 20 0 11 -7 20 -15 20 -8 0 -15 -9 -15 -20 0 -11 7 -20 15 -20
9 0 15 -10 15 -26 0 -21 4 -24 20 -19 14 5 20 2 20 -9 0 -23 -25 -20 -56 7
-21 18 -27 33 -28 72 -2 42 2 55 23 78 25 28 61 33 68 11z m-957 -10 c0 -8 -4
-12 -10 -9 -5 3 -10 10 -10 16 0 5 5 9 10 9 6 0 10 -7 10 -16z m400 -7 c14
-12 32 -36 40 -52 l14 -30 4 30 c2 16 -1 31 -6 33 -12 4 23 42 38 42 13 0 13
-13 0 -26 -7 -7 -5 -24 8 -52 14 -32 21 -39 30 -30 7 7 12 18 12 25 0 22 27
26 54 8 31 -21 33 -35 6 -35 -13 0 -20 -7 -20 -20 0 -21 -15 -27 -25 -10 -3 5
-13 6 -22 3 -14 -5 -13 -9 7 -25 29 -23 20 -53 -12 -42 -34 11 -81 5 -91 -11
-4 -8 -14 -21 -22 -29 -17 -16 -20 -36 -6 -36 5 0 15 14 23 30 7 17 16 30 20
30 12 0 38 -62 31 -73 -11 -18 -14 -77 -4 -77 5 0 11 5 13 12 3 8 9 8 22 1 16
-9 12 -14 -32 -41 -48 -29 -53 -30 -79 -17 -23 12 -30 13 -38 2 -5 -8 -20 -19
-33 -26 -19 -10 -25 -9 -44 9 -19 17 -21 24 -10 40 7 11 12 27 12 35 0 8 9 15
19 15 18 0 37 27 26 38 -3 3 -16 -1 -30 -8 -21 -11 -28 -11 -38 -1 -9 11 -9
14 1 18 24 9 44 35 32 43 -7 5 -8 19 -1 48 5 25 5 44 0 48 -5 3 -10 0 -10 -5
-1 -6 -2 -16 -3 -21 -2 -22 -56 -41 -56 -20 0 6 6 10 14 10 20 0 31 19 17 33
-7 7 -2 16 19 29 17 10 30 22 30 28 0 5 7 10 15 10 18 0 20 17 3 23 -7 2 -10
7 -6 11 3 4 15 2 27 -5 30 -19 38 -3 12 25 -17 18 -19 25 -9 29 20 8 21 8 48
-16z m3650 8 c0 -8 -7 -15 -15 -15 -8 0 -15 7 -15 15 0 8 7 15 15 15 8 0 15
-7 15 -15z m-3440 -5 c0 -5 -6 -10 -14 -10 -8 0 -18 5 -21 10 -3 6 3 10 14 10
12 0 21 -4 21 -10z m440 -23 c0 -15 -3 -17 -14 -8 -11 9 -15 8 -20 -5 -5 -13
-10 -14 -18 -6 -8 8 -8 15 1 26 17 21 51 16 51 -7z m-510 3 c0 -5 -7 -10 -16
-10 -8 0 -12 5 -9 10 3 6 10 10 16 10 5 0 9 -4 9 -10z m87 -22 c-3 -8 -6 -5
-6 6 -1 11 2 17 5 13 3 -3 4 -12 1 -19z m137 -16 c3 -5 -7 -25 -21 -45 -20
-28 -29 -34 -39 -26 -19 15 -34 2 -34 -30 0 -36 -22 -66 -44 -58 -19 7 -46 -1
-46 -14 0 -5 8 -9 18 -9 26 0 34 -11 21 -27 -9 -10 -6 -21 12 -48 15 -22 25
-29 27 -21 3 15 52 36 81 36 10 0 7 -5 -9 -13 -14 -7 -35 -34 -48 -60 -26 -53
-58 -66 -47 -19 4 22 0 33 -25 57 -21 20 -30 38 -30 61 0 18 -4 34 -10 36 -6
2 -4 17 3 40 10 28 16 35 24 27 18 -18 43 -2 43 26 0 27 -9 32 -28 13 -6 -6
-15 -9 -19 -5 -13 13 31 37 58 31 18 -3 28 0 32 10 4 9 13 16 20 16 8 0 20 7
27 15 14 17 26 19 34 7z m258 -34 c-6 -6 -15 -7 -22 -3 -8 5 -6 12 7 25 15 14
19 15 21 2 2 -8 -1 -19 -6 -24z m-1052 -38 c0 -5 -2 -10 -4 -10 -3 0 -8 5 -11
10 -3 6 -1 10 4 10 6 0 11 -4 11 -10z m67 -7 c3 -10 14 -27 23 -38 18 -21 33
-65 21 -65 -4 0 -15 -13 -24 -30 -22 -37 -51 -41 -45 -7 4 18 -3 29 -29 47
-39 27 -41 41 -8 57 20 9 25 8 25 -2 0 -7 7 -18 15 -25 13 -11 18 -11 28 -1 9
10 7 16 -10 28 -13 9 -23 24 -23 34 0 24 19 25 27 2z m133 -3 c12 -7 12 -12
-4 -29 -23 -25 -35 -20 -28 14 5 27 9 29 32 15z m3962 5 c3 -3 3 -17 0 -30 -3
-20 -10 -25 -33 -25 -26 0 -29 4 -29 30 0 26 4 30 28 30 16 0 31 -2 34 -5z
m-4294 -81 c-32 -34 -33 -34 -52 -14 -17 16 -18 23 -8 45 7 15 20 25 32 25 11
0 20 6 20 13 1 6 9 1 20 -11 l20 -24 -32 -34z m4737 -4 c-3 -5 -11 -10 -16
-10 -6 0 -7 5 -4 10 3 6 11 10 16 10 6 0 7 -4 4 -10z m-4350 -10 c3 -5 -3 -10
-14 -10 -12 0 -21 5 -21 10 0 6 6 10 14 10 8 0 18 -4 21 -10z m-95 -18 c0 -3
-7 -14 -17 -24 -15 -17 -15 -18 0 -18 10 0 17 -8 17 -20 0 -11 6 -20 14 -20
13 0 26 -20 26 -41 0 -5 -9 -9 -20 -9 -12 0 -32 -11 -46 -25 -14 -14 -37 -27
-52 -31 -23 -5 -25 -4 -11 8 8 7 18 21 22 31 3 9 13 17 20 17 17 0 49 34 40
43 -3 4 -15 7 -25 7 -19 0 -24 15 -9 24 5 3 7 15 4 26 -8 28 4 51 22 44 8 -3
15 -9 15 -12z m628 6 c-2 -6 -10 -14 -16 -16 -7 -2 -10 2 -6 12 7 18 28 22 22
4z m325 -3 c18 -13 18 -14 -2 -24 -26 -14 -26 -15 -27 14 -2 28 3 30 29 10z
m-540 -25 c-5 -19 -23 -29 -23 -12 0 7 20 32 26 32 1 0 0 -9 -3 -20z m162 10
c-3 -5 -10 -10 -16 -10 -5 0 -9 5 -9 10 0 6 7 10 16 10 8 0 12 -4 9 -10z
m-493 -32 c-7 -7 -12 -8 -12 -2 0 14 12 26 19 19 2 -3 -1 -11 -7 -17z m-219
-65 c-32 -17 -33 -17 -33 7 0 27 31 43 46 22 10 -13 7 -18 -13 -29z m587 6 c0
-10 -6 -19 -13 -19 -22 0 -27 11 -16 32 12 22 29 15 29 -13z m246 17 c18 -14
18 -15 -11 -26 -16 -6 -45 -18 -63 -27 -45 -21 -48 -13 -10 30 36 39 54 44 84
23z m-756 -32 c0 -8 -9 -14 -20 -14 -22 0 -26 10 -8 28 13 13 28 7 28 -14z
m4214 -26 c4 -17 2 -28 -4 -28 -5 0 -10 6 -10 14 0 16 -21 26 -56 26 -39 0
-28 18 14 22 44 4 47 2 56 -34z m-4494 -8 c0 -5 -4 -10 -10 -10 -5 0 -10 5
-10 10 0 6 5 10 10 10 6 0 10 -4 10 -10z m450 0 c0 -5 -4 -10 -10 -10 -5 0
-10 5 -10 10 0 6 5 10 10 10 6 0 10 -4 10 -10z m760 -10 c0 -5 7 -10 15 -10 8
0 15 -9 15 -19 0 -14 -5 -18 -20 -14 -11 3 -20 9 -20 13 0 5 -3 15 -6 24 -3 9
-1 16 5 16 6 0 11 -4 11 -10z m-515 -34 c-6 -7 -22 -31 -37 -54 -15 -22 -33
-44 -39 -48 -17 -10 -2 48 17 62 7 6 14 14 14 18 0 4 7 18 16 32 12 18 20 22
28 14 7 -7 7 -15 1 -24z m3888 19 c-3 -9 2 -22 13 -30 11 -7 15 -17 11 -22 -5
-4 -13 0 -18 10 -6 9 -19 17 -29 17 -13 0 -20 7 -20 20 0 15 7 20 25 20 18 0
23 -4 18 -15z m-4547 -37 c-21 -12 -36 -2 -36 23 0 19 1 19 26 3 22 -15 23
-19 10 -26z m309 12 c3 -5 -1 -10 -9 -10 -9 0 -16 5 -16 10 0 6 4 10 9 10 6 0
13 -4 16 -10z m155 -5 c0 -8 -4 -15 -10 -15 -5 0 -10 7 -10 15 0 8 5 15 10 15
6 0 10 -7 10 -15z m350 -5 c0 -5 -4 -10 -10 -10 -5 0 -10 5 -10 10 0 6 5 10
10 10 6 0 10 -4 10 -10z m-550 -46 c0 -17 -22 -14 -28 4 -2 7 3 12 12 12 9 0
16 -7 16 -16z m105 6 c3 -5 1 -10 -4 -10 -6 0 -11 5 -11 10 0 6 2 10 4 10 3 0
8 -4 11 -10z m182 -24 c-4 -9 -11 -16 -17 -16 -11 0 -14 33 -3 44 11 10 26
-11 20 -28z m223 18 c0 -8 -5 -12 -10 -9 -6 4 -8 11 -5 16 9 14 15 11 15 -7z
m60 -32 c0 -22 -32 -43 -50 -32 -11 7 -9 13 11 29 30 25 39 26 39 3z m-70 -2
c0 -5 -5 -10 -11 -10 -5 0 -7 5 -4 10 3 6 8 10 11 10 2 0 4 -4 4 -10z m-520
-21 c0 -5 -7 -9 -15 -9 -9 0 -12 6 -9 15 6 15 24 11 24 -6z m130 -6 c0 -20 -3
-24 -11 -16 -7 7 -9 19 -6 27 10 24 17 19 17 -11z m975 7 c3 -5 1 -10 -4 -10
-6 0 -11 5 -11 10 0 6 2 10 4 10 3 0 8 -4 11 -10z m-1115 -56 c0 -8 -5 -12
-10 -9 -6 4 -8 11 -5 16 9 14 15 11 15 -7z m75 6 c3 -6 -1 -13 -10 -16 -19 -8
-30 0 -20 15 8 14 22 14 30 1z m465 -25 c0 -8 -4 -15 -9 -15 -13 0 -22 16 -14
24 11 11 23 6 23 -9z m40 1 c0 -3 -4 -8 -10 -11 -5 -3 -10 -1 -10 4 0 6 5 11
10 11 6 0 10 -2 10 -4z m-710 -156 c0 -5 -5 -10 -11 -10 -5 0 -7 5 -4 10 3 6
8 10 11 10 2 0 4 -4 4 -10z m120 -26 c0 -8 -4 -14 -10 -14 -5 0 -10 9 -10 21
0 11 5 17 10 14 6 -3 10 -13 10 -21z m777 10 c8 -20 -21 -49 -41 -41 -19 8
-21 43 -3 50 23 10 38 7 44 -9z m89 5 c10 -17 -13 -36 -27 -22 -12 12 -4 33
11 33 5 0 12 -5 16 -11z m-936 -33 c0 -19 -27 -39 -40 -31 -8 5 -6 13 6 26 20
22 34 25 34 5z m45 -46 c3 -5 1 -10 -4 -10 -6 0 -11 5 -11 10 0 6 2 10 4 10 3
0 8 -4 11 -10z m-615 -20 c-19 -13 -30 -13 -30 0 0 6 10 10 23 10 18 0 19 -2
7 -10z m-40 -29 c0 -5 -9 -7 -20 -4 -11 3 -20 7 -20 9 0 2 9 4 20 4 11 0 20
-4 20 -9z m3940 -55 c0 -5 -7 -3 -15 4 -8 7 -15 20 -15 28 0 13 3 12 15 -4 8
-10 15 -23 15 -28z m-3374 9 c-9 -9 -16 -13 -16 -8 0 12 22 34 28 28 2 -2 -3
-11 -12 -20z m-606 5 c0 -5 -7 -10 -16 -10 -8 0 -12 5 -9 10 3 6 10 10 16 10
5 0 9 -4 9 -10z m1670 -30 c0 -11 -7 -20 -15 -20 -8 0 -15 9 -15 20 0 11 7 20
15 20 8 0 15 -9 15 -20z m105 -15 c0 -30 -39 -27 -43 3 -3 20 0 23 20 20 15
-2 23 -10 23 -23z m155 -110 c0 -8 -4 -15 -10 -15 -5 0 -10 7 -10 15 0 8 5 15
10 15 6 0 10 -7 10 -15z m34 -57 c13 -22 -8 -48 -34 -41 -27 7 -35 35 -13 50
20 15 33 13 47 -9z"/>
<path d="M6636 9085 c-8 -8 -26 -15 -39 -15 -14 0 -27 -7 -31 -15 -3 -8 -11
-15 -19 -15 -18 0 -67 -23 -67 -32 0 -5 -7 -8 -15 -8 -8 0 -15 -4 -15 -10 0
-5 -5 -10 -11 -10 -35 0 -279 -222 -279 -254 0 -9 -4 -16 -10 -16 -5 0 -10 -9
-10 -19 0 -11 -6 -21 -12 -23 -10 -4 -14 -75 -16 -301 l-2 -296 25 -25 c14
-14 25 -31 25 -38 0 -7 16 -30 35 -52 19 -21 35 -41 35 -45 0 -13 72 -81 81
-75 5 3 9 0 9 -6 0 -14 96 -110 110 -110 5 0 10 -4 10 -10 0 -5 4 -10 10 -10
5 0 24 -16 43 -35 19 -19 39 -35 44 -35 6 0 16 -7 23 -15 7 -8 16 -13 20 -10
5 3 11 1 15 -5 3 -5 15 -10 26 -10 11 0 22 -7 25 -15 4 -9 19 -15 38 -15 18 0
36 -4 42 -10 11 -11 406 -16 424 -5 6 4 9 13 6 21 -6 14 20 33 57 40 12 2 23
8 25 14 2 5 15 10 28 10 13 0 24 5 24 10 0 6 9 10 20 10 11 0 20 3 20 8 0 7
30 25 63 38 9 3 17 10 17 15 0 5 4 9 10 9 11 0 45 26 69 53 9 10 27 31 41 46
47 52 70 81 70 90 0 5 10 22 23 38 41 52 67 110 67 152 0 22 5 41 11 41 7 0 9
30 5 93 -3 50 -8 144 -12 207 -4 85 -10 117 -20 123 -8 5 -12 12 -9 18 4 5 0
21 -8 36 -8 16 -25 49 -37 76 -13 26 -27 47 -32 47 -4 0 -8 7 -8 16 0 8 -6 21
-12 28 -7 7 -26 30 -43 51 -50 64 -110 125 -123 125 -7 0 -12 5 -12 11 0 5 -5
7 -10 4 -6 -3 -13 1 -16 9 -3 9 -12 16 -20 16 -8 0 -14 3 -14 8 0 8 -48 32
-66 32 -6 0 -14 7 -18 15 -3 8 -16 15 -30 15 -14 0 -28 5 -31 10 -8 13 -455
12 -455 -1 0 -5 -4 -9 -10 -9 -5 0 -10 7 -10 15 0 10 -10 15 -29 15 -16 0 -36
-7 -45 -15z m-216 -175 c0 -5 -4 -10 -10 -10 -5 0 -10 5 -10 10 0 6 5 10 10
10 6 0 10 -4 10 -10z m50 -65 c0 -8 -7 -15 -15 -15 -8 0 -15 7 -15 15 0 8 7
15 15 15 8 0 15 -7 15 -15z m590 -65 c0 -5 -17 -12 -37 -16 -21 -4 -42 -10
-48 -14 -5 -3 -37 -12 -70 -19 -33 -6 -89 -18 -125 -26 -75 -18 -126 -19 -135
-5 -4 6 15 10 49 10 45 0 56 3 56 16 0 14 10 16 65 12 52 -3 65 -1 65 10 0 11
9 13 39 9 28 -3 41 -1 45 8 3 8 20 15 38 18 18 2 39 5 46 5 6 1 12 -2 12 -8z
m343 -40 c20 -21 37 -44 37 -51 0 -8 11 -23 25 -33 14 -10 25 -27 25 -37 0 -9
5 -19 11 -21 6 -2 9 -31 7 -73 l-3 -70 -13 73 c-19 99 -99 217 -160 236 -32
11 -27 28 6 20 15 -4 44 -24 65 -44z m-773 -20 c0 -5 -2 -10 -4 -10 -3 0 -8 5
-11 10 -3 6 -1 10 4 10 6 0 11 -4 11 -10z m635 -5 c29 -9 69 -30 89 -48 45
-41 92 -130 107 -207 6 -33 15 -63 19 -65 16 -10 -6 -143 -33 -205 -16 -36
-48 -70 -67 -70 -25 0 -59 29 -74 63 -7 18 -16 74 -19 125 -4 51 -12 103 -18
115 -16 30 -60 77 -74 77 -6 0 -35 16 -65 35 -30 19 -66 35 -80 35 -28 0 -90
34 -90 49 0 21 54 59 104 74 134 41 133 41 201 22z m-625 -33 c0 -9 -89 -47
-135 -58 -47 -11 -117 -49 -148 -81 -28 -31 -59 -102 -71 -168 -10 -50 43
-215 94 -293 42 -64 136 -162 178 -183 15 -7 50 -27 77 -44 55 -34 80 -46 140
-68 35 -13 37 -15 17 -21 -14 -5 -27 -2 -38 8 -8 9 -24 16 -34 16 -10 0 -22 5
-25 10 -3 6 -15 10 -26 10 -10 0 -19 5 -19 10 0 6 -7 10 -15 10 -8 0 -15 5
-15 10 0 6 -9 10 -20 10 -11 0 -20 3 -20 8 0 4 -14 13 -31 21 -57 25 -186 166
-205 224 -4 9 -10 17 -15 17 -5 0 -9 13 -9 29 0 17 -6 31 -16 35 -10 4 -13 13
-9 25 3 10 -1 25 -8 33 -8 8 -15 27 -15 43 0 17 -1 61 -2 99 -2 56 1 72 15 82
15 11 16 16 5 29 -10 12 -10 15 2 15 8 0 32 20 54 45 21 24 44 45 51 45 7 0
16 8 22 17 5 10 13 15 17 11 4 -5 14 -2 22 4 8 7 29 11 48 9 26 -2 34 1 34 13
0 10 9 16 24 16 14 0 28 5 31 10 7 12 45 13 45 2z m-400 -62 c0 -5 -4 -10 -10
-10 -5 0 -10 5 -10 10 0 6 5 10 10 10 6 0 10 -4 10 -10z m230 -140 c0 -5 -4
-10 -10 -10 -5 0 -10 5 -10 10 0 6 5 10 10 10 6 0 10 -4 10 -10z m-240 -30 c0
-5 -4 -10 -10 -10 -5 0 -10 5 -10 10 0 6 5 10 10 10 6 0 10 -4 10 -10z m748
-18 c2 -7 -3 -12 -12 -12 -9 0 -16 7 -16 16 0 17 22 14 28 -4z m-798 -7 c0 -8
-9 -15 -20 -15 -20 0 -26 11 -13 23 12 13 33 7 33 -8z m1340 -55 c12 -8 29
-110 19 -116 -5 -3 -9 10 -9 28 0 19 -4 38 -9 44 -6 5 -12 27 -14 49 -3 22 -2
31 0 20 3 -11 9 -22 13 -25z m-740 -118 c0 -13 -12 -22 -22 -16 -10 6 -1 24
13 24 5 0 9 -4 9 -8z m716 -131 c-20 -22 -21 -51 -1 -51 22 0 18 -31 -5 -37
-11 -3 -20 -14 -20 -25 0 -19 -7 -29 -47 -73 -13 -13 -23 -29 -23 -36 0 -16
-57 -69 -74 -69 -8 0 -18 -4 -21 -10 -3 -5 -23 -10 -45 -10 -24 0 -40 -5 -44
-15 -3 -8 -14 -15 -24 -15 -10 0 -23 -5 -28 -10 -6 -6 -65 -8 -162 -3 -84 3
-150 8 -148 10 2 2 68 5 147 7 144 2 187 10 292 54 38 16 122 104 144 152 16
35 30 83 50 175 l18 80 3 -54 c2 -37 -1 -58 -12 -70z m-1216 99 c0 -5 -4 -10
-10 -10 -5 0 -10 5 -10 10 0 6 5 10 10 10 6 0 10 -4 10 -10z m1015 -250 c3 -5
-1 -10 -9 -10 -9 0 -16 5 -16 10 0 6 4 10 9 10 6 0 13 -4 16 -10z m-225 -20
c0 -5 -4 -10 -10 -10 -5 0 -10 5 -10 10 0 6 5 10 10 10 6 0 10 -4 10 -10z
m-310 -60 c0 -5 -4 -10 -10 -10 -5 0 -10 5 -10 10 0 6 5 10 10 10 6 0 10 -4
10 -10z m260 -160 c0 -5 -2 -10 -4 -10 -3 0 -8 5 -11 10 -3 6 -1 10 4 10 6 0
11 -4 11 -10z"/>
<path d="M7090 8680 c0 -5 -12 -10 -27 -10 -37 0 -87 -42 -71 -58 7 -7 22 -12
34 -12 13 0 26 -4 29 -10 3 -5 17 -10 31 -10 13 0 24 -4 24 -10 0 -5 9 -10 19
-10 10 0 22 -7 25 -16 3 -8 10 -13 15 -10 5 3 11 -1 15 -9 3 -8 12 -12 21 -9
8 4 17 -1 21 -10 3 -9 11 -16 16 -16 13 0 47 -41 48 -57 0 -7 5 -13 10 -13 6
0 10 -40 10 -99 0 -56 4 -103 10 -106 6 -3 10 -17 10 -31 0 -13 5 -24 11 -24
7 0 18 -8 25 -17 13 -17 15 -17 29 2 8 11 18 25 23 30 19 23 33 115 29 198 -2
48 -7 90 -10 94 -4 3 -7 19 -7 35 0 16 -6 31 -15 34 -8 4 -15 15 -15 25 0 10
-4 19 -10 19 -5 0 -10 9 -10 19 0 11 -19 36 -42 55 l-42 36 -103 0 c-62 0
-103 -4 -103 -10z"/>
<path d="M7822 8410 c0 -14 4 -36 8 -50 6 -20 8 -21 8 -5 0 11 -4 34 -8 50 -7
27 -8 27 -8 5z"/>
<path d="M7840 8241 c0 -5 6 -14 14 -20 12 -10 13 -8 9 8 -5 21 -23 30 -23 12z"/>
<path d="M7870 8151 c0 -16 -6 -31 -12 -33 -9 -3 -14 -35 -16 -99 -2 -52 -8
-98 -13 -103 -5 -6 -9 -18 -9 -28 0 -17 8 -19 78 -16 76 3 77 3 80 31 2 18 -2
29 -12 33 -12 5 -16 20 -16 60 0 30 -4 54 -10 54 -5 0 -10 15 -10 33 0 21 -7
38 -20 47 -11 8 -20 22 -20 32 0 10 -4 18 -10 18 -5 0 -10 -13 -10 -29z"/>
<path d="M5960 8131 c0 -6 5 -13 10 -16 6 -3 10 1 10 9 0 9 -4 16 -10 16 -5 0
-10 -4 -10 -9z"/>
<path d="M6101 7778 c0 -31 4 -60 9 -63 6 -3 10 -19 10 -36 0 -16 5 -29 10
-29 6 0 10 -16 10 -35 0 -19 5 -35 10 -35 6 0 10 -20 10 -44 0 -25 5 -48 10
-51 6 -3 10 -24 10 -46 0 -22 5 -50 11 -61 10 -19 14 -17 62 33 57 58 87 98
87 115 0 5 -16 16 -35 24 -19 8 -35 16 -35 19 0 4 -17 24 -37 46 -42 45 -93
119 -93 135 0 5 -4 10 -8 10 -5 0 -13 17 -19 38 l-10 37 -2 -57z"/>
<path d="M7750 7731 c0 -9 -31 -42 -104 -109 -25 -24 -46 -48 -46 -53 0 -5 -7
-9 -15 -9 -8 0 -15 -4 -15 -10 0 -5 -5 -10 -11 -10 -6 0 -25 -10 -42 -22 -42
-31 -76 -48 -93 -48 -8 0 -14 -4 -14 -10 0 -5 -18 -10 -40 -10 -22 0 -40 -4
-40 -10 0 -5 -20 -10 -45 -10 -31 0 -47 -5 -51 -15 -5 -12 -19 -14 -75 -9 -60
6 -69 5 -69 -10 0 -11 -9 -16 -30 -16 -16 0 -30 -4 -30 -10 0 -6 -71 -10 -194
-10 -119 0 -197 4 -201 10 -9 14 -64 12 -79 -2 -6 -7 -24 -30 -40 -50 -15 -20
-58 -68 -94 -107 -37 -38 -80 -86 -97 -107 -16 -20 -40 -47 -52 -60 -27 -27
-28 -34 -8 -34 8 0 15 -4 15 -10 0 -5 7 -10 15 -10 8 0 15 -4 15 -10 0 -5 7
-10 15 -10 8 0 15 -5 15 -10 0 -6 11 -15 25 -20 37 -14 31 -41 -25 -99 -27
-29 -50 -55 -50 -59 0 -4 -16 -24 -36 -45 -33 -34 -41 -37 -90 -37 -29 0 -56
5 -59 10 -3 6 -24 10 -45 10 -21 0 -42 5 -45 10 -3 6 -20 10 -37 10 -23 0 -43
-12 -82 -49 -28 -28 -85 -82 -126 -120 l-75 -71 -97 0 c-59 0 -98 4 -98 10 0
6 -42 10 -105 10 -121 0 -130 -6 -122 -91 3 -27 1 -52 -4 -55 -5 -3 -9 -35 -9
-72 1 -98 17 -63 50 108 18 93 21 100 46 100 12 0 26 -4 29 -10 3 -5 44 -10
89 -10 99 0 173 -23 143 -45 -20 -14 -23 -51 -4 -58 17 -6 32 6 95 81 30 34
60 62 68 62 8 0 18 8 22 19 4 10 42 51 85 91 68 64 81 71 105 65 15 -3 43 -9
62 -11 35 -5 58 -13 116 -41 42 -20 62 -14 82 22 9 17 19 32 22 35 3 3 24 27
45 55 22 27 46 56 52 63 7 7 20 29 29 48 16 34 16 37 -3 62 -11 15 -34 36 -51
47 -33 22 -48 45 -34 54 5 3 43 47 85 96 42 50 100 116 129 147 l53 56 80 -8
c44 -4 87 -10 95 -11 39 -8 256 15 350 38 58 14 119 26 135 28 41 3 135 30
187 53 71 31 233 148 286 207 47 51 52 54 88 49 35 -5 70 -18 126 -45 10 -5
29 -9 43 -9 14 0 25 -4 25 -10 0 -5 13 -10 29 -10 17 0 33 -4 36 -10 3 -5 16
-10 29 -10 13 0 30 -8 39 -18 19 -20 23 -77 7 -87 -5 -3 -10 -22 -10 -40 0
-41 8 -46 110 -70 41 -10 79 -21 84 -26 6 -5 17 -9 25 -9 9 0 27 -9 41 -20 42
-33 65 -26 88 28 11 26 25 64 32 85 12 38 32 47 68 28 91 -47 127 -61 187 -76
39 -9 110 -37 160 -61 49 -24 97 -44 106 -44 9 0 22 -7 29 -15 7 -8 22 -15 34
-15 12 0 26 -4 31 -8 6 -5 30 -14 55 -21 25 -7 55 -18 67 -23 11 -6 27 -8 35
-5 7 3 3 6 -9 6 -13 1 -23 6 -23 11 0 6 -11 10 -25 10 -14 0 -25 5 -25 10 0 6
-11 10 -25 10 -14 0 -25 5 -25 10 0 6 -11 10 -24 10 -13 0 -26 7 -30 15 -3 8
-14 15 -25 15 -11 0 -23 5 -26 10 -3 6 -15 10 -26 10 -10 0 -19 5 -19 10 0 6
-11 10 -24 10 -14 0 -28 5 -31 10 -3 6 -15 10 -26 10 -10 0 -19 5 -19 10 0 6
-11 10 -24 10 -13 0 -26 7 -30 15 -3 8 -16 15 -30 15 -14 0 -28 5 -31 10 -3 6
-19 10 -36 10 -16 0 -29 5 -29 10 0 6 -16 10 -35 10 -19 0 -35 5 -35 10 0 6
-15 10 -34 10 -19 0 -36 4 -38 9 -1 4 -20 11 -40 15 -34 6 -38 5 -38 -14 0
-11 -7 -23 -15 -26 -8 -4 -15 -15 -15 -25 0 -10 -4 -19 -10 -19 -5 0 -10 -11
-10 -25 0 -22 -4 -25 -35 -25 -19 0 -35 5 -35 10 0 6 -13 10 -29 10 -16 0 -34
7 -41 15 -7 8 -23 15 -36 15 -12 0 -26 5 -29 10 -3 6 -17 10 -31 10 -14 0 -32
6 -40 14 -20 20 -19 114 2 137 14 16 13 19 -23 34 -21 9 -46 21 -55 26 -10 5
-29 9 -42 9 -14 0 -28 5 -31 10 -3 6 -19 10 -35 10 -16 0 -32 5 -35 10 -3 6
-19 10 -35 10 -15 0 -30 7 -34 15 -3 8 -14 15 -25 15 -11 0 -23 5 -26 10 -8
12 -75 13 -75 1z"/>
<path d="M7540 7451 c0 -6 -7 -11 -15 -11 -9 0 -28 -12 -43 -27 -25 -25 -27
-33 -25 -101 1 -86 15 -105 85 -122 78 -18 140 -13 171 14 15 13 27 28 27 33
0 6 7 16 15 23 9 7 15 29 15 55 0 35 -6 48 -40 82 -39 40 -60 49 -147 60 -28
3 -43 1 -43 -6z m72 -81 c9 0 18 5 20 12 5 15 51 -15 73 -48 16 -24 15 -27
-10 -60 -25 -33 -28 -34 -93 -34 -78 0 -102 17 -102 73 0 24 8 39 32 59 29 23
35 25 49 12 8 -8 23 -14 31 -14z"/>
<path d="M6900 7254 c-37 -34 -40 -40 -40 -89 0 -51 2 -55 51 -99 49 -44 54
-46 113 -46 64 1 78 7 114 54 48 62 12 146 -82 190 -76 36 -107 34 -156 -10z
m173 -62 c29 -30 38 -90 15 -96 -7 -2 -28 -8 -46 -14 -40 -13 -84 3 -121 42
-23 25 -23 26 -7 61 17 34 18 35 75 35 50 0 61 -4 84 -28z"/>
<path d="M9300 7179 c0 -5 7 -9 15 -9 22 0 19 -62 -5 -107 -11 -21 -20 -47
-20 -59 0 -12 -9 -33 -20 -47 -11 -14 -20 -37 -20 -50 0 -14 -4 -29 -10 -32
-5 -3 -10 -22 -10 -41 0 -33 -20 -48 -35 -24 -3 6 -18 10 -32 10 -21 0 -24 -2
-13 -15 8 -10 30 -15 61 -15 48 0 49 1 49 29 0 17 5 33 10 36 6 3 10 19 10 35
0 15 5 30 10 32 6 2 12 16 14 31 1 15 6 30 9 34 4 3 7 19 7 35 0 16 7 36 15
44 8 9 15 29 15 45 0 16 5 29 10 29 6 0 10 5 10 10 0 6 -7 10 -15 10 -8 0 -15
4 -15 9 0 5 -9 11 -20 14 -11 3 -20 1 -20 -4z"/>
<path d="M9525 7121 c3 -12 0 -21 -10 -25 -12 -4 -16 -16 -14 -41 2 -19 -2
-40 -9 -47 -6 -6 -12 -31 -12 -54 0 -24 -4 -46 -10 -49 -5 -3 -10 -17 -10 -31
0 -13 -3 -24 -7 -24 -10 0 -33 -49 -33 -69 1 -31 50 66 80 156 17 50 29 95 28
100 -1 4 3 22 9 40 8 23 19 33 40 36 l28 4 -27 2 c-16 0 -28 6 -28 11 0 6 -7
10 -16 10 -10 0 -13 -6 -9 -19z"/>
<path d="M7955 7083 c-11 -3 -24 -9 -29 -14 -6 -5 -31 -9 -57 -9 -26 0 -51 -4
-54 -10 -3 -5 -30 -10 -60 -10 -30 0 -56 -4 -59 -9 -7 -10 -56 -20 -136 -27
-30 -3 -64 -9 -75 -14 -11 -4 -40 -11 -65 -15 -24 -3 -71 -15 -105 -26 -33
-11 -113 -28 -177 -39 -64 -10 -125 -23 -135 -28 -10 -5 -46 -22 -80 -38 -35
-16 -63 -32 -63 -36 0 -5 -7 -8 -16 -8 -9 0 -29 -10 -44 -22 -16 -13 -38 -31
-50 -40 -20 -15 -23 -27 -24 -108 -2 -62 2 -96 10 -108 8 -9 14 -43 14 -74 0
-31 5 -60 10 -63 6 -3 10 -15 10 -26 0 -11 7 -22 15 -25 10 -4 12 -15 8 -35
-4 -21 -1 -30 10 -35 9 -3 14 -11 11 -18 -3 -7 2 -19 11 -26 8 -7 15 -27 15
-46 0 -18 5 -36 10 -39 6 -3 10 -14 10 -25 0 -10 8 -35 19 -57 34 -69 64 -159
76 -226 6 -36 3 -42 -35 -78 -27 -26 -50 -39 -68 -39 -16 0 -32 -4 -37 -9 -6
-4 -26 -11 -45 -14 -32 -4 -38 -2 -53 25 -9 16 -17 38 -17 49 0 10 -4 19 -10
19 -5 0 -10 9 -10 19 0 11 -4 23 -10 26 -5 3 -10 17 -10 30 0 13 -4 27 -10 30
-5 3 -10 16 -10 27 0 24 -15 77 -35 123 -13 30 -21 61 -31 120 -9 53 -47 116
-91 152 -40 33 -45 35 -95 28 -70 -9 -144 -45 -193 -95 -21 -22 -44 -40 -50
-40 -5 0 -21 -10 -35 -21 -14 -11 -49 -35 -77 -54 -65 -43 -173 -144 -173
-162 0 -22 18 -15 59 25 73 71 121 112 131 112 6 0 13 7 16 15 4 8 11 15 18
15 6 0 18 9 26 20 8 11 22 20 31 20 9 0 31 16 48 35 17 19 35 35 41 35 5 0 10
5 10 10 0 6 9 10 20 10 11 0 20 3 20 8 0 15 56 32 107 32 29 0 63 -6 75 -12
38 -22 60 -46 53 -57 -3 -6 1 -14 9 -17 11 -4 16 -19 16 -44 0 -22 5 -42 10
-45 6 -3 10 -15 10 -26 0 -10 5 -19 10 -19 6 0 10 -16 10 -35 0 -22 6 -38 15
-41 8 -4 13 -9 10 -13 -2 -4 3 -20 11 -35 7 -16 14 -39 14 -52 0 -12 5 -26 10
-29 6 -3 10 -24 10 -46 0 -21 5 -39 10 -39 6 0 10 -13 10 -30 0 -16 5 -30 10
-30 6 0 10 -15 10 -34 0 -21 6 -36 15 -40 10 -3 15 -19 15 -46 0 -22 5 -40 10
-40 6 0 10 -16 10 -35 0 -19 5 -35 10 -35 6 0 10 -11 10 -24 0 -14 5 -28 10
-31 6 -3 10 -19 10 -34 0 -16 7 -34 16 -42 9 -8 13 -21 10 -35 -4 -14 -1 -24
9 -28 9 -3 15 -18 15 -36 0 -16 5 -30 10 -30 6 0 10 -9 10 -19 0 -11 5 -23 10
-26 6 -3 10 -19 10 -35 0 -16 5 -32 10 -35 6 -3 10 -19 10 -35 0 -16 7 -30 16
-34 11 -4 15 -14 11 -32 -3 -16 1 -28 9 -31 8 -3 14 -14 14 -24 0 -10 5 -19
10 -19 6 0 10 -13 10 -29 0 -17 5 -33 10 -36 6 -3 10 -19 10 -36 0 -16 5 -29
10 -29 6 0 10 -14 10 -30 0 -19 6 -33 16 -37 11 -4 15 -17 12 -46 -1 -25 2
-42 10 -45 7 -2 12 -21 12 -43 0 -21 5 -39 10 -39 6 0 10 -16 10 -35 0 -19 5
-35 10 -35 6 0 10 -9 10 -20 0 -11 5 -20 10 -20 6 0 10 -11 10 -25 0 -24 3
-25 55 -25 30 0 55 5 55 10 0 6 52 10 135 10 116 0 135 2 135 16 0 13 14 15
90 13 60 -1 95 2 105 11 8 7 24 10 35 7 34 -9 40 14 37 141 -3 83 0 122 7 122
8 0 10 35 8 110 -4 104 -3 111 19 135 14 14 35 25 52 25 15 0 27 5 27 10 0 6
20 10 45 10 25 0 45 5 45 10 0 6 9 10 20 10 11 0 23 7 26 15 4 8 17 15 30 15
13 0 24 5 24 10 0 6 9 10 20 10 11 0 20 5 20 10 0 6 11 10 25 10 14 0 25 5 25
10 0 6 19 10 43 10 31 0 46 -5 57 -20 8 -11 20 -20 27 -20 7 0 13 -4 13 -8 0
-5 34 -45 75 -88 41 -43 75 -83 75 -88 0 -5 16 -24 35 -43 19 -19 35 -38 35
-43 0 -11 24 -42 54 -71 20 -19 41 -16 33 6 -5 13 26 45 43 45 6 0 10 5 10 10
0 6 11 10 24 10 13 0 26 7 30 15 3 8 9 14 13 13 15 -3 63 21 63 32 0 5 7 10
15 10 8 0 15 3 15 8 0 8 49 32 67 32 7 0 13 3 13 8 0 4 18 16 40 26 22 11 40
23 40 28 0 4 7 8 15 8 8 0 15 4 15 9 0 6 19 11 42 13 29 2 42 8 44 20 1 9 -4
19 -12 22 -8 3 -14 15 -14 26 0 11 -4 20 -10 20 -5 0 -10 9 -10 20 0 11 -4 20
-10 20 -5 0 -10 9 -10 19 0 11 -7 26 -15 35 -8 8 -15 24 -15 35 0 12 -4 21
-10 21 -5 0 -10 11 -10 25 0 14 -4 25 -10 25 -5 0 -10 16 -10 35 0 19 -4 35
-10 35 -5 0 -10 8 -10 17 0 25 -31 103 -41 103 -5 0 -9 11 -9 25 0 14 -4 25
-10 25 -5 0 -10 9 -10 19 0 11 -4 23 -10 26 -5 3 -10 14 -10 25 0 10 -7 20
-15 24 -8 3 -12 12 -9 21 3 8 1 15 -5 15 -6 0 -11 9 -11 20 0 11 -7 23 -15 26
-8 4 -15 12 -15 20 0 8 -4 22 -9 32 -6 9 -18 36 -27 60 -10 23 -22 42 -27 42
-4 0 -5 5 -2 11 8 12 -22 79 -35 79 -6 0 -10 13 -10 29 0 17 -4 33 -10 36 -5
3 -10 15 -10 26 0 10 -4 19 -10 19 -5 0 -10 7 -10 16 0 9 -7 30 -16 47 -31 58
-34 67 -34 82 0 8 -4 15 -10 15 -5 0 -10 14 -10 30 0 17 -4 30 -10 30 -5 0
-10 6 -10 14 0 18 -32 76 -42 76 -16 0 -9 -19 43 -122 24 -48 -5 -79 -90 -93
-22 -4 -45 -13 -52 -21 -6 -8 -18 -14 -26 -14 -17 0 -43 24 -43 39 0 6 -4 20
-10 31 -5 11 -14 29 -20 40 -5 11 -10 28 -10 39 0 10 -7 24 -15 31 -10 8 -15
31 -15 69 0 31 -4 61 -9 67 -5 5 -11 32 -14 59 -2 28 -12 81 -21 120 -9 38
-16 88 -16 110 0 22 -12 82 -27 134 -25 84 -34 100 -76 143 -49 49 -71 55
-132 41z m-80 -253 c3 -5 14 -10 23 -10 41 0 91 -92 109 -198 3 -18 9 -35 14
-38 5 -3 9 -22 9 -43 0 -25 7 -44 19 -55 11 -10 22 -35 26 -56 3 -21 15 -47
26 -58 10 -12 19 -28 19 -37 0 -15 -81 -58 -200 -105 -30 -12 -68 -28 -83 -36
-16 -8 -37 -14 -47 -14 -10 0 -21 -4 -24 -9 -3 -5 -45 -21 -93 -36 -49 -16
-92 -32 -97 -37 -6 -4 -20 -8 -32 -8 -13 0 -26 -4 -29 -10 -3 -5 -19 -10 -34
-10 -16 0 -34 -7 -41 -15 -7 -8 -21 -15 -32 -15 -11 0 -34 -6 -51 -14 -33 -14
-101 -25 -195 -29 -49 -2 -54 -1 -67 27 -8 16 -15 35 -15 43 0 7 -4 21 -9 31
-5 9 -14 31 -21 47 -18 45 -44 99 -50 105 -3 3 -10 16 -16 30 -6 14 -21 45
-32 70 -12 27 -23 78 -27 125 -5 71 -4 84 13 103 11 12 27 22 36 22 9 0 24 4
34 9 9 5 42 15 72 21 30 7 69 19 85 26 17 6 62 17 100 24 74 13 177 43 235 68
19 9 58 19 85 23 70 11 145 32 145 41 0 5 20 8 44 8 25 0 48 5 51 10 3 6 15
10 25 10 10 0 22 -4 25 -10z m364 -787 c53 -88 84 -122 122 -133 44 -13 113
-3 187 27 58 24 63 25 80 10 10 -10 28 -17 40 -17 13 0 22 -6 22 -15 0 -8 11
-36 25 -62 13 -27 35 -73 48 -103 14 -30 38 -84 54 -120 17 -36 36 -81 43
-100 7 -19 17 -39 20 -45 10 -13 75 -179 90 -230 7 -22 16 -44 21 -49 5 -6 9
-27 9 -47 0 -21 7 -42 15 -49 14 -12 14 -15 -1 -31 -10 -11 -36 -30 -58 -43
-23 -12 -70 -40 -106 -61 -36 -20 -80 -46 -98 -56 -18 -11 -42 -19 -54 -19
-11 0 -40 -16 -64 -35 -23 -19 -49 -35 -57 -35 -8 0 -31 19 -51 43 -21 23 -55
61 -77 84 -21 23 -39 45 -39 48 0 3 -36 42 -80 88 -44 45 -80 87 -80 93 0 25
-30 21 -96 -11 -38 -18 -114 -47 -169 -65 -55 -17 -113 -37 -130 -45 -16 -7
-46 -18 -65 -26 -19 -7 -43 -21 -53 -31 -10 -10 -22 -18 -27 -18 -22 0 -9 -41
15 -50 21 -8 24 -14 18 -42 -3 -18 -10 -37 -14 -43 -5 -5 -9 -44 -9 -86 0 -43
-4 -81 -10 -84 -5 -3 -10 -21 -10 -40 0 -19 5 -37 10 -40 6 -3 10 -24 10 -46
l0 -39 -107 0 c-99 -1 -192 -15 -209 -33 -4 -4 -24 -7 -45 -7 -20 0 -65 -7
-98 -16 -34 -8 -76 -14 -94 -12 -30 3 -32 6 -39 48 -6 45 -49 174 -61 187 -4
3 -7 17 -7 29 0 13 -4 26 -10 29 -5 3 -10 15 -10 27 0 11 -7 34 -16 51 -31 59
-34 67 -34 86 0 11 -4 23 -10 26 -5 3 -10 17 -10 31 0 13 -4 32 -9 42 -16 31
-51 124 -122 322 -11 30 -27 68 -35 83 -8 16 -14 33 -14 39 0 25 96 79 271
151 58 24 89 73 89 140 0 56 0 57 29 57 17 0 33 5 36 10 3 6 15 10 26 10 11 0
38 12 61 26 30 19 49 25 73 21 18 -3 50 1 71 8 22 8 52 14 68 15 16 0 48 9 70
20 23 10 84 32 136 49 128 39 199 67 221 87 10 9 24 14 32 11 18 -7 115 16
153 36 54 30 69 23 113 -50z"/>
<path d="M9670 7070 c0 -5 9 -10 21 -10 11 0 17 5 14 10 -3 6 -13 10 -21 10
-8 0 -14 -4 -14 -10z"/>
<path d="M9730 7046 c0 -9 30 -14 35 -6 4 6 -3 10 -14 10 -12 0 -21 -2 -21 -4z"/>
<path d="M9780 7024 c0 -7 148 -74 163 -74 7 0 -3 8 -21 17 -19 9 -36 22 -39
30 -3 7 -16 13 -28 13 -13 0 -27 5 -30 10 -6 10 -45 14 -45 4z"/>
<path d="M9974 6919 c20 -16 26 -29 26 -59 0 -21 -4 -42 -10 -45 -5 -3 -10
-15 -10 -26 0 -10 -16 -41 -35 -68 -19 -26 -35 -53 -35 -58 0 -5 -13 -22 -30
-38 -25 -24 -33 -27 -52 -18 -13 5 -66 20 -118 33 -52 12 -127 33 -167 46 -39
13 -81 24 -92 24 -14 0 -23 8 -27 25 -8 32 -20 32 -28 -1 -11 -42 8 -54 84
-54 51 0 69 -4 74 -15 3 -8 14 -15 24 -15 10 0 22 -3 26 -7 4 -4 22 -6 40 -5
23 2 35 -2 39 -12 4 -10 19 -16 40 -16 18 0 38 -5 43 -10 6 -6 41 -10 79 -8
l68 3 21 40 c11 22 24 42 28 43 4 2 8 12 8 23 0 10 5 19 10 19 6 0 10 9 10 19
0 11 5 23 10 26 6 3 10 15 10 26 0 10 4 19 9 19 18 0 22 52 6 69 -8 10 -15 23
-15 29 0 7 -7 12 -15 12 -8 0 -15 5 -15 10 0 6 -7 10 -16 10 -12 0 -10 -6 10
-21z"/>
<path d="M8551 6917 c-40 -15 -141 -123 -141 -150 0 -16 3 -17 15 -7 8 7 15
19 15 27 0 17 24 43 39 43 6 0 11 6 11 14 0 8 14 20 30 28 17 7 30 16 30 20 0
5 60 8 133 9 148 0 147 13 -3 23 -66 4 -105 2 -129 -7z"/>
<path d="M8834 6882 c4 -6 33 -14 66 -18 35 -4 61 -12 64 -20 3 -8 19 -13 40
-12 19 1 42 -4 50 -11 17 -14 66 -11 68 4 1 6 -23 13 -53 17 -30 5 -63 12 -74
17 -46 22 -171 39 -161 23z"/>
<path d="M8406 6693 c9 -52 14 -54 14 -5 0 23 -5 42 -10 42 -7 0 -8 -14 -4
-37z"/>
<path d="M4649 6592 c-8 -9 -29 -28 -47 -41 -26 -20 -32 -31 -32 -62 0 -22 -4
-39 -10 -39 -6 0 -10 -29 -10 -66 0 -41 4 -63 10 -59 6 4 10 -12 10 -39 0 -28
5 -46 11 -46 8 0 10 17 5 58 -17 135 -4 213 43 254 41 37 76 42 256 36 156 -6
155 -5 155 -131 0 -57 -4 -107 -10 -113 -5 -5 -12 -64 -14 -129 -5 -145 -6
-146 -108 -94 -26 13 -50 11 -45 -3 2 -7 14 -12 26 -11 12 2 24 -4 27 -12 4
-8 17 -15 29 -15 13 0 27 -4 30 -10 3 -5 17 -10 31 -10 l24 0 0 128 c0 70 4
132 9 138 6 5 11 65 12 134 l1 125 -26 3 c-14 2 -26 8 -26 13 0 5 -70 9 -167
8 -143 -1 -170 -3 -184 -17z"/>
<path d="M8410 6573 c0 -18 5 -33 10 -33 6 0 10 -10 10 -22 0 -13 7 -32 15
-42 13 -17 15 -17 15 -4 0 9 -4 20 -10 23 -5 3 -10 17 -10 29 0 13 -7 37 -15
52 l-15 29 0 -32z"/>
<path d="M8466 6435 c4 -8 8 -15 10 -15 2 0 4 7 4 15 0 8 -4 15 -10 15 -5 0
-7 -7 -4 -15z"/>
<path d="M5236 6214 c-3 -9 -6 -39 -6 -68 0 -29 -5 -57 -11 -63 -7 -7 -9 -23
-5 -37 5 -22 12 -26 45 -26 22 0 44 -6 51 -15 7 -8 27 -15 46 -15 18 0 36 -4
39 -10 3 -5 24 -10 46 -10 21 0 39 -4 39 -10 0 -5 18 -10 39 -10 22 0 41 -5
43 -11 2 -6 44 -12 103 -13 55 -2 115 -7 133 -11 30 -7 32 -6 32 20 0 22 -3
25 -13 16 -10 -8 -44 -8 -123 -1 -220 21 -291 37 -386 86 -14 8 -36 14 -48 14
-21 0 -22 3 -16 43 17 113 18 137 8 137 -5 0 -13 -7 -16 -16z"/>
<path d="M4610 6200 c0 -6 7 -10 15 -10 8 0 15 -4 15 -10 0 -5 10 -10 22 -10
22 0 22 0 3 13 -29 20 -55 28 -55 17z"/>
<path d="M4690 6158 c0 -5 24 -8 54 -8 30 0 58 -4 61 -10 3 -5 14 -10 23 -10
13 0 13 3 4 12 -14 14 -142 28 -142 16z"/>
<path d="M6310 6070 c0 -5 5 -10 10 -10 6 0 10 5 10 10 0 6 -4 10 -10 10 -5 0
-10 -4 -10 -10z"/>
<path d="M9120 4805 c-7 -8 -19 -15 -26 -15 -8 0 -14 -4 -14 -10 0 -5 -11 -10
-25 -10 -14 0 -25 -4 -25 -10 0 -5 -11 -10 -25 -10 -14 0 -25 -4 -25 -10 0 -5
-9 -10 -19 -10 -11 0 -50 -16 -87 -35 -37 -19 -75 -35 -85 -35 -11 0 -19 -4
-19 -10 0 -5 -18 -10 -40 -10 -28 0 -45 -6 -57 -20 -10 -11 -30 -20 -45 -20
-31 0 -45 -15 -23 -24 8 -3 15 -15 15 -26 0 -11 5 -20 10 -20 6 0 10 -8 10
-18 0 -11 9 -27 20 -37 11 -10 20 -24 20 -32 0 -7 7 -16 15 -19 8 -4 15 -17
15 -30 0 -13 5 -24 10 -24 6 0 10 -6 10 -13 0 -18 24 -67 33 -67 4 0 7 -8 7
-19 0 -10 7 -24 15 -31 8 -7 13 -16 10 -20 -3 -4 2 -13 10 -20 8 -7 15 -20 15
-29 0 -9 9 -23 20 -31 11 -8 20 -22 20 -31 0 -9 7 -19 15 -23 8 -3 15 -12 15
-21 0 -8 5 -15 11 -15 6 0 9 -6 6 -14 -3 -7 6 -25 19 -39 13 -14 24 -35 24
-47 0 -11 5 -20 10 -20 6 0 10 -8 10 -18 0 -11 11 -32 25 -48 14 -16 25 -37
25 -46 0 -10 5 -18 10 -18 6 0 10 -9 10 -20 0 -11 5 -20 10 -20 6 0 10 -20 10
-45 0 -38 3 -45 20 -45 19 0 41 14 82 53 10 9 24 17 32 17 8 0 16 7 20 15 7
20 2 19 -48 -10 -45 -26 -70 -25 -79 3 -3 9 -12 28 -20 42 -8 14 -19 36 -25
50 -24 63 -89 186 -117 224 -50 68 -104 159 -185 311 -23 44 -45 82 -50 85
-16 10 -62 112 -54 119 5 4 41 18 79 30 39 13 79 29 90 35 11 7 52 25 90 40
65 26 149 63 204 89 20 10 26 8 42 -12 10 -13 19 -33 19 -45 0 -12 4 -26 9
-31 13 -13 186 -348 202 -390 4 -11 16 -41 28 -67 12 -26 21 -51 21 -55 0 -5
16 -39 35 -77 19 -39 35 -74 35 -79 0 -5 10 -23 22 -39 l21 -31 -34 -28 c-23
-19 -29 -29 -18 -29 9 0 20 7 23 16 4 10 13 13 24 10 12 -4 26 1 37 14 10 11
13 20 7 20 -12 0 -42 55 -42 77 0 7 -4 13 -9 13 -12 0 -61 98 -61 122 0 10 -7
18 -15 18 -9 0 -15 6 -14 13 4 30 -2 48 -21 64 -11 10 -20 30 -20 45 0 16 -4
28 -10 28 -5 0 -10 9 -10 20 0 11 -4 20 -10 20 -5 0 -10 11 -10 24 0 13 -7 27
-16 30 -8 3 -12 10 -9 16 3 6 -1 17 -9 26 -9 8 -16 22 -16 30 0 8 -4 14 -10
14 -5 0 -10 9 -10 19 0 11 -4 23 -10 26 -5 3 -10 15 -10 26 0 10 -4 19 -10 19
-5 0 -10 9 -10 19 0 10 -7 22 -16 25 -9 4 -14 13 -10 21 3 8 1 15 -4 15 -6 0
-10 9 -10 20 0 11 -7 23 -15 26 -8 4 -15 15 -15 25 0 10 -4 19 -10 19 -5 0
-10 11 -10 25 0 28 -12 32 -30 10z"/>
<path d="M8600 4736 c0 -2 8 -10 18 -17 15 -13 16 -12 3 4 -13 16 -21 21 -21
13z"/>
<path d="M7740 4321 c0 -6 -13 -11 -29 -11 -17 0 -33 -4 -36 -10 -3 -5 -17
-10 -31 -10 -14 0 -24 -6 -24 -14 0 -15 20 -12 83 13 36 14 35 15 39 -11 2
-12 9 -23 16 -26 11 -3 12 0 2 18 -6 12 -9 28 -6 35 3 8 1 17 -4 20 -6 4 -10
1 -10 -4z"/>
<path d="M7550 4250 c0 -5 -16 -10 -35 -10 -19 0 -35 -4 -35 -10 0 -5 -13 -10
-30 -10 -16 0 -30 -4 -30 -10 0 -5 -16 -10 -35 -10 -19 0 -35 -4 -35 -10 0 -5
-11 -10 -24 -10 -14 0 -28 -4 -31 -10 -12 -19 51 -10 103 15 29 14 63 25 77
25 14 0 33 4 43 9 9 5 33 16 52 25 34 15 34 16 8 16 -16 0 -28 -4 -28 -10z"/>
<path d="M8002 4220 c0 -14 2 -19 5 -12 2 6 2 18 0 25 -3 6 -5 1 -5 -13z"/>
<path d="M7775 4190 c3 -5 8 -10 11 -10 2 0 4 5 4 10 0 6 -5 10 -11 10 -5 0
-7 -4 -4 -10z"/>
<path d="M7240 4140 c0 -5 -13 -10 -30 -10 -27 0 -30 -3 -30 -30 0 -16 4 -30
9 -30 5 0 11 -12 13 -27 4 -32 28 -44 28 -13 0 12 -4 30 -10 40 -14 26 -4 46
33 64 28 13 29 16 10 16 -13 0 -23 -4 -23 -10z"/>
<path d="M7810 4006 c0 -19 4 -37 9 -40 5 -3 11 -20 14 -38 7 -48 47 -181 58
-193 5 -5 9 -18 9 -29 0 -11 13 -59 29 -106 37 -109 54 -175 49 -190 -2 -6
-26 -20 -53 -30 -122 -44 -150 -55 -155 -60 -9 -9 -104 -40 -123 -40 -9 0 -25
-4 -35 -9 -9 -5 -33 -16 -52 -25 -27 -12 -30 -16 -13 -16 12 0 25 5 28 10 3 6
22 10 41 10 19 0 34 5 34 10 0 6 14 10 32 10 17 0 39 7 48 15 10 9 40 18 69
22 33 4 51 10 51 19 0 9 11 14 30 14 17 0 30 5 30 10 0 6 16 10 35 10 19 0 35
4 35 9 0 6 14 11 31 13 l30 3 -20 22 c-12 12 -21 35 -21 52 0 16 -4 31 -10 33
-5 2 -10 20 -12 42 -1 21 -8 40 -15 43 -8 3 -13 22 -13 49 0 24 -4 44 -10 44
-5 0 -10 18 -10 40 0 22 -4 40 -10 40 -5 0 -10 9 -10 21 0 11 -7 27 -15 36
-10 9 -13 23 -9 35 4 12 1 24 -7 28 -7 5 -14 23 -15 42 -2 18 -8 34 -13 36 -6
2 -11 17 -11 34 0 16 -7 36 -15 44 -13 14 -15 12 -15 -20z"/>
<path d="M9335 3821 c-6 -5 -30 -16 -55 -25 l-45 -15 43 -1 c33 0 49 6 68 25
23 23 12 38 -11 16z"/>
<path d="M7270 3798 c0 -10 4 -18 9 -18 5 0 11 -12 13 -27 4 -31 28 -44 28
-14 0 26 -49 84 -50 59z"/>
<path d="M9567 3720 c-20 -24 -21 -30 -5 -30 6 0 20 -7 30 -17 17 -15 18 -15
18 9 0 13 -6 32 -13 41 -11 16 -13 16 -30 -3z"/>
<path d="M7316 3694 c-4 -9 1 -28 9 -41 9 -13 13 -28 10 -32 -3 -5 2 -16 10
-24 9 -10 15 -34 15 -61 0 -25 5 -46 10 -46 6 0 10 -9 10 -19 0 -11 5 -23 10
-26 6 -3 10 -28 10 -55 0 -33 5 -50 15 -54 9 -3 15 -18 15 -35 0 -16 5 -33 11
-37 6 -3 9 -24 7 -45 -4 -44 -3 -45 40 -23 37 18 40 29 12 37 -11 3 -25 18
-31 34 -6 15 -15 36 -20 45 -5 10 -9 30 -9 45 0 16 -7 37 -15 47 -8 11 -15 30
-15 42 0 13 -4 26 -10 29 -5 3 -10 16 -10 27 0 22 -5 39 -36 138 -20 65 -29
78 -38 54z"/>
<path d="M9476 3655 c-3 -8 -12 -15 -21 -15 -8 0 -15 -4 -15 -10 0 -5 -5 -10
-10 -10 -6 0 -20 -9 -32 -20 -12 -11 -30 -20 -40 -20 -10 0 -18 -4 -18 -10 0
-5 -7 -10 -15 -10 -8 0 -15 -5 -15 -11 0 -6 9 -8 23 -3 28 9 167 105 167 116
0 14 -18 9 -24 -7z"/>
<path d="M9620 3625 c0 -8 5 -15 10 -15 6 0 10 7 10 15 0 8 -4 15 -10 15 -5 0
-10 -7 -10 -15z"/>
<path d="M9640 3590 c0 -5 5 -10 10 -10 6 0 10 5 10 10 0 6 -4 10 -10 10 -5 0
-10 -4 -10 -10z"/>
<path d="M9671 3537 c0 -16 6 -35 14 -43 12 -13 15 -13 15 -2 0 8 -4 18 -9 24
-5 5 -11 18 -14 29 -3 15 -5 13 -6 -8z"/>
<path d="M9265 3519 c-11 -17 1 -21 15 -4 8 9 8 15 2 15 -6 0 -14 -5 -17 -11z"/>
<path d="M9188 3492 c-30 -4 -39 -22 -10 -21 25 1 57 15 46 20 -5 3 -21 3 -36
1z"/>
<path d="M9110 3455 c0 -9 6 -12 15 -9 8 4 12 10 9 15 -8 14 -24 10 -24 -6z"/>
<path d="M9736 3405 c4 -8 8 -15 10 -15 2 0 4 7 4 15 0 8 -4 15 -10 15 -5 0
-7 -7 -4 -15z"/>
<path d="M9753 3373 c2 -5 12 -26 22 -48 10 -22 31 -67 48 -100 23 -47 29 -73
29 -122 1 -59 -2 -67 -43 -120 -60 -80 -119 -143 -134 -143 -6 0 -27 -7 -45
-17 -28 -14 -40 -14 -74 -4 -23 7 -52 15 -66 18 -40 9 -87 50 -130 113 -47 69
-64 83 -49 40 6 -16 17 -30 25 -30 8 0 14 -8 14 -17 0 -23 83 -113 103 -113 8
0 17 -6 19 -12 3 -8 20 -11 45 -10 23 2 44 -1 48 -7 8 -14 45 -14 45 0 0 6 15
9 37 7 22 -2 38 2 41 10 2 6 13 12 24 12 12 0 18 5 15 13 -3 7 18 36 47 64 29
28 61 67 71 87 11 20 23 36 27 36 5 0 8 29 8 65 0 37 -4 65 -10 65 -5 0 -10 8
-10 19 0 10 -7 24 -15 31 -8 7 -13 16 -10 20 3 4 -2 13 -10 20 -8 7 -15 23
-15 36 0 13 -4 24 -10 24 -5 0 -10 7 -10 15 0 8 -4 15 -10 15 -5 0 -10 9 -10
20 0 11 -5 20 -11 20 -5 0 -8 -3 -6 -7z"/>
<path d="M9128 3339 c9 -17 23 -40 30 -52 13 -21 13 -20 7 8 -4 16 -10 32 -14
35 -4 3 -10 13 -14 23 -3 9 -11 17 -16 17 -5 0 -2 -14 7 -31z"/>
<path d="M9220 3160 c0 -6 9 -20 20 -32 11 -12 20 -30 20 -40 0 -10 5 -18 10
-18 14 0 13 5 -10 50 -20 40 -40 60 -40 40z"/>
<path d="M7758 2993 c6 -2 18 -2 25 0 6 3 1 5 -13 5 -14 0 -19 -2 -12 -5z"/>
<path d="M7648 2973 c6 -2 18 -2 25 0 6 3 1 5 -13 5 -14 0 -19 -2 -12 -5z"/>
<path d="M7575 2950 c-3 -5 -1 -10 4 -10 6 0 11 5 11 10 0 6 -2 10 -4 10 -3 0
-8 -4 -11 -10z"/>
<path d="M7490 2931 c0 -6 5 -13 10 -16 6 -4 10 -53 10 -115 0 -83 4 -112 15
-124 9 -9 15 -33 15 -65 0 -27 5 -53 10 -56 6 -4 10 -29 9 -56 -2 -28 3 -55 9
-61 7 -7 12 -22 12 -35 0 -13 4 -23 8 -23 5 0 15 -12 23 -27 20 -38 81 -103
96 -103 7 0 13 -4 13 -10 0 -5 11 -10 24 -10 13 0 27 -6 30 -12 5 -10 7 -10
12 0 4 8 32 12 89 12 46 0 87 5 90 10 3 6 28 10 56 10 27 0 49 5 49 10 0 6 9
10 19 10 10 0 21 7 25 15 3 8 12 15 21 15 8 0 15 9 15 20 0 11 5 20 11 20 16
0 38 31 39 53 0 9 5 17 10 17 6 0 10 9 10 20 0 11 5 20 10 20 6 0 10 28 10 65
0 37 -4 65 -10 65 -5 0 -10 15 -10 34 0 22 -6 36 -16 40 -13 5 -15 2 -9 -11 4
-10 10 -56 12 -103 5 -83 4 -86 -31 -145 -20 -33 -50 -67 -66 -76 -16 -9 -37
-22 -45 -29 -8 -7 -25 -10 -38 -6 -14 3 -32 -1 -43 -9 -14 -11 -50 -14 -139
-14 -133 -1 -137 1 -190 74 -16 22 -32 42 -35 45 -5 5 -19 47 -41 125 -20 73
-51 308 -47 369 3 63 2 66 -19 66 -13 0 -23 -4 -23 -9z"/>
<path d="M10740 5501 c0 -12 5 -21 10 -21 6 0 10 6 10 14 0 8 -4 18 -10 21 -5
3 -10 -3 -10 -14z"/>
<path d="M10875 5460 c3 -5 8 -10 11 -10 2 0 4 5 4 10 0 6 -5 10 -11 10 -5 0
-7 -4 -4 -10z"/>
<path d="M10630 5276 c0 -9 5 -16 10 -16 6 0 10 4 10 9 0 6 -4 13 -10 16 -5 3
-10 -1 -10 -9z"/>
<path d="M10550 5200 c0 -5 5 -10 10 -10 6 0 10 5 10 10 0 6 -4 10 -10 10 -5
0 -10 -4 -10 -10z"/>
<path d="M10742 5151 c4 -13 18 -16 19 -4 0 4 -5 9 -11 12 -7 2 -11 -2 -8 -8z"/>
<path d="M10720 5100 c0 -5 5 -10 10 -10 6 0 10 5 10 10 0 6 -4 10 -10 10 -5
0 -10 -4 -10 -10z"/>
<path d="M10524 5065 c3 -9 0 -15 -9 -15 -8 0 -15 -4 -15 -10 0 -13 16 -13 40
0 22 12 16 40 -7 40 -9 0 -13 -6 -9 -15z"/>
<path d="M10835 5070 c-3 -5 -1 -10 4 -10 6 0 11 5 11 10 0 6 -2 10 -4 10 -3
0 -8 -4 -11 -10z"/>
<path d="M10520 4955 c0 -8 -7 -15 -15 -15 -19 0 -39 -36 -25 -45 18 -11 48 5
54 28 8 32 7 47 -4 47 -5 0 -10 -7 -10 -15z"/>
<path d="M10425 4880 c4 -6 11 -8 16 -5 14 9 11 15 -7 15 -8 0 -12 -5 -9 -10z"/>
<path d="M10363 4801 c-13 -11 -23 -24 -23 -29 0 -6 -6 -13 -12 -15 -9 -4 -8
-6 3 -6 8 -1 25 9 36 22 42 46 39 64 -4 28z"/>
<path d="M10140 4760 c0 -5 5 -10 10 -10 6 0 10 5 10 10 0 6 -4 10 -10 10 -5
0 -10 -4 -10 -10z"/>
<path d="M10520 4704 c0 -8 5 -12 10 -9 6 3 10 10 10 16 0 5 -4 9 -10 9 -5 0
-10 -7 -10 -16z"/>
<path d="M10460 4690 c-13 -8 -12 -10 3 -10 9 0 17 5 17 10 0 12 -1 12 -20 0z"/>
<path d="M10770 4690 c0 -5 5 -10 10 -10 6 0 10 5 10 10 0 6 -4 10 -10 10 -5
0 -10 -4 -10 -10z"/>
<path d="M10320 4680 c0 -5 7 -10 15 -10 8 0 15 5 15 10 0 6 -7 10 -15 10 -8
0 -15 -4 -15 -10z"/>
<path d="M10300 4640 c0 -5 5 -10 10 -10 6 0 10 5 10 10 0 6 -4 10 -10 10 -5
0 -10 -4 -10 -10z"/>
<path d="M10561 4620 c-18 -16 -40 -26 -47 -23 -8 3 -14 0 -14 -5 0 -6 -9 -14
-20 -17 -11 -3 -20 -11 -20 -16 0 -5 9 -9 20 -9 11 0 20 7 20 16 0 11 6 14 20
10 11 -3 30 -9 41 -12 19 -5 21 -3 16 17 -4 15 0 30 10 41 27 30 10 28 -26 -2z"/>
<path d="M10430 4605 c0 -9 5 -15 11 -13 6 2 11 8 11 13 0 5 -5 11 -11 13 -6
2 -11 -4 -11 -13z"/>
<path d="M10735 4440 c-7 -12 2 -30 16 -30 5 0 9 9 9 20 0 21 -15 27 -25 10z"/>
<path d="M10005 4421 c-6 -11 9 -23 19 -14 9 9 7 23 -3 23 -6 0 -12 -4 -16 -9z"/>
<path d="M10070 4230 c11 -21 22 -25 33 -13 9 9 -12 33 -30 33 -11 0 -11 -4
-3 -20z"/>
<path d="M10460 3800 c0 -5 5 -10 10 -10 6 0 10 5 10 10 0 6 -4 10 -10 10 -5
0 -10 -4 -10 -10z"/>
<path d="M10405 5430 c-3 -5 1 -10 9 -10 9 0 16 5 16 10 0 6 -4 10 -9 10 -6 0
-13 -4 -16 -10z"/>
<path d="M5300 4615 c0 -9 6 -12 15 -9 8 4 15 10 15 15 0 5 -7 9 -15 9 -8 0
-15 -7 -15 -15z"/>
<path d="M5384 4617 c-8 -21 2 -35 16 -21 5 5 6 15 0 24 -8 12 -10 12 -16 -3z"/>
<path d="M5280 4513 c0 -4 9 -19 21 -33 l20 -25 -3 30 c-2 19 -9 31 -20 33
-10 2 -18 0 -18 -5z"/>
<path d="M5317 4373 c-10 -10 -8 -33 3 -33 5 0 14 9 20 20 8 15 8 20 -3 20 -8
0 -17 -3 -20 -7z"/>
<path d="M5300 4260 c0 -5 4 -10 9 -10 6 0 13 5 16 10 3 6 -1 10 -9 10 -9 0
-16 -4 -16 -10z"/>
<path d="M5390 4246 c0 -2 7 -9 15 -16 12 -10 15 -10 15 4 0 9 -7 16 -15 16
-8 0 -15 -2 -15 -4z"/>
<path d="M5347 4233 c-4 -3 -7 -11 -7 -17 0 -6 5 -5 12 2 6 6 9 14 7 17 -3 3
-9 2 -12 -2z"/>
<path d="M5476 4155 c-6 -18 -36 -20 -36 -3 0 6 -2 9 -5 7 -7 -8 6 -49 16 -49
12 0 49 38 49 50 0 15 -17 12 -24 -5z"/>
<path d="M5395 4140 c-3 -5 -1 -10 4 -10 6 0 11 5 11 10 0 6 -2 10 -4 10 -3 0
-8 -4 -11 -10z"/>
<path d="M5395 4049 c-4 -6 -4 -13 -1 -16 8 -8 36 5 36 17 0 13 -27 13 -35 -1z"/>
<path d="M5483 4005 c-3 -9 -3 -18 0 -21 9 -9 27 6 27 22 0 19 -19 18 -27 -1z"/>
<path d="M5405 3890 c-3 -5 1 -10 10 -10 9 0 13 5 10 10 -3 6 -8 10 -10 10 -2
0 -7 -4 -10 -10z"/>
<path d="M5395 3820 c3 -5 8 -10 11 -10 2 0 4 5 4 10 0 6 -5 10 -11 10 -5 0
-7 -4 -4 -10z"/>
<path d="M5332 3746 c-11 -14 -27 -26 -36 -26 -9 0 -16 -4 -16 -10 0 -15 11
-12 44 9 17 11 33 18 38 15 10 -7 10 7 -1 24 -6 11 -13 8 -29 -12z"/>
<path d="M5299 3642 c-21 -18 -21 -20 -7 -41 l16 -22 16 32 c26 53 17 64 -25
31z"/>
<path d="M4736 3531 c-4 -7 -5 -15 -2 -18 9 -9 19 4 14 18 -4 11 -6 11 -12 0z"/>
<path d="M5115 3470 c-3 -5 1 -10 9 -10 8 0 18 5 21 10 3 6 -1 10 -9 10 -8 0
-18 -4 -21 -10z"/>
<path d="M4925 3430 c-4 -6 -3 -16 3 -22 13 -13 23 4 13 21 -7 10 -10 10 -16
1z"/>
<path d="M4875 3350 c-7 -12 2 -30 16 -30 5 0 9 9 9 20 0 21 -15 27 -25 10z"/>
<path d="M5030 3330 c0 -5 5 -10 10 -10 6 0 10 5 10 10 0 6 -4 10 -10 10 -5 0
-10 -4 -10 -10z"/>
<path d="M4774 3318 c-8 -12 10 -16 34 -7 12 5 22 10 22 13 0 7 -52 2 -56 -6z"/>
<path d="M4931 3264 c0 -11 3 -14 6 -6 3 7 2 16 -1 19 -3 4 -6 -2 -5 -13z"/>
<path d="M4890 3229 c0 -5 5 -7 10 -4 6 3 10 8 10 11 0 2 -4 4 -10 4 -5 0 -10
-5 -10 -11z"/>
<path d="M6160 4016 c0 -8 5 -18 10 -21 6 -3 10 1 10 9 0 8 -4 18 -10 21 -5 3
-10 -1 -10 -9z"/>
<path d="M6130 3954 c0 -8 5 -12 10 -9 6 3 10 10 10 16 0 5 -4 9 -10 9 -5 0
-10 -7 -10 -16z"/>
<path d="M6216 3953 c-12 -12 -6 -33 9 -33 8 0 15 6 15 14 0 17 -14 28 -24 19z"/>
<path d="M6120 3913 c0 -22 25 -61 34 -52 9 8 -9 62 -22 67 -7 2 -12 -5 -12
-15z"/>
<path d="M6087 3865 c-8 -18 11 -31 25 -17 11 11 3 32 -12 32 -4 0 -10 -7 -13
-15z"/>
<path d="M6190 3812 c-19 -18 -26 -20 -28 -9 -4 19 -39 29 -45 12 -3 -6 8 -24
25 -38 24 -22 33 -24 48 -15 15 10 37 67 28 73 -2 0 -14 -10 -28 -23z"/>
<path d="M6060 3710 c0 -5 7 -10 15 -10 8 0 15 5 15 10 0 6 -7 10 -15 10 -8 0
-15 -4 -15 -10z"/>
<path d="M6180 3710 c0 -5 5 -10 10 -10 6 0 10 5 10 10 0 6 -4 10 -10 10 -5 0
-10 -4 -10 -10z"/>
<path d="M5578 3906 c-23 -17 -23 -26 2 -26 13 0 20 7 20 20 0 23 0 23 -22 6z"/>
</g>
</svg>
