<?xml version="1.0" standalone="no"?>
<!DOCTYPE svg PUBLIC "-//W3C//DTD SVG 20010904//EN"
 "http://www.w3.org/TR/2001/REC-SVG-20010904/DTD/svg10.dtd">
<svg version="1.0" xmlns="http://www.w3.org/2000/svg"
 width="600.000000pt" height="600.000000pt" viewBox="0 0 600.000000 600.000000"
 preserveAspectRatio="xMidYMid meet">
<metadata>
Created by potrace 1.11, written by Peter Selinger 2001-2013
</metadata>
<g transform="translate(0.000000,600.000000) scale(0.100000,-0.100000)"
fill="#000000" stroke="none">
<path d="M5408 5031 c-26 -11 -65 -33 -87 -50 -32 -25 -44 -30 -63 -22 -12 5
-26 9 -30 10 -5 0 -9 1 -10 2 -2 1 -14 2 -28 4 -14 2 -45 6 -70 10 -25 4 -58
8 -75 9 -16 1 -34 4 -40 7 -14 7 -407 3 -480 -5 -33 -3 -85 -9 -115 -12 -88
-9 -113 -12 -140 -18 -14 -3 -43 -8 -65 -11 -22 -3 -51 -7 -65 -10 -14 -3 -38
-7 -55 -10 -16 -2 -41 -7 -55 -10 -14 -3 -36 -8 -50 -11 -29 -6 -228 -53 -250
-59 -8 -2 -40 -11 -70 -20 -30 -9 -64 -18 -75 -20 -11 -2 -49 -13 -85 -25 -36
-12 -74 -24 -85 -25 -11 -2 -45 -13 -75 -25 -30 -12 -62 -23 -70 -25 -24 -6
-81 -26 -125 -44 -21 -9 -42 -16 -45 -16 -7 0 -80 -30 -148 -61 -29 -13 -59
-24 -67 -24 -9 0 -47 -16 -85 -35 -39 -19 -70 -33 -70 -31 0 8 -644 -312 -660
-327 -8 -8 -42 -29 -75 -46 -87 -47 -158 -88 -171 -99 -6 -6 -29 -19 -52 -31
l-40 -21 -49 23 c-43 19 -64 22 -188 22 -129 -1 -147 -3 -225 -30 l-85 -30 -3
-192 c-1 -106 -6 -193 -10 -193 -4 0 -20 -12 -35 -26 -32 -30 -30 -31 -60 26
-31 59 -98 103 -215 140 -53 17 -107 38 -119 46 -47 30 -17 75 58 89 49 9 103
-15 124 -55 9 -18 20 -28 24 -24 52 59 132 178 127 190 -3 8 -32 27 -63 42
-55 26 -66 27 -203 27 -127 -1 -152 -4 -202 -24 -133 -52 -205 -132 -194 -215
10 -80 60 -119 219 -172 139 -46 167 -61 167 -92 0 -58 -51 -92 -140 -92 -65
0 -110 19 -142 60 l-26 33 -54 -84 c-30 -46 -64 -100 -76 -121 l-22 -36 48
-36 c89 -65 147 -86 240 -86 l83 0 -65 -67 c-74 -79 -182 -205 -216 -254 -13
-19 -27 -36 -31 -39 -21 -16 -140 -209 -186 -302 -51 -101 -107 -249 -118
-308 -3 -14 -7 -36 -10 -50 -16 -68 -13 -201 6 -274 19 -74 79 -208 106 -234
7 -7 13 -18 13 -24 0 -6 2 -9 5 -6 3 3 24 -13 48 -36 53 -52 95 -86 105 -86 4
0 14 -5 23 -12 32 -26 168 -86 214 -95 11 -2 27 -6 35 -10 8 -3 20 -7 25 -8 6
-2 30 -8 55 -15 25 -7 56 -14 70 -15 14 -2 25 -4 25 -5 0 -3 53 -9 145 -17
198 -15 555 -4 700 23 19 4 52 8 73 10 21 2 46 5 55 8 9 3 35 8 57 11 47 7 71
12 105 20 14 3 39 8 55 11 17 3 54 12 84 19 37 9 60 11 72 4 14 -7 24 -4 39
11 11 11 24 21 30 21 13 2 17 3 64 17 22 6 42 9 44 7 3 -2 13 0 24 6 44 24 56
19 71 -24 l14 -42 70 68 c63 60 125 97 188 110 11 2 11 0 -5 -117 -6 -44 -9
-80 -8 -81 7 -7 421 -115 425 -111 2 2 -22 97 -53 211 -49 174 -56 208 -43
216 24 15 44 6 41 -20 -2 -15 0 -21 8 -16 7 4 9 -2 6 -19 -3 -18 -1 -24 6 -20
8 5 9 -1 5 -16 -3 -13 -1 -30 5 -37 6 -8 8 -16 4 -20 -3 -3 2 -15 11 -26 10
-11 12 -17 6 -13 -8 4 -13 1 -13 -9 0 -9 4 -14 9 -11 5 3 12 -1 15 -10 9 -23
8 -26 -6 -18 -10 6 -10 4 0 -7 6 -7 12 -24 12 -37 0 -16 4 -21 13 -16 7 5 6 0
-3 -11 -9 -11 -10 -16 -2 -11 8 5 12 -1 12 -23 0 -16 7 -37 16 -45 8 -9 11
-16 5 -16 -14 0 -14 -37 -1 -45 6 -3 10 -15 10 -26 0 -11 4 -18 9 -15 5 4 7
-4 3 -16 -3 -13 -1 -19 5 -15 6 4 8 -4 5 -20 -3 -17 -1 -24 6 -19 6 3 8 -1 6
-11 -6 -25 11 -78 24 -76 6 2 9 -4 6 -11 -7 -18 14 -59 26 -51 5 3 12 1 15 -5
9 -14 173 -11 188 4 7 6 21 11 32 11 11 0 19 5 18 11 -1 7 6 10 17 7 11 -3 27
1 36 8 9 8 24 14 33 14 10 0 15 7 13 19 -2 13 1 16 10 10 9 -5 8 -2 -2 11 -12
15 -12 17 -1 10 11 -6 13 -4 8 8 -3 9 -2 19 2 22 5 3 7 14 4 25 -3 11 -10 17
-15 14 -6 -4 -7 2 -3 16 5 15 3 20 -3 16 -7 -4 -9 3 -6 19 2 14 0 25 -6 25 -6
0 -10 6 -9 13 4 20 -12 77 -22 77 -5 0 -9 5 -9 11 0 5 4 7 10 4 6 -3 7 1 4 9
-3 9 -11 13 -16 10 -7 -4 -7 0 0 12 11 22 6 73 -9 90 -7 8 -6 14 1 19 7 4 7
12 0 26 -6 11 -16 16 -22 13 -7 -5 -8 -2 -2 7 15 25 14 45 -6 66 -14 16 -16
23 -7 33 9 10 9 11 -2 5 -10 -6 -12 -4 -5 6 12 20 11 50 -3 79 -6 15 -11 33
-11 40 2 33 -3 51 -12 45 -6 -4 -7 6 -4 24 4 20 1 37 -7 48 -10 11 -10 14 -1
9 7 -4 12 -1 12 8 0 10 31 31 85 56 82 37 87 38 104 21 9 -9 16 -22 14 -28 -2
-6 1 -15 8 -19 8 -5 9 -3 4 6 -5 9 -4 11 4 6 6 -4 9 -12 5 -17 -3 -6 2 -17 12
-25 11 -9 12 -12 5 -8 -10 5 -8 -3 5 -22 12 -16 24 -37 27 -47 4 -11 12 -15
18 -11 8 4 9 3 5 -4 -4 -6 8 -40 26 -74 17 -35 33 -69 34 -77 2 -7 7 -18 13
-24 6 -6 11 -19 11 -29 0 -10 7 -21 15 -24 8 -4 15 -13 15 -21 0 -8 4 -12 8
-9 4 2 8 -7 8 -22 0 -36 20 -92 33 -92 6 0 17 -16 26 -36 8 -19 19 -33 25 -29
6 4 7 -1 3 -11 -5 -13 -3 -15 7 -9 9 5 11 4 6 -3 -10 -16 22 -74 36 -66 7 4 8
3 4 -4 -11 -18 11 -49 43 -60 23 -8 34 -7 52 6 12 8 19 10 15 4 -5 -8 -2 -10
8 -6 9 3 13 10 10 15 -3 5 2 6 10 3 18 -7 59 14 51 26 -4 6 1 7 11 3 10 -4 15
-2 11 4 -3 5 4 9 16 9 13 -1 21 4 19 12 -1 8 2 11 8 7 5 -3 25 2 42 12 36 20
49 33 42 44 -2 4 3 9 11 12 22 9 -7 105 -31 100 -6 -1 -10 8 -10 20 1 13 -4
21 -12 19 -8 -1 -10 2 -7 8 11 17 -4 62 -17 54 -6 -4 -8 -3 -5 4 9 14 -3 43
-14 36 -5 -3 -6 3 -2 12 4 11 3 15 -4 11 -7 -5 -9 1 -5 15 3 14 1 19 -6 14 -7
-4 -9 2 -6 20 4 20 1 25 -10 21 -10 -4 -13 -1 -9 9 3 7 0 14 -7 14 -6 0 -8 5
-5 10 9 15 -5 51 -17 44 -6 -4 -8 -2 -5 4 9 13 -2 44 -13 37 -5 -3 -6 4 -3 14
3 11 -16 70 -41 131 -25 62 -43 117 -40 121 3 5 0 9 -6 9 -6 0 -9 4 -6 9 3 5
-1 14 -9 21 -8 7 -15 20 -15 29 0 9 -6 28 -14 42 -13 25 -12 27 21 43 33 15
34 15 42 -7 5 -12 57 -155 115 -317 59 -162 111 -299 116 -303 4 -5 83 32 175
83 124 69 165 96 161 107 -4 8 -54 80 -112 160 -59 79 -105 146 -102 148 2 2
120 -52 263 -120 143 -67 262 -119 263 -114 2 5 -52 162 -120 349 l-123 340
-40 1 c-22 0 -60 4 -84 7 l-44 7 44 30 c47 32 52 35 86 63 11 9 31 24 43 32
12 8 32 24 44 35 12 11 41 35 64 53 141 114 360 322 477 452 90 100 110 124
175 210 36 47 68 87 71 90 8 7 113 180 130 215 9 17 20 39 27 50 29 51 96 235
107 294 3 14 7 37 11 51 3 14 7 63 9 110 4 99 -18 208 -58 287 -26 50 -26 52
-11 97 21 61 15 176 -11 231 -29 59 -97 121 -161 144 -71 27 -189 28 -256 2z
m-478 -155 c30 -4 60 -12 67 -18 7 -6 13 -8 13 -5 0 4 18 0 40 -8 22 -8 40
-12 40 -9 0 3 6 2 13 -3 6 -4 14 -8 17 -8 3 0 26 -8 51 -18 l47 -18 4 -62 c5
-77 30 -129 86 -184 54 -53 132 -83 216 -83 71 0 68 3 92 -88 10 -36 13 -94
11 -185 -3 -123 -6 -139 -40 -232 -20 -55 -41 -108 -47 -117 -5 -10 -10 -27
-10 -38 0 -11 -4 -20 -8 -20 -4 0 -16 -20 -26 -45 -11 -25 -22 -45 -25 -45 -9
0 -47 -72 -43 -82 1 -4 -2 -8 -8 -8 -5 0 -10 -6 -10 -12 0 -7 -16 -30 -34 -52
-19 -21 -40 -50 -47 -64 -8 -14 -23 -35 -34 -47 -11 -11 -38 -43 -60 -70 -22
-28 -59 -71 -82 -96 -24 -25 -43 -48 -43 -51 0 -10 -193 -198 -202 -198 -5 0
-6 -4 -3 -10 3 -5 2 -10 -3 -10 -4 0 -33 -22 -62 -50 -29 -27 -55 -50 -57 -50
-5 0 -53 -42 -101 -87 -25 -24 -49 -43 -54 -43 -5 0 -22 -12 -38 -28 -15 -15
-38 -34 -50 -42 -53 -35 -156 -114 -172 -130 -10 -10 -26 -21 -38 -25 -11 -3
-20 -10 -20 -14 0 -4 -12 -13 -27 -20 -16 -7 -54 -30 -86 -52 -45 -31 -63 -38
-84 -33 -23 6 -25 4 -21 -14 5 -16 -2 -26 -27 -41 -35 -20 -55 -13 -55 19 0 9
-4 20 -8 26 -5 5 -21 50 -37 99 -15 50 -36 110 -48 135 -11 25 -29 65 -40 90
-11 25 -20 48 -19 52 1 3 -5 12 -13 18 -8 7 -15 18 -15 24 0 15 -63 139 -75
148 -5 4 -10 18 -11 30 -2 70 -4 79 -16 72 -10 -5 -10 -4 -1 6 8 9 16 10 25 3
18 -14 50 -25 44 -15 -3 5 1 9 9 9 8 0 12 -4 10 -8 -6 -8 25 -22 33 -14 3 3
-1 5 -8 5 -7 0 -10 3 -7 6 4 4 12 2 19 -3 18 -14 59 -23 52 -12 -10 17 39 9
53 -8 8 -10 12 -12 8 -5 -3 7 0 12 8 12 8 0 18 -8 21 -17 5 -13 9 -14 15 -5 6
10 14 9 37 -3 33 -17 57 -20 34 -5 -11 8 -7 9 15 4 16 -4 36 -13 43 -21 7 -7
23 -13 35 -13 18 0 19 2 7 10 -13 9 -13 10 1 10 8 0 24 -7 35 -15 21 -16 139
-21 130 -6 -3 5 2 8 12 7 9 0 16 5 14 12 -1 6 1 11 5 11 21 -3 29 4 41 34 7
17 18 40 24 51 7 14 6 21 -4 27 -10 7 -10 9 2 9 12 0 12 2 2 9 -8 4 -13 11
-13 15 3 21 -1 27 -14 22 -8 -3 -14 -1 -12 5 1 6 -17 21 -41 35 -24 13 -41 19
-37 12 4 -7 0 -5 -9 6 -8 10 -19 15 -25 11 -6 -3 -11 -2 -11 4 0 6 -7 7 -17 4
-10 -4 -14 -2 -10 4 4 6 0 14 -9 17 -10 4 -13 2 -8 -7 4 -6 -2 -4 -14 6 -11
11 -26 16 -31 12 -6 -3 -11 -1 -11 4 0 6 -7 11 -15 11 -8 0 -15 4 -15 9 0 6
-9 8 -19 6 -11 -2 -25 3 -31 11 -7 7 -16 11 -21 9 -4 -3 -15 5 -24 18 -11 17
-23 23 -45 22 -16 -1 -27 2 -24 6 2 4 -10 10 -27 14 -17 4 -55 20 -85 35 -30
16 -54 26 -54 23 0 -3 -6 0 -13 6 -8 6 -18 7 -22 3 -5 -4 -5 -2 -2 4 8 14 -14
25 -62 31 -18 2 -45 10 -60 17 -14 7 -32 11 -40 8 -9 -3 -11 0 -6 8 6 10 4 12
-8 7 -9 -3 -17 -1 -19 4 -3 9 -13 12 -47 18 -3 1 0 6 6 12 7 7 6 23 -3 52 -31
100 -44 150 -39 157 3 5 0 12 -6 15 -5 4 -8 14 -4 22 3 9 -4 32 -16 52 -12 20
-25 49 -28 65 -6 29 -58 69 -83 63 -7 -1 -14 7 -16 18 -2 11 -15 31 -30 44
-15 13 -21 20 -14 17 25 -14 11 13 -18 34 -16 12 -30 19 -30 15 0 -3 -9 3 -20
13 -11 10 -40 25 -63 33 -23 7 -44 16 -47 19 -6 7 -82 30 -99 30 -7 0 -9 -5
-6 -11 4 -6 -3 -5 -14 3 -18 11 -23 11 -31 -2 -8 -13 -10 -13 -10 -1 0 11 -3
12 -12 3 -8 -8 -17 -8 -30 -1 -13 7 -20 6 -24 -4 -3 -8 -16 -13 -32 -11 -14 1
-33 -3 -41 -9 -12 -10 -13 -9 -7 2 6 8 0 7 -18 -4 -14 -10 -26 -14 -26 -10 0
4 -7 2 -15 -5 -8 -7 -15 -10 -15 -7 0 3 -16 -1 -36 -9 -37 -16 -78 -52 -105
-94 -47 -75 -61 -103 -50 -96 10 6 9 2 -1 -15 -8 -13 -14 -34 -13 -46 1 -13
-2 -23 -7 -23 -5 0 -6 -4 -3 -10 3 -5 3 -16 -2 -22 -11 -18 -13 -39 -3 -33 4
3 10 -6 12 -19 3 -17 1 -23 -8 -19 -9 3 -11 -2 -7 -18 4 -14 2 -20 -4 -16 -19
12 -39 -27 -36 -73 2 -44 9 -105 13 -105 1 0 3 -11 6 -25 2 -14 8 -36 13 -50
5 -14 15 -51 22 -82 6 -32 17 -58 22 -58 6 0 7 -3 4 -6 -3 -4 -2 -15 3 -25 7
-12 6 -20 -1 -24 -6 -4 -8 -14 -5 -22 3 -8 2 -11 -3 -8 -11 6 -42 -35 -35 -46
2 -4 -1 -11 -7 -15 -8 -5 -10 -2 -5 7 4 8 1 5 -8 -5 -8 -10 -13 -24 -9 -30 3
-6 3 -8 -2 -4 -8 8 -61 -61 -57 -74 1 -5 -3 -8 -9 -8 -6 0 -17 -7 -26 -15 -10
-11 -26 -14 -50 -10 -24 4 -32 2 -27 -7 5 -7 3 -8 -7 -2 -8 5 -21 9 -29 9 -8
0 -21 4 -27 8 -8 5 -13 4 -13 -2 0 -6 -5 -11 -11 -11 -5 0 -7 6 -3 13 5 9 4 9
-5 1 -15 -13 -115 -7 -145 8 -13 7 -16 7 -12 -1 4 -6 0 -11 -9 -11 -9 0 -14 4
-11 9 3 5 -3 11 -15 14 -15 4 -18 2 -10 -7 7 -8 5 -12 -10 -13 -11 -1 -17 2
-14 6 9 16 -54 4 -70 -13 -9 -9 -20 -14 -24 -12 -12 8 -41 -61 -41 -97 0 -18
-4 -38 -9 -46 -11 -18 -2 -52 13 -44 6 3 6 0 -1 -8 -7 -7 -13 -18 -13 -25 0
-19 98 -77 120 -71 12 3 18 1 14 -5 -4 -6 1 -8 15 -3 13 4 21 2 21 -5 0 -6 -4
-8 -10 -5 -5 3 -10 1 -10 -4 0 -15 27 -14 33 2 3 7 6 5 6 -5 1 -12 9 -18 24
-18 12 0 49 -9 81 -21 32 -11 77 -22 99 -24 22 -3 42 -7 45 -10 3 -2 12 1 20
8 10 8 13 8 9 1 -7 -12 25 -19 118 -28 31 -2 44 1 58 18 10 11 16 15 12 7 -6
-10 -2 -11 16 -6 35 11 70 36 64 45 -3 5 4 6 15 3 12 -3 20 0 20 6 0 7 -5 9
-12 5 -6 -4 -8 -3 -5 4 4 5 17 8 29 4 17 -4 20 -2 15 11 -4 11 -2 14 8 11 7
-3 27 2 44 10 36 19 39 19 38 4 -1 -30 4 -49 11 -44 4 2 8 -9 8 -25 1 -17 10
-37 20 -45 11 -9 13 -13 7 -9 -16 8 -5 -26 13 -40 7 -5 14 -26 16 -45 2 -19 7
-38 11 -41 4 -3 10 -18 13 -34 3 -15 9 -35 13 -44 5 -9 6 -22 3 -30 -3 -8 0
-11 6 -7 7 4 9 -3 6 -19 -2 -14 -1 -25 4 -25 4 0 9 -12 10 -27 1 -15 8 -30 15
-35 6 -4 8 -8 4 -8 -4 0 -3 -9 3 -19 5 -11 11 -31 12 -45 1 -15 6 -26 11 -26
5 0 7 -10 6 -22 -1 -13 3 -34 8 -48 6 -14 8 -31 5 -39 -4 -10 -1 -12 8 -6 10
6 12 4 7 -8 -3 -10 -3 -17 2 -17 5 0 8 -10 7 -22 -1 -13 2 -26 6 -29 4 -3 9
-17 10 -32 1 -15 5 -27 8 -27 3 0 7 -16 8 -36 2 -20 7 -45 12 -55 6 -10 10
-22 10 -27 0 -8 -50 -36 -55 -30 -1 2 -19 66 -40 143 -21 77 -41 143 -44 147
-3 3 -73 -56 -156 -132 -82 -76 -153 -135 -157 -132 -3 4 -57 100 -118 215
-62 114 -115 207 -119 207 -5 0 -376 -678 -389 -711 -2 -4 9 -15 25 -23 15 -8
26 -16 23 -16 -39 -10 -158 -32 -185 -36 -16 -2 -43 -6 -60 -9 -91 -16 -187
-20 -435 -20 -293 1 -321 3 -415 31 -33 10 -63 18 -67 18 -3 1 -10 4 -14 8 -4
5 -17 8 -30 8 -12 0 -39 8 -61 19 -21 10 -58 27 -83 37 -25 10 -51 24 -58 31
-7 7 -18 13 -23 13 -5 0 -29 18 -52 41 -23 22 -53 47 -67 55 -29 18 -113 173
-135 250 -11 37 -14 89 -12 185 3 131 4 137 46 244 23 61 45 120 48 133 3 12
9 22 14 22 5 0 9 6 9 14 0 16 29 73 47 93 6 7 23 38 38 68 14 30 29 55 33 55
4 0 18 18 32 40 14 22 28 40 32 40 4 0 10 10 14 22 4 13 12 27 19 33 6 5 46
51 87 100 42 50 85 99 97 109 11 11 21 25 21 33 0 7 4 13 8 13 5 0 24 13 43
30 19 16 59 47 89 68 30 20 68 57 85 81 16 24 48 62 70 84 l40 41 3 -122 3
-122 164 0 165 0 0 119 0 120 48 6 c102 15 185 72 229 158 33 66 42 182 19
247 -14 40 -14 46 1 62 9 10 31 23 49 30 19 7 34 15 34 18 0 8 51 32 56 27 2
-2 -59 -165 -137 -361 -79 -200 -138 -361 -133 -366 15 -13 240 -130 252 -130
6 0 31 37 56 83 l45 83 68 17 c80 19 72 24 131 -90 20 -40 41 -73 45 -73 4 0
68 32 142 71 l134 70 -175 352 c-97 194 -177 353 -178 354 -1 1 -42 13 -90 26
l-89 23 51 22 c28 12 52 26 54 31 1 4 55 34 118 65 63 32 149 75 190 96 148
77 177 91 302 150 70 33 132 60 138 60 14 0 104 35 145 57 17 8 41 19 55 23
14 5 50 18 80 30 30 12 66 23 78 26 13 3 43 11 65 20 23 8 49 16 57 18 8 2 42
14 75 26 33 12 67 23 75 24 8 2 42 11 75 21 77 24 81 25 140 35 28 5 85 18
127 29 42 12 93 23 113 26 19 2 39 6 43 9 4 2 31 7 60 10 29 3 56 7 60 10 10
6 72 15 149 21 37 4 69 8 71 10 7 7 535 -1 592 -9z m-1774 -764 c61 -39 132
-111 137 -137 1 -11 9 -30 15 -42 7 -13 10 -23 6 -23 -3 0 -2 -6 3 -12 5 -7
11 -49 12 -93 2 -44 5 -84 8 -89 4 -5 1 -6 -6 -1 -9 5 -12 1 -10 -11 5 -28
-18 -63 -79 -124 -31 -30 -55 -58 -54 -62 1 -4 -5 -5 -13 -2 -8 4 -17 -1 -21
-10 -3 -9 -10 -14 -14 -11 -14 9 -40 -6 -33 -19 3 -6 2 -7 -3 -3 -4 4 -9 16
-9 25 -4 55 -6 63 -15 57 -5 -3 -10 -2 -10 3 0 5 15 8 33 7 53 -5 106 36 133
105 14 36 15 43 3 51 -11 7 -11 9 3 9 30 0 34 102 9 198 -6 21 -26 53 -45 71
-32 31 -40 34 -103 35 -39 0 -89 -6 -118 -15 l-50 -17 -25 77 -25 76 111 -6
c103 -5 115 -7 160 -37z m-81 -92 c4 -6 3 -10 -2 -9 -20 3 -34 -2 -28 -11 4
-6 1 -9 -7 -8 -7 2 -12 -3 -10 -10 1 -8 -2 -11 -8 -7 -12 8 9 43 30 49 8 2 16
4 17 5 1 0 5 -4 8 -9z m48 3 c-7 -2 -19 -2 -25 0 -7 3 -2 5 12 5 14 0 19 -2
13 -5z m7 -17 c0 -3 -4 -8 -10 -11 -5 -3 -10 -1 -10 4 0 6 5 11 10 11 6 0 10
-2 10 -4z m50 -10 c0 -2 -7 -7 -16 -10 -8 -3 -12 -2 -9 4 6 10 25 14 25 6z
m-230 -16 c0 -5 -2 -10 -4 -10 -3 0 -8 5 -11 10 -3 6 -1 10 4 10 6 0 11 -4 11
-10z m152 0 c2 -5 13 -11 25 -13 11 -1 28 -9 36 -15 12 -10 16 -10 19 -1 2 7
12 13 21 15 9 1 15 -2 11 -7 -3 -5 -9 -7 -14 -4 -14 9 -22 -33 -11 -54 16 -29
21 -101 8 -128 -16 -35 -27 -28 -27 20 0 56 -18 94 -52 108 -16 6 -28 15 -28
19 0 5 -13 11 -30 15 -39 9 -45 20 -12 23 14 1 31 7 37 13 7 9 4 10 -13 6 -12
-3 -20 -1 -16 4 7 12 41 12 46 -1z m-222 -6 c0 -8 -19 -13 -24 -6 -3 5 1 9 9
9 8 0 15 -2 15 -3z m47 -11 c-4 -3 -3 -11 3 -17 6 -8 3 -12 -9 -12 -12 0 -17
6 -13 18 2 10 9 18 15 18 6 0 7 -3 4 -7z m80 -8 c0 -8 -6 -16 -13 -19 -7 -3
-10 2 -7 15 6 22 20 26 20 4z m-197 -5 c-8 -5 -19 -10 -25 -10 -5 0 -3 5 5 10
8 5 20 10 25 10 6 0 3 -5 -5 -10z m40 -10 c0 -5 -4 -10 -10 -10 -5 0 -10 5
-10 10 0 6 5 10 10 10 6 0 10 -4 10 -10z m-43 -52 c2 -12 1 -19 -3 -16 -3 3
-6 12 -8 20 -1 7 -5 20 -10 28 -7 12 -6 13 4 3 8 -7 15 -23 17 -35z m163 34
c0 -5 -7 -9 -15 -9 -8 0 -12 4 -9 9 3 4 9 8 15 8 5 0 9 -4 9 -8z m-236 -18 c3
-8 2 -12 -4 -9 -6 3 -10 10 -10 16 0 14 7 11 14 -7z m498 2 c7 4 8 2 4 -5 -9
-13 -26 -5 -25 12 0 9 2 8 6 -1 2 -6 10 -9 15 -6z m-337 -6 c-3 -5 -12 -10
-18 -10 -7 0 -6 4 3 10 19 12 23 12 15 0z m117 -12 c-2 -10 -9 -18 -15 -18 -6
0 -7 3 -4 7 4 3 3 11 -3 17 -6 8 -3 12 9 12 12 0 17 -6 13 -18z m48 16 c0 -8
-19 -13 -24 -6 -3 5 1 9 9 9 8 0 15 -2 15 -3z m19 -6 c-1 -1 3 -12 9 -23 9
-17 7 -21 -8 -21 -12 0 -16 4 -11 11 5 5 7 18 5 28 -1 11 0 17 3 14 2 -3 4 -7
2 -9z m-222 -4 c-3 -3 -12 -4 -19 -1 -8 3 -5 6 6 6 11 1 17 -2 13 -5z m-132
-13 c3 -6 -5 -15 -17 -21 -21 -10 -21 -10 -6 3 10 8 15 17 11 20 -3 4 -4 7 0
7 3 0 8 -4 12 -9z m39 1 c3 -5 -1 -9 -9 -9 -8 0 -12 4 -9 9 3 4 7 8 9 8 2 0 6
-4 9 -8z m143 -6 c0 -8 -6 -12 -15 -8 -10 3 -13 1 -8 -6 3 -6 2 -13 -3 -16 -5
-4 -8 1 -7 10 2 12 21 32 32 34 0 0 1 -6 1 -14z m480 -8 c-3 -8 -6 -5 -6 6 -1
11 2 17 5 13 3 -3 4 -12 1 -19z m-137 2 c0 -5 -2 -10 -4 -10 -3 0 -8 5 -11 10
-3 6 -1 10 4 10 6 0 11 -4 11 -10z m-393 -6 c-3 -3 -12 -4 -19 -1 -8 3 -5 6 6
6 11 1 17 -2 13 -5z m-63 -25 c3 -3 -5 -5 -19 -5 -13 0 -22 3 -19 7 4 8 30 6
38 -2z m166 5 c0 -8 -19 -13 -24 -6 -3 5 1 9 9 9 8 0 15 -2 15 -3z m86 -9 c-1
-8 -5 -17 -8 -21 -5 -4 -4 16 1 34 3 9 9 -1 7 -13z m204 -21 c0 -19 -4 -33 -8
-30 -8 5 -4 66 4 66 2 0 4 -16 4 -36z m-159 1 c-5 -5 -7 -18 -6 -27 2 -10 -1
-18 -7 -18 -5 0 -8 6 -5 13 2 6 1 19 -4 27 -5 11 -2 16 11 16 12 0 16 -4 11
-11z m304 5 c3 -5 1 -10 -4 -10 -6 0 -11 5 -11 10 0 6 2 10 4 10 3 0 8 -4 11
-10z m-648 -15 c0 -8 -5 -11 -10 -8 -6 4 -8 0 -5 -8 6 -17 -28 -24 -37 -8 -4
5 2 6 12 2 16 -6 16 -5 4 10 -12 15 -12 17 2 12 8 -4 18 -2 22 4 9 15 12 14
12 -4z m197 2 c-5 -15 -54 -18 -54 -4 0 5 6 7 13 4 8 -3 20 -1 28 4 18 12 19
11 13 -4z m73 7 c-3 -3 -12 -4 -19 -1 -8 3 -5 6 6 6 11 1 17 -2 13 -5z m-165
-22 c4 -12 -1 -18 -13 -18 -12 0 -15 4 -9 12 6 6 7 14 3 17 -3 4 -2 7 4 7 6 0
13 -8 15 -18z m113 -27 c-1 -25 -5 -48 -7 -51 -3 -3 -4 14 -3 38 4 56 4 58 9
58 2 0 3 -20 1 -45z m52 19 c-3 -3 -12 -4 -19 -1 -8 3 -5 6 6 6 11 1 17 -2 13
-5z m388 -4 c3 -5 1 -10 -4 -10 -6 0 -11 5 -11 10 0 6 2 10 4 10 3 0 8 -4 11
-10z m-1781 -60 c17 -29 18 -34 3 -64 -18 -39 -69 -66 -126 -66 l-41 0 0 50
c0 48 1 50 50 82 28 18 50 39 50 47 0 21 41 -10 64 -49z m1203 36 c3 -3 -11
-4 -31 -2 -21 2 -40 6 -43 10 -3 3 11 4 31 2 21 -2 40 -6 43 -10z m214 -8 c5
-10 4 -15 -5 -15 -8 0 -12 7 -8 15 3 10 1 13 -6 8 -6 -3 -13 -2 -16 3 -4 5 1
8 10 7 9 -1 20 -9 25 -18z m-944 -246 c-38 -2 -72 -1 -74 2 -3 3 10 63 28 133
l33 128 41 -130 41 -130 -69 -3z m788 248 c-3 -5 0 -10 7 -11 10 0 10 -2 0 -6
-6 -2 -10 -8 -7 -13 7 -11 -22 -7 -32 5 -4 4 -3 5 4 1 6 -3 14 -2 18 4 3 5 0
10 -7 10 -9 0 -9 3 2 10 19 12 23 12 15 0z m266 -13 c-10 -9 -11 -8 -5 6 3 10
9 15 12 12 3 -3 0 -11 -7 -18z m-597 -3 c3 -8 2 -12 -4 -9 -6 3 -10 10 -10 16
0 14 7 11 14 -7z m173 1 c0 -8 -4 -12 -9 -9 -5 3 -6 10 -3 15 9 13 12 11 12
-6z m-214 -15 c-3 -11 -10 -23 -16 -27 -5 -3 -8 -2 -5 3 3 5 8 17 11 27 9 24
16 22 10 -3z m574 5 c0 -8 -4 -12 -9 -9 -5 3 -6 10 -3 15 9 13 12 11 12 -6z
m-322 -5 c3 -5 1 -10 -4 -10 -6 0 -11 5 -11 10 0 6 2 10 4 10 3 0 8 -4 11 -10z
m249 2 c3 -5 -1 -9 -9 -9 -8 0 -12 4 -9 9 3 4 7 8 9 8 2 0 6 -4 9 -8z m122 -4
c3 -4 -1 -5 -10 -4 -8 1 -18 5 -22 8 -3 4 1 5 10 4 8 -1 18 -5 22 -8z m47 -2
c4 -10 0 -12 -15 -8 -15 4 -17 7 -6 13 17 11 15 11 21 -5z m249 -9 c-10 -12
-9 -36 3 -65 5 -14 7 -14 15 -2 6 8 10 10 10 4 0 -23 -25 -44 -47 -38 -26 7
-32 51 -11 72 9 9 9 12 -2 12 -13 0 -13 2 0 10 13 9 13 10 0 11 -10 0 -8 3 5
8 25 10 39 3 27 -12z m-509 -10 c-4 -6 0 -8 9 -4 17 6 19 -16 3 -30 -4 -5 -5
-2 0 6 6 11 4 13 -11 7 -10 -4 -15 -4 -11 0 4 4 2 12 -3 19 -7 8 -5 12 5 12 8
0 11 -5 8 -10z m-138 -6 c3 -5 2 -12 -3 -15 -5 -3 -9 1 -9 9 0 17 3 19 12 6z
m38 -12 c-4 -15 -8 -17 -14 -8 -6 11 4 28 18 29 0 0 -1 -9 -4 -21z m160 2 c3
-13 1 -18 -9 -14 -7 2 -10 11 -7 19 7 19 10 18 16 -5z m24 4 c0 -8 -4 -12 -9
-9 -5 3 -6 10 -3 15 9 13 12 11 12 -6z m-160 -10 c0 -8 -4 -12 -9 -9 -5 3 -6
10 -3 15 9 13 12 11 12 -6z m194 -8 c-10 -9 -11 -8 -5 6 3 10 9 15 12 12 3 -3
0 -11 -7 -18z m85 -10 c0 -13 -6 -24 -13 -24 -9 0 -10 4 -2 14 9 10 8 13 -2
13 -11 0 -11 2 1 10 8 5 15 10 16 10 0 0 0 -10 0 -23z m-200 -24 c-2 -9 -9
-19 -17 -21 -9 -2 -10 -1 -3 5 6 4 10 16 8 26 -1 9 1 15 6 12 5 -3 7 -13 6
-22z m241 21 c-3 -3 -12 -4 -19 -1 -8 3 -5 6 6 6 11 1 17 -2 13 -5z m-357 -39
c0 -5 -5 -3 -10 5 -5 8 -10 20 -10 25 0 6 5 3 10 -5 5 -8 10 -19 10 -25z m50
29 c0 -8 -19 -13 -24 -6 -3 5 1 9 9 9 8 0 15 -2 15 -3z m179 -8 c9 -10 8 -15
-3 -19 -11 -4 -13 -1 -9 10 5 12 3 14 -7 8 -9 -5 -11 -4 -6 3 9 15 11 15 25
-2z m48 -1 c0 -8 -4 -12 -9 -9 -5 3 -6 10 -3 15 9 13 12 11 12 -6z m123 11 c0
-3 -4 -8 -10 -11 -5 -3 -10 -1 -10 4 0 6 5 11 10 11 6 0 10 -2 10 -4z m-325
-34 c-3 -3 -11 0 -18 7 -9 10 -8 11 6 5 10 -3 15 -9 12 -12z m278 5 c-4 -7 1
-8 13 -3 15 6 17 5 6 -5 -10 -11 -15 -10 -28 2 -13 14 -13 16 0 16 8 0 12 -5
9 -10z m-98 -17 c-1 -11 -5 -23 -10 -27 -4 -5 -5 -2 -1 5 5 7 1 12 -10 12 -16
0 -16 1 2 15 10 8 19 15 20 15 0 0 0 -9 -1 -20z m-185 -5 c0 -2 -6 -5 -13 -8
-8 -3 -14 1 -14 8 0 7 6 11 14 8 7 -3 13 -6 13 -8z m74 3 c-4 -5 -9 -7 -12 -4
-3 3 -12 0 -21 -7 -14 -10 -14 -10 -4 4 13 16 46 23 37 7z m166 -2 c0 -2 -7
-7 -16 -10 -8 -3 -12 -2 -9 4 6 10 25 14 25 6z m-148 -13 c-6 -2 -10 -9 -7
-13 3 -5 1 -11 -4 -14 -7 -5 -8 11 -2 32 1 1 7 2 14 1 9 0 9 -2 -1 -6z m-337
-53 c3 -11 11 -20 16 -20 6 0 8 -4 5 -9 -3 -4 6 -19 20 -32 21 -20 27 -21 34
-9 7 11 9 10 7 -7 0 -12 -4 -20 -7 -19 -3 2 -13 -5 -22 -15 -12 -13 -13 -19
-5 -23 7 -3 1 -4 -13 -3 -14 1 -24 8 -22 15 1 6 -3 12 -9 12 -8 0 -8 5 1 15 8
9 8 15 2 15 -6 0 -12 15 -14 33 -2 17 -8 31 -15 30 -9 -2 -11 12 -4 35 3 10
21 -2 26 -18z m779 11 c19 -7 19 -8 -2 -13 -12 -4 -20 -2 -17 2 3 5 -3 11 -12
13 -12 3 -13 5 -3 5 8 0 24 -3 34 -7z m-509 -89 c-3 -3 -11 0 -18 7 -9 10 -8
11 6 5 10 -3 15 -9 12 -12z m301 -27 c-1 -8 -5 -17 -8 -21 -5 -4 -4 16 1 34 3
9 9 -1 7 -13z m582 -10 c26 5 26 5 4 -5 -26 -11 -42 -6 -41 13 0 9 2 9 6 0 3
-8 15 -11 31 -8z m-613 -5 c3 -6 -1 -7 -9 -4 -10 4 -16 1 -16 -7 0 -7 -3 -9
-7 -6 -3 4 -11 2 -18 -3 -8 -7 -12 -5 -12 5 0 8 3 12 7 10 3 -2 12 0 20 6 19
11 27 11 35 -1z m491 -26 c-4 -9 -9 -15 -11 -12 -3 3 -3 13 1 22 4 9 9 15 11
12 3 -3 3 -13 -1 -22z m161 11 c0 -8 -4 -12 -9 -9 -5 3 -6 10 -3 15 9 13 12
11 12 -6z m-558 2 c-2 -1 -11 -8 -21 -15 -12 -10 -18 -10 -24 -1 -4 7 -3 9 4
5 6 -3 13 -2 17 4 3 5 11 10 17 10 6 0 9 -1 7 -3z m41 -3 c0 -8 -19 -13 -24
-6 -3 5 1 9 9 9 8 0 15 -2 15 -3z m-405 -14 c3 -5 1 -10 -4 -10 -6 0 -11 5
-11 10 0 6 2 10 4 10 3 0 8 -4 11 -10z m89 -5 c-4 -8 -8 -15 -10 -15 -2 0 -4
7 -4 15 0 8 4 15 10 15 5 0 7 -7 4 -15z m36 6 c0 -5 -7 -11 -14 -14 -10 -4
-13 -1 -9 9 6 15 23 19 23 5z m35 -1 c-3 -5 -12 -10 -18 -10 -7 0 -6 4 3 10
19 12 23 12 15 0z m817 -8 c9 -9 9 -12 0 -12 -7 0 -12 5 -12 11 0 5 -4 8 -9 4
-5 -3 -12 -1 -15 4 -8 13 22 7 36 -7z m-1052 3 c0 -1 -11 -12 -24 -24 -23 -21
-31 -12 -14 15 6 8 38 16 38 9z m117 -17 c-3 -8 -6 -5 -6 6 -1 11 2 17 5 13 3
-3 4 -12 1 -19z m397 6 c3 -8 2 -12 -4 -9 -6 3 -10 10 -10 16 0 14 7 11 14 -7z
m571 -4 c3 -5 1 -10 -4 -10 -6 0 -11 5 -11 10 0 6 2 10 4 10 3 0 8 -4 11 -10z
m-666 -37 c9 -18 9 -22 -2 -18 -7 3 -13 15 -14 26 -2 24 0 23 16 -8z m711 21
c0 -8 -19 -13 -24 -6 -3 5 1 9 9 9 8 0 15 -2 15 -3z m-910 -19 c0 -1 -8 -5
-18 -7 -11 -3 -19 0 -19 7 0 7 8 10 19 7 10 -2 18 -6 18 -7z m293 0 c4 -8 3
-16 -1 -19 -4 -3 -9 4 -9 15 -2 23 3 25 10 4z m-583 -15 c-8 -5 -15 -15 -15
-22 -1 -7 -6 -12 -13 -10 -7 1 -12 -3 -12 -10 0 -6 -3 -8 -7 -5 -8 8 36 57 51
57 6 0 4 -5 -4 -10z m548 -8 c-6 -7 -14 -9 -17 -5 -4 4 -10 11 -14 14 -5 4 3
6 16 5 20 -1 23 -4 15 -14z m864 -40 c-13 -2 -20 -8 -16 -14 4 -7 2 -8 -4 -4
-20 12 -3 34 21 28 l22 -7 -23 -3z m-1201 -9 c13 -16 12 -17 -3 -4 -10 7 -18
15 -18 17 0 8 8 3 21 -13z m1254 -3 c3 -6 -1 -7 -9 -4 -18 7 -21 14 -7 14 6 0
13 -4 16 -10z m-1523 -7 c-6 -2 -10 -9 -7 -14 4 -5 -1 -6 -10 -2 -13 5 -14 7
-3 14 7 5 18 8 23 8 6 0 4 -3 -3 -6z m302 -9 c3 -8 2 -12 -4 -9 -6 3 -10 10
-10 16 0 14 7 11 14 -7z m451 6 c3 -6 -1 -7 -9 -4 -18 7 -21 14 -7 14 6 0 13
-4 16 -10z m-408 -16 c-3 -3 -12 -4 -19 -1 -8 3 -5 6 6 6 11 1 17 -2 13 -5z
m317 -2 c3 -5 -1 -9 -9 -9 -8 0 -15 4 -15 9 0 4 4 8 9 8 6 0 12 -4 15 -8z
m-44 -9 c-8 -3 -20 -9 -25 -14 -6 -4 -17 -3 -25 3 -12 8 -12 9 2 4 10 -3 20
-1 23 4 4 6 14 10 23 9 14 0 14 -2 2 -6z m740 -43 c0 -23 -16 -35 -26 -19 -5
8 -3 9 6 4 10 -6 12 -1 8 18 -3 15 -1 24 3 21 5 -3 9 -14 9 -24z m-926 -2 c-2
-3 -13 -6 -24 -5 -24 2 -18 13 9 13 11 0 18 -4 15 -8z m1006 -7 c0 -5 -7 -12
-16 -15 -14 -5 -15 -4 -4 9 14 17 20 19 20 6z m-1413 -16 c0 -8 -3 -13 -5 -10
-3 3 -17 -5 -31 -17 -21 -19 -20 -17 3 10 35 37 33 36 33 17z m293 5 c-8 -5
-19 -10 -25 -10 -5 0 -3 5 5 10 8 5 20 10 25 10 6 0 3 -5 -5 -10z m857 4 c-3
-3 -12 -4 -19 -1 -8 3 -5 6 6 6 11 1 17 -2 13 -5z m33 -8 c0 -2 -7 -7 -16 -10
-8 -3 -12 -2 -9 4 6 10 25 14 25 6z m50 -12 c0 -8 -19 -13 -24 -6 -3 5 1 9 9
9 8 0 15 -2 15 -3z m-660 -14 c0 -5 -5 -10 -11 -10 -5 0 -7 5 -4 10 3 6 8 10
11 10 2 0 4 -4 4 -10z m367 -5 c0 -8 -4 -12 -9 -9 -5 3 -6 10 -3 15 9 13 12
11 12 -6z m-957 -9 c0 -2 -8 -10 -17 -17 -16 -13 -17 -12 -4 4 13 16 21 21 21
13z m837 -8 c-2 -7 0 -22 5 -33 9 -19 8 -19 -6 -2 -8 11 -12 25 -9 33 6 17 16
19 10 2z m557 -4 c3 -8 2 -12 -4 -9 -6 3 -10 10 -10 16 0 14 7 11 14 -7z
m-1592 -38 c-16 -21 -21 -23 -26 -11 -3 8 0 14 7 12 7 -1 11 4 9 11 -1 8 2 11
8 7 5 -3 10 -1 10 6 0 7 3 10 6 6 4 -3 -3 -17 -14 -31z m92 26 c3 -5 -1 -9 -9
-9 -8 0 -12 4 -9 9 3 4 7 8 9 8 2 0 6 -4 9 -8z m58 -24 c-8 -8 -9 -4 -5 13 4
13 8 18 11 10 2 -7 -1 -18 -6 -23z m248 -13 c0 -14 -4 -25 -9 -25 -4 0 -6 11
-3 25 2 14 6 25 8 25 2 0 4 -11 4 -25z m-900 -5 c0 -5 -2 -10 -4 -10 -3 0 -8
5 -11 10 -3 6 -1 10 4 10 6 0 11 -4 11 -10z m68 -4 c1 -2 -10 -5 -26 -8 -18
-2 -29 0 -29 8 0 10 44 10 55 0z m59 -26 c2 -18 1 -21 -6 -10 -5 8 -8 17 -5
21 2 4 -6 10 -18 12 -22 5 -22 5 1 4 18 -2 25 -9 28 -27z m334 17 c-6 -8 -7
-18 -3 -22 4 -5 1 -5 -5 -1 -7 4 -13 2 -13 -3 0 -6 -6 -10 -12 -8 -7 1 -12 -4
-10 -11 1 -8 -2 -11 -9 -7 -7 5 -1 17 17 35 30 29 55 41 35 17z m1093 -3 c3
-8 2 -12 -4 -9 -6 3 -10 10 -10 16 0 14 7 11 14 -7z m-1284 -20 c0 -8 -19 -13
-24 -6 -3 5 1 9 9 9 8 0 15 -2 15 -3z m1391 -17 c-10 -9 -11 -8 -5 6 3 10 9
15 12 12 3 -3 0 -11 -7 -18z m-1418 -10 c7 3 3 -3 -7 -15 -14 -17 -16 -22 -5
-22 12 0 12 -2 0 -9 -8 -5 -11 -16 -8 -26 4 -9 3 -14 -3 -10 -11 7 -9 49 2 61
4 3 5 11 4 17 -2 7 -1 9 1 4 3 -4 10 -4 16 0z m64 7 c-3 -3 -12 -4 -19 -1 -8
3 -5 6 6 6 11 1 17 -2 13 -5z m1253 -4 c0 -5 -2 -10 -4 -10 -3 0 -8 5 -11 10
-3 6 -1 10 4 10 6 0 11 -4 11 -10z m-1175 -9 c3 -5 2 -12 -3 -15 -5 -3 -9 1
-9 9 0 17 3 19 12 6z m521 -6 c-1 -8 -5 -17 -8 -21 -5 -4 -4 16 1 34 3 9 9 -1
7 -13z m-1039 -67 c-3 -7 -5 -2 -5 12 0 14 2 19 5 13 2 -7 2 -19 0 -25z m42
-1 c8 -10 7 -14 -2 -14 -8 0 -14 6 -14 14 0 7 1 13 2 13 2 0 8 -6 14 -13z
m787 -2 c-1 -8 -5 -17 -8 -21 -5 -4 -4 16 1 34 3 9 9 -1 7 -13z m68 5 c3 -3
-5 -6 -19 -5 -13 0 -26 2 -29 5 -3 3 5 6 19 5 13 0 26 -2 29 -5z m-550 -26 c3
-8 2 -12 -4 -9 -6 3 -10 10 -10 16 0 14 7 11 14 -7z m586 -19 c14 -19 14 -19
-2 -6 -10 7 -18 18 -18 24 0 6 1 8 3 6 1 -2 9 -13 17 -24z m-875 -3 c-3 -3
-11 0 -18 7 -9 10 -8 11 6 5 10 -3 15 -9 12 -12z m286 -16 c-6 -7 -9 -22 -5
-32 5 -18 5 -18 -6 -1 -9 14 -9 22 0 33 7 7 15 14 17 14 3 0 0 -6 -6 -14z
m1154 -6 c-3 -5 -12 -10 -18 -10 -7 0 -6 4 3 10 19 12 23 12 15 0z m-550 -39
c-3 -5 -1 -12 5 -16 5 -3 10 -12 10 -18 -1 -20 -24 26 -26 53 -3 21 -1 22 7 7
6 -9 8 -21 4 -26z m419 -10 c-9 -9 -34 -9 -34 -1 0 5 9 8 20 7 10 -1 17 -3 14
-6z m-102 -23 c-6 -6 -22 -13 -34 -15 -18 -2 -19 -1 -8 6 8 5 17 8 21 5 4 -2
10 0 14 6 3 5 9 10 13 10 3 0 1 -5 -6 -12z m-837 -16 c-3 -3 -11 0 -18 7 -9
10 -8 11 6 5 10 -3 15 -9 12 -12z m220 9 c3 -5 2 -12 -3 -15 -5 -3 -9 1 -9 9
0 17 3 19 12 6z m1160 -1 c-3 -5 -18 -9 -33 -9 l-27 1 30 8 c17 4 31 8 33 9 2
0 0 -3 -3 -9z m-638 -32 c-3 -7 -5 -2 -5 12 0 14 2 19 5 13 2 -7 2 -19 0 -25z
m293 27 c0 -7 -30 -13 -34 -7 -3 4 4 9 15 9 10 1 19 0 19 -2z m430 -5 c0 -5
-4 -10 -10 -10 -5 0 -10 5 -10 10 0 6 5 10 10 10 6 0 10 -4 10 -10z m-1623 -6
c-3 -3 -12 -4 -19 -1 -8 3 -5 6 6 6 11 1 17 -2 13 -5z m698 -3 c3 -5 2 -12 -3
-15 -5 -3 -9 1 -9 9 0 17 3 19 12 6z m-592 -28 c-7 -2 -21 -2 -30 0 -10 3 -4
5 12 5 17 0 24 -2 18 -5z m848 -31 c-7 -2 -18 1 -23 6 -8 8 -4 9 13 5 13 -4
18 -8 10 -11z m-116 -32 c-3 -5 -12 -10 -18 -10 -7 0 -6 4 3 10 19 12 23 12
15 0z m1558 -250 c31 -52 54 -96 52 -98 -8 -8 -284 71 -279 80 3 4 33 26 67
48 34 22 71 46 81 55 11 8 21 14 22 12 1 -1 27 -45 57 -97z m-973 -14 c-7 -7
-13 -7 -20 0 -6 6 -3 10 10 10 13 0 16 -4 10 -10z m50 -32 c0 -8 -19 -13 -24
-6 -3 5 1 9 9 9 8 0 15 -2 15 -3z m-123 -88 c-1 -6 4 -10 11 -8 6 1 11 -4 10
-10 -2 -7 3 -12 10 -10 8 1 11 -2 7 -8 -7 -11 40 -99 59 -112 12 -8 16 -5 -56
-42 -32 -17 -59 -28 -60 -25 -2 2 -12 15 -23 28 -11 14 -14 21 -7 17 14 -8 17
10 2 19 -5 3 -10 13 -10 21 0 10 5 12 13 8 9 -6 9 -4 -1 8 -7 8 -9 24 -5 33 5
14 3 16 -8 10 -12 -8 -12 -6 -1 8 8 9 12 22 9 29 -2 7 2 20 9 29 16 18 44 21
41 5z m61 -71 c-3 -3 -9 2 -12 12 -6 14 -5 15 5 6 7 -7 10 -15 7 -18z m187 15
c3 -5 1 -10 -4 -10 -6 0 -11 5 -11 10 0 6 2 10 4 10 3 0 8 -4 11 -10z m-408
-62 c-3 -8 -6 -5 -6 6 -1 11 2 17 5 13 3 -3 4 -12 1 -19z m727 -56 c3 -5 -1
-9 -9 -9 -8 0 -12 4 -9 9 3 4 7 8 9 8 2 0 6 -4 9 -8z m-719 -82 c-3 -5 -12
-10 -18 -10 -7 0 -6 4 3 10 19 12 23 12 15 0z m-35 -4 c0 -2 -8 -10 -17 -17
-16 -13 -17 -12 -4 4 13 16 21 21 21 13z m-76 -34 c3 -5 -1 -9 -9 -9 -8 0 -12
4 -9 9 3 4 7 8 9 8 2 0 6 -4 9 -8z m-44 -16 c0 -3 -4 -8 -10 -11 -5 -3 -10 -1
-10 4 0 6 5 11 10 11 6 0 10 -2 10 -4z m675 -35 c3 -5 2 -12 -3 -15 -5 -3 -9
1 -9 9 0 17 3 19 12 6z m-764 -24 c-10 -9 -11 -8 -5 6 3 10 9 15 12 12 3 -3 0
-11 -7 -18z m-713 -275 c-2 -7 -6 -13 -10 -13 -4 0 -22 -5 -40 -10 -71 -22
-70 -23 -25 67 l42 85 18 -58 c10 -31 16 -64 15 -71z m1606 106 c-3 -4 -11 -5
-19 -1 -21 7 -19 12 4 10 11 0 18 -5 15 -9z m207 -15 c13 -16 12 -17 -3 -4
-17 13 -22 21 -14 21 2 0 10 -8 17 -17z m-56 -2 c-9 -8 -36 -10 -30 -2 2 4 11
8 20 8 8 0 13 -3 10 -6z m-62 -36 c-3 -9 -8 -14 -10 -11 -3 3 -2 9 2 15 9 16
15 13 8 -4z m142 -5 c3 -5 1 -10 -4 -10 -6 0 -11 5 -11 10 0 6 2 10 4 10 3 0
8 -4 11 -10z m-755 -40 c0 -5 -5 -10 -11 -10 -5 0 -7 5 -4 10 3 6 8 10 11 10
2 0 4 -4 4 -10z m511 -13 c-10 -9 -11 -8 -5 6 3 10 9 15 12 12 3 -3 0 -11 -7
-18z m9 -70 c0 -12 0 -11 -24 28 l-17 30 20 -24 c12 -13 21 -28 21 -34z m-560
29 c0 -3 -4 -8 -10 -11 -5 -3 -10 -1 -10 4 0 6 5 11 10 11 6 0 10 -2 10 -4z
m-80 -30 c0 -2 -7 -7 -16 -10 -8 -3 -12 -2 -9 4 6 10 25 14 25 6z m955 -16 c3
-5 1 -10 -4 -10 -6 0 -11 5 -11 10 0 6 2 10 4 10 3 0 8 -4 11 -10z m-1055 -20
c0 -5 -6 -12 -12 -16 -7 -4 -10 -4 -6 1 4 4 3 14 -4 22 -8 11 -7 12 6 7 9 -3
16 -10 16 -14z m764 -16 c3 -8 2 -12 -4 -9 -6 3 -10 10 -10 16 0 14 7 11 14
-7z m20 -40 c3 -8 2 -12 -4 -9 -6 3 -10 10 -10 16 0 14 7 11 14 -7z m289 -11
c-3 -7 -6 -13 -8 -13 -2 0 -5 6 -8 13 -3 8 1 14 8 14 7 0 11 -6 8 -14z m-948
-23 c3 -6 -1 -7 -9 -4 -18 7 -21 14 -7 14 6 0 13 -4 16 -10z m683 -15 c-3 -3
-9 2 -12 12 -6 14 -5 15 5 6 7 -7 10 -15 7 -18z m-768 -11 c0 -8 -19 -13 -24
-6 -3 5 1 9 9 9 8 0 15 -2 15 -3z m298 -86 c10 -28 9 -30 -2 -15 -16 21 -30
23 -23 2 4 -8 2 -17 -3 -20 -4 -3 -7 6 -5 20 1 15 -4 29 -14 35 -13 8 -11 9 9
10 20 0 28 -7 38 -32z m-318 -60 c0 -4 -4 -8 -9 -8 -6 0 -12 4 -15 8 -3 5 1 9
9 9 8 0 15 -4 15 -9z m304 -4 c5 -14 4 -15 -9 -4 -17 14 -19 20 -6 20 5 0 12
-7 15 -16z m-309 -33 c3 -5 2 -12 -3 -15 -5 -3 -9 1 -9 9 0 17 3 19 12 6z
m309 -37 c3 -8 2 -12 -4 -9 -6 3 -10 10 -10 16 0 14 7 11 14 -7z m-171 -101
c-7 -2 -19 -2 -25 0 -7 3 -2 5 12 5 14 0 19 -2 13 -5z"/>
<path d="M3685 4370 c-126 -49 -234 -91 -239 -93 -5 -1 -2 -25 7 -52 9 -28 64
-198 122 -378 l106 -328 217 112 c119 61 219 113 221 115 7 6 -52 144 -61 144
-5 0 -61 -14 -124 -31 -64 -17 -118 -29 -120 -26 -3 3 -6 17 -7 32 -2 25 4 31
50 49 28 12 55 25 58 28 11 10 -18 109 -29 105 -81 -30 -149 -47 -156 -41 -4
5 -10 20 -13 34 -6 25 -3 27 138 74 80 26 145 50 145 54 1 16 -75 292 -80 291
-3 0 -108 -41 -235 -89z"/>
<path d="M4712 4151 c-20 -9 -31 -20 -27 -28 2 -8 1 -11 -4 -8 -5 3 -12 1 -16
-5 -3 -5 -1 -10 4 -10 6 0 11 -6 11 -13 0 -21 41 -59 57 -53 8 4 11 1 7 -5
-13 -21 57 -1 76 23 23 27 24 41 8 71 -25 47 -55 55 -116 28z"/>
<path d="M4645 3480 c-19 -8 -43 -29 -75 -67 -9 -11 -15 -36 -14 -67 1 -44 5
-53 40 -83 34 -30 44 -34 79 -29 29 4 34 3 20 -4 -17 -7 -14 -9 13 -7 17 1 32
5 32 9 0 4 7 5 15 2 8 -4 15 -1 15 5 0 6 6 11 14 11 20 0 46 45 46 79 0 84
-70 150 -146 140 -4 0 -10 4 -13 9 -3 5 -15 6 -26 2z"/>
<path d="M1703 2596 c-31 -16 -63 -56 -63 -77 0 -13 4 -18 12 -13 7 5 8 3 2
-7 -15 -24 -13 -36 12 -64 15 -17 29 -25 39 -21 9 3 13 2 10 -4 -18 -28 92
-11 134 22 13 10 20 18 15 18 -4 0 -3 5 4 12 14 14 16 32 3 24 -4 -3 -6 6 -3
21 3 18 1 24 -6 19 -8 -4 -10 -2 -6 7 5 13 -36 65 -54 68 -32 6 -85 3 -99 -5z"/>
<path d="M1972 2163 c-7 -3 -19 -18 -28 -35 -20 -38 -11 -103 12 -94 9 3 12 1
9 -4 -4 -6 8 -10 29 -10 22 0 38 6 44 16 5 9 13 15 18 15 5 0 9 16 9 36 0 31
-6 41 -34 60 -35 24 -38 25 -59 16z"/>
</g>
</svg>
